Andika-Regular.ufo
<glyph name="ExclamationMrk" format="1">
  <advance width="764"/>
  <unicode hex="0021"/>
  <outline>
    <contour>
      <point x="450" y="440" type="line" name="hr00"/>
      <point x="456" y="730"/>
      <point x="451" y="1076"/>
      <point x="490" y="1510" type="curve"/>
      <point x="235" y="1510" type="line"/>
      <point x="273" y="1076"/>
      <point x="268" y="730"/>
      <point x="275" y="440" type="curve"/>
    </contour>
    <contour>
      <point x="225" y="110" type="curve" smooth="yes"/>
      <point x="225" y="36"/>
      <point x="286" y="-25"/>
      <point x="360" y="-25" type="curve" smooth="yes"/>
      <point x="434" y="-25"/>
      <point x="495" y="36"/>
      <point x="495" y="110" type="curve" smooth="yes"/>
      <point x="495" y="184"/>
      <point x="434" y="245"/>
      <point x="360" y="245" type="curve" smooth="yes"/>
      <point x="286" y="245"/>
      <point x="225" y="184"/>
    </contour>
  </outline>
</glyph>
<glyph name="QuotMrk" format="1">
  <advance width="1025"/>
  <unicode hex="0022"/>
  <outline>
    <contour>
      <point x="405" y="1045" type="line" name="hr00"/>
      <point x="410" y="1186"/>
      <point x="416" y="1339"/>
      <point x="445" y="1585" type="curve"/>
      <point x="240" y="1585" type="line"/>
      <point x="271" y="1339"/>
      <point x="276" y="1186"/>
      <point x="280" y="1045" type="curve"/>
    </contour>
    <contour>
      <point x="745" y="1045" type="line"/>
      <point x="750" y="1186"/>
      <point x="756" y="1339"/>
      <point x="785" y="1585" type="curve"/>
      <point x="580" y="1585" type="line"/>
      <point x="611" y="1339"/>
      <point x="616" y="1186"/>
      <point x="620" y="1045" type="curve"/>
    </contour>
  </outline>
</glyph>
<glyph name="NumSgn" format="1">
  <advance width="1200"/>
  <unicode hex="0023"/>
  <outline>
    <contour>
      <point x="487" y="1460" type="line" name="hr01"/>
      <point x="127" y="200" type="line"/>
      <point x="277" y="200" type="line"/>
      <point x="637" y="1460" type="line"/>
    </contour>
    <contour>
      <point x="25" y="575" type="line"/>
      <point x="1116" y="575" type="line"/>
      <point x="1116" y="725" type="line"/>
      <point x="25" y="725" type="line"/>
    </contour>
    <contour>
      <point x="84" y="960" type="line" name="hr02"/>
      <point x="1175" y="960" type="line"/>
      <point x="1175" y="1110" type="line"/>
      <point x="84" y="1110" type="line"/>
    </contour>
    <contour>
      <point x="912" y="1460" type="line" name="hr03"/>
      <point x="552" y="200" type="line"/>
      <point x="702" y="200" type="line"/>
      <point x="1062" y="1460" type="line"/>
    </contour>
  </outline>
</glyph>
<glyph name="LftParen" format="1">
  <advance width="795"/>
  <unicode hex="0028"/>
  <outline>
    <contour>
      <point x="115" y="625" type="curve" smooth="yes" name="hr00"/>
      <point x="115" y="218"/>
      <point x="260" y="-125"/>
      <point x="535" y="-410" type="curve"/>
      <point x="630" y="-265" type="line"/>
      <point x="395" y="-8"/>
      <point x="305" y="278"/>
      <point x="305" y="625" type="curve" smooth="yes"/>
      <point x="305" y="982"/>
      <point x="395" y="1280"/>
      <point x="630" y="1485" type="curve"/>
      <point x="555" y="1640" type="line"/>
      <point x="290" y="1444"/>
      <point x="115" y="1062"/>
    </contour>
  </outline>
</glyph>
<glyph name="PlusSgn" format="1">
  <advance width="1200"/>
  <unicode hex="002B"/>
  <outline>
    <contour>
      <point x="525" y="1180" type="line" name="hr00"/>
      <point x="525" y="285" type="line"/>
      <point x="675" y="285" type="line"/>
      <point x="675" y="1180" type="line"/>
    </contour>
    <contour>
      <point x="155" y="660" type="line"/>
      <point x="1045" y="660" type="line"/>
      <point x="1045" y="810" type="line"/>
      <point x="155" y="810" type="line"/>
    </contour>
  </outline>
</glyph>
<glyph name="Comma" format="1">
  <advance width="650"/>
  <unicode hex="002C"/>
  <outline>
    <contour>
      <point x="185" y="50" type="line" name="hr00"/>
      <point x="325" y="50" type="line"/>
      <point x="325" y="-51"/>
      <point x="248" y="-172"/>
      <point x="190" y="-230" type="curve"/>
      <point x="290" y="-270" type="line"/>
      <point x="407" y="-160"/>
      <point x="465" y="-37"/>
      <point x="465" y="85" type="curve" smooth="yes"/>
      <point x="465" y="186"/>
      <point x="400" y="250"/>
      <point x="320" y="250" type="curve" smooth="yes"/>
      <point x="263" y="250"/>
      <point x="198" y="213"/>
      <point x="185" y="150" type="curve"/>
    </contour>
  </outline>
</glyph>
<glyph name="HyphenMinus" format="1">
  <advance width="860"/>
  <unicode hex="002D"/>
  <outline>
    <contour>
      <point x="80" y="555" type="line" name="hr00"/>
      <point x="780" y="555" type="line"/>
      <point x="780" y="705" type="line"/>
      <point x="80" y="705" type="line"/>
    </contour>
    <contour>
      <point x="430" y="1100" type="move" name="U"/>
    </contour>
  </outline>
</glyph>
<glyph name="Solidus" format="1">
  <advance width="1000"/>
  <unicode hex="002F"/>
  <outline>
    <contour>
      <point x="840" y="1600" type="line" name="hr00"/>
      <point x="10" y="-245" type="line"/>
      <point x="160" y="-245" type="line"/>
      <point x="990" y="1600" type="line"/>
    </contour>
  </outline>
</glyph>
<glyph name="DigitZero" format="1">
  <advance width="1200"/>
  <unicode hex="0030"/>
  <outline>
    <contour>
      <point x="910" y="715" type="curve" smooth="yes" name="hr00"/>
      <point x="910" y="308"/>
      <point x="792" y="145"/>
      <point x="600" y="145" type="curve" smooth="yes"/>
      <point x="402" y="145"/>
      <point x="290" y="305"/>
      <point x="290" y="745" type="curve" smooth="yes"/>
      <point x="290" y="1153"/>
      <point x="407" y="1315"/>
      <point x="600" y="1315" type="curve" smooth="yes"/>
      <point x="802" y="1315"/>
      <point x="910" y="1156"/>
    </contour>
    <contour>
      <point x="1110" y="740" type="curve" smooth="yes"/>
      <point x="1110" y="1286"/>
      <point x="900" y="1485"/>
      <point x="610" y="1485" type="curve" smooth="yes"/>
      <point x="321" y="1485"/>
      <point x="90" y="1283"/>
      <point x="90" y="720" type="curve" smooth="yes"/>
      <point x="90" y="155"/>
      <point x="301" y="-25"/>
      <point x="590" y="-25" type="curve" smooth="yes"/>
      <point x="881" y="-25"/>
      <point x="1110" y="151"/>
    </contour>
    <contour>
      <point x="605" y="-100" type="move" name="L"/>
    </contour>
    <contour>
      <point x="605" y="1530" type="move" name="U"/>
    </contour>
  </outline>
</glyph>
<glyph name="DigitTwo" format="1">
  <advance width="1200"/>
  <unicode hex="0032"/>
  <outline>
    <contour>
      <point x="1080" y="180" type="line" name="hr00"/>
      <point x="1000" y="166"/>
      <point x="842" y="165"/>
      <point x="645" y="165" type="curve" smooth="yes"/>
      <point x="390" y="165" type="line"/>
      <point x="609" y="352"/>
      <point x="1010" y="729"/>
      <point x="1010" y="1065" type="curve" smooth="yes"/>
      <point x="1010" y="1323"/>
      <point x="800" y="1485"/>
      <point x="560" y="1485" type="curve" smooth="yes"/>
      <point x="391" y="1485"/>
      <point x="206" y="1402"/>
      <point x="125" y="1290" type="curve"/>
      <point x="170" y="1120" type="line"/>
      <point x="259" y="1228"/>
      <point x="402" y="1305"/>
      <point x="525" y="1305" type="curve" smooth="yes"/>
      <point x="668" y="1305"/>
      <point x="810" y="1233"/>
      <point x="810" y="1045" type="curve" smooth="yes"/>
      <point x="810" y="768"/>
      <point x="391" y="365"/>
      <point x="120" y="170" type="curve"/>
      <point x="120" y="0" type="line"/>
      <point x="1080" y="0" type="line"/>
    </contour>
    <contour>
      <point x="600" y="-100" type="move" name="L"/>
    </contour>
    <contour>
      <point x="560" y="1530" type="move" name="U"/>
    </contour>
  </outline>
</glyph>
<glyph name="DigitFour" format="1">
  <advance width="1200"/>
  <unicode hex="0034"/>
  <outline>
    <contour>
      <point x="1125" y="395" type="line" name="hr00"/>
      <point x="1125" y="550" type="line"/>
      <point x="935" y="550" type="line"/>
      <point x="935" y="1480" type="line"/>
      <point x="745" y="1480" type="line"/>
      <point x="90" y="550" type="line"/>
      <point x="90" y="395" type="line"/>
      <point x="745" y="395" type="line"/>
      <point x="745" y="0" type="line"/>
      <point x="935" y="0" type="line"/>
      <point x="935" y="395" type="line"/>
    </contour>
    <contour>
      <point x="745" y="1230" type="line"/>
      <point x="745" y="550" type="line"/>
      <point x="263" y="550" type="line"/>
    </contour>
    <contour>
      <point x="607" y="-100" type="move" name="L"/>
    </contour>
    <contour>
      <point x="607" y="1530" type="move" name="U"/>
    </contour>
  </outline>
</glyph>
<glyph name="DigitFive" format="1">
  <advance width="1200"/>
  <unicode hex="0035"/>
  <outline>
    <contour>
      <point x="195" y="685" type="line" name="hr00"/>
      <point x="319" y="733"/>
      <point x="404" y="750"/>
      <point x="510" y="750" type="curve" smooth="yes"/>
      <point x="670" y="750"/>
      <point x="870" y="672"/>
      <point x="870" y="470" type="curve" smooth="yes"/>
      <point x="870" y="268"/>
      <point x="730" y="155"/>
      <point x="530" y="155" type="curve" smooth="yes"/>
      <point x="390" y="155"/>
      <point x="294" y="182"/>
      <point x="160" y="290" type="curve"/>
      <point x="130" y="80" type="line"/>
      <point x="255" y="2"/>
      <point x="363" y="-25"/>
      <point x="518" y="-25" type="curve" smooth="yes"/>
      <point x="831" y="-25"/>
      <point x="1060" y="163"/>
      <point x="1060" y="475" type="curve" smooth="yes"/>
      <point x="1060" y="742"/>
      <point x="832" y="930"/>
      <point x="545" y="930" type="curve" smooth="yes"/>
      <point x="472" y="930"/>
      <point x="411" y="924"/>
      <point x="380" y="920" type="curve"/>
      <point x="380" y="1290" type="line"/>
      <point x="765" y="1290" type="line"/>
      <point x="849" y="1290"/>
      <point x="925" y="1286"/>
      <point x="1000" y="1270" type="curve"/>
      <point x="1000" y="1460" type="line"/>
      <point x="195" y="1460" type="line"/>
    </contour>
    <contour>
      <point x="600" y="-100" type="move" name="L"/>
    </contour>
    <contour>
      <point x="600" y="1530" type="move" name="U"/>
    </contour>
  </outline>
</glyph>
<glyph name="DigitEight" format="1">
  <advance width="1200"/>
  <unicode hex="0038"/>
  <outline>
    <contour>
      <point x="600" y="-25" type="curve" smooth="yes" name="hr01"/>
      <point x="857" y="-25"/>
      <point x="1110" y="134"/>
      <point x="1110" y="405" type="curve" smooth="yes"/>
      <point x="1110" y="611"/>
      <point x="965" y="739"/>
      <point x="855" y="795" type="curve"/>
      <point x="933" y="844"/>
      <point x="1050" y="923"/>
      <point x="1050" y="1105" type="curve" smooth="yes" name="hr02"/>
      <point x="1050" y="1350"/>
      <point x="840" y="1485"/>
      <point x="610" y="1485" type="curve" smooth="yes"/>
      <point x="381" y="1485"/>
      <point x="150" y="1350"/>
      <point x="150" y="1105" type="curve" smooth="yes"/>
      <point x="150" y="923"/>
      <point x="272" y="838"/>
      <point x="350" y="795" type="curve"/>
      <point x="221" y="725"/>
      <point x="90" y="611"/>
      <point x="90" y="405" type="curve" smooth="yes" name="hr03"/>
      <point x="90" y="134"/>
      <point x="344" y="-25"/>
    </contour>
    <contour>
      <point x="860" y="1105" type="curve" smooth="yes" name="hr04"/>
      <point x="860" y="949"/>
      <point x="743" y="865"/>
      <point x="600" y="865" type="curve" smooth="yes"/>
      <point x="457" y="865"/>
      <point x="340" y="949"/>
      <point x="340" y="1105" type="curve" smooth="yes"/>
      <point x="340" y="1252"/>
      <point x="457" y="1325"/>
      <point x="600" y="1325" type="curve" smooth="yes"/>
      <point x="743" y="1325"/>
      <point x="860" y="1252"/>
    </contour>
    <contour>
      <point x="910" y="425" type="curve" smooth="yes" name="hr05"/>
      <point x="910" y="250"/>
      <point x="778" y="145"/>
      <point x="600" y="145" type="curve" smooth="yes"/>
      <point x="420" y="145"/>
      <point x="290" y="250"/>
      <point x="290" y="425" type="curve" smooth="yes"/>
      <point x="290" y="592"/>
      <point x="420" y="710"/>
      <point x="600" y="710" type="curve" smooth="yes"/>
      <point x="778" y="710"/>
      <point x="910" y="592"/>
    </contour>
    <contour>
      <point x="600" y="-100" type="move" name="L"/>
    </contour>
    <contour>
      <point x="600" y="1530" type="move" name="U"/>
    </contour>
  </outline>
</glyph>
<glyph name="Colon" format="1">
  <advance width="640"/>
  <unicode hex="003A"/>
  <outline>
    <contour>
      <point x="185" y="790" type="curve" smooth="yes" name="hr00"/>
      <point x="185" y="716"/>
      <point x="246" y="655"/>
      <point x="320" y="655" type="curve" smooth="yes"/>
      <point x="394" y="655"/>
      <point x="455" y="716"/>
      <point x="455" y="790" type="curve" smooth="yes"/>
      <point x="455" y="864"/>
      <point x="394" y="925"/>
      <point x="320" y="925" type="curve" smooth="yes"/>
      <point x="246" y="925"/>
      <point x="185" y="864"/>
    </contour>
    <contour>
      <point x="185" y="110" type="curve" smooth="yes"/>
      <point x="185" y="36"/>
      <point x="246" y="-25"/>
      <point x="320" y="-25" type="curve" smooth="yes"/>
      <point x="394" y="-25"/>
      <point x="455" y="36"/>
      <point x="455" y="110" type="curve" smooth="yes"/>
      <point x="455" y="184"/>
      <point x="394" y="245"/>
      <point x="320" y="245" type="curve" smooth="yes"/>
      <point x="246" y="245"/>
      <point x="185" y="184"/>
    </contour>
  </outline>
</glyph>
<glyph name="Semicolon" format="1">
  <advance width="650"/>
  <unicode hex="003B"/>
  <outline>
    <contour>
      <point x="185" y="790" type="curve" smooth="yes" name="hr01"/>
      <point x="185" y="716"/>
      <point x="246" y="655"/>
      <point x="320" y="655" type="curve" smooth="yes"/>
      <point x="394" y="655"/>
      <point x="455" y="716"/>
      <point x="455" y="790" type="curve" smooth="yes"/>
      <point x="455" y="864"/>
      <point x="394" y="925"/>
      <point x="320" y="925" type="curve" smooth="yes"/>
      <point x="246" y="925"/>
      <point x="185" y="864"/>
    </contour>
    <contour>
      <point x="185" y="50" type="line"/>
      <point x="325" y="50" type="line" name="hr02"/>
      <point x="325" y="-51"/>
      <point x="248" y="-172"/>
      <point x="190" y="-230" type="curve"/>
      <point x="290" y="-270" type="line"/>
      <point x="407" y="-160"/>
      <point x="465" y="-37"/>
      <point x="465" y="85" type="curve" smooth="yes"/>
      <point x="465" y="186"/>
      <point x="400" y="250"/>
      <point x="320" y="250" type="curve" smooth="yes"/>
      <point x="263" y="250"/>
      <point x="198" y="213"/>
      <point x="185" y="150" type="curve" name="hr03"/>
    </contour>
  </outline>
</glyph>
<glyph name="LTSgn" format="1">
  <advance width="1200"/>
  <unicode hex="003C"/>
  <outline>
    <contour>
      <point x="1080" y="425" type="line" name="hr00"/>
      <point x="290" y="730" type="line"/>
      <point x="1080" y="1035" type="line"/>
      <point x="1080" y="1215" type="line"/>
      <point x="100" y="815" type="line"/>
      <point x="100" y="645" type="line"/>
      <point x="1080" y="245" type="line"/>
    </contour>
  </outline>
</glyph>
<glyph name="EqSgn" format="1">
  <advance width="1200"/>
  <unicode hex="003D"/>
  <outline>
    <contour>
      <point x="120" y="480" type="line" name="hr00"/>
      <point x="1080" y="480" type="line"/>
      <point x="1080" y="630" type="line"/>
      <point x="120" y="630" type="line"/>
    </contour>
    <contour>
      <point x="120" y="830" type="line"/>
      <point x="1080" y="830" type="line"/>
      <point x="1080" y="980" type="line"/>
      <point x="120" y="980" type="line"/>
    </contour>
  </outline>
</glyph>
<glyph name="GTSgn" format="1">
  <advance width="1200"/>
  <unicode hex="003E"/>
  <outline>
    <contour>
      <point x="120" y="1035" type="line" name="hr00"/>
      <point x="910" y="730" type="line"/>
      <point x="120" y="425" type="line"/>
      <point x="120" y="245" type="line"/>
      <point x="1100" y="645" type="line"/>
      <point x="1100" y="815" type="line"/>
      <point x="120" y="1215" type="line"/>
    </contour>
  </outline>
</glyph>
<glyph name="LtnCapB" format="1">
  <advance width="1285"/>
  <unicode hex="0042"/>
  <outline>
    <contour>
      <point x="365" y="1310" type="line" name="hr01"/>
      <point x="407" y="1312"/>
      <point x="512" y="1315"/>
      <point x="590" y="1315" type="curve" smooth="yes"/>
      <point x="791" y="1315"/>
      <point x="870" y="1239"/>
      <point x="870" y="1090" type="curve" smooth="yes" name="hr02"/>
      <point x="870" y="951"/>
      <point x="774" y="855"/>
      <point x="560" y="855" type="curve" smooth="yes"/>
      <point x="365" y="855" type="line"/>
    </contour>
    <contour>
      <point x="175" y="455" type="line"/>
      <point x="175" y="257"/>
      <point x="175" y="80"/>
      <point x="160" y="0" type="curve"/>
      <point x="213" y="-5"/>
      <point x="402" y="-10"/>
      <point x="605" y="-10" type="curve" smooth="yes" name="hr03"/>
      <point x="988" y="-10"/>
      <point x="1140" y="177"/>
      <point x="1140" y="420" type="curve" smooth="yes"/>
      <point x="1140" y="669"/>
      <point x="974" y="759"/>
      <point x="820" y="800" type="curve"/>
      <point x="956" y="852"/>
      <point x="1065" y="952"/>
      <point x="1065" y="1120" type="curve" smooth="yes" name="hr04"/>
      <point x="1065" y="1381"/>
      <point x="897" y="1470"/>
      <point x="600" y="1470" type="curve" smooth="yes"/>
      <point x="431" y="1470"/>
      <point x="248" y="1466"/>
      <point x="160" y="1460" type="curve"/>
      <point x="175" y="1380"/>
      <point x="175" y="1196"/>
      <point x="175" y="1000" type="curve" smooth="yes"/>
    </contour>
    <contour>
      <point x="365" y="700" type="line"/>
      <point x="600" y="700" type="line" smooth="yes"/>
      <point x="833" y="700"/>
      <point x="945" y="604"/>
      <point x="945" y="420" type="curve" smooth="yes" name="hr05"/>
      <point x="945" y="212"/>
      <point x="781" y="150"/>
      <point x="610" y="150" type="curve" smooth="yes"/>
      <point x="498" y="150"/>
      <point x="402" y="153"/>
      <point x="365" y="155" type="curve"/>
    </contour>
    <contour>
      <point x="615" y="-100" type="move" name="L"/>
    </contour>
    <contour>
      <point x="615" y="1530" type="move" name="U"/>
    </contour>
  </outline>
</glyph>
<glyph name="LtnCapE" format="1">
  <advance width="1160"/>
  <unicode hex="0045"/>
  <outline>
    <contour>
      <point x="365" y="845" type="line" name="hr00"/>
      <point x="365" y="1295" type="line"/>
      <point x="1010" y="1295" type="line"/>
      <point x="1010" y="1460" type="line"/>
      <point x="160" y="1460" type="line"/>
      <point x="175" y="1380"/>
      <point x="175" y="1222"/>
      <point x="175" y="1025" type="curve" smooth="yes"/>
      <point x="175" y="435" type="line" smooth="yes"/>
      <point x="175" y="238"/>
      <point x="175" y="80"/>
      <point x="160" y="0" type="curve"/>
      <point x="1040" y="0" type="line"/>
      <point x="1040" y="180" type="line"/>
      <point x="960" y="166"/>
      <point x="826" y="165"/>
      <point x="629" y="165" type="curve" smooth="yes"/>
      <point x="365" y="165" type="line"/>
      <point x="365" y="685" type="line"/>
      <point x="935" y="685" type="line"/>
      <point x="935" y="845" type="line"/>
    </contour>
    <contour>
      <point x="600" y="0" type="move" name="H"/>
    </contour>
    <contour>
      <point x="600" y="-100" type="move" name="L"/>
    </contour>
    <contour>
      <point x="917" y="0" type="move" name="O"/>
    </contour>
    <contour>
      <point x="1160" y="1200" type="move" name="R"/>
    </contour>
    <contour>
      <point x="600" y="1530" type="move" name="U"/>
    </contour>
  </outline>
</glyph>
<glyph name="LtnCapF" format="1">
  <advance width="1150"/>
  <unicode hex="0046"/>
  <outline>
    <contour>
      <point x="365" y="835" type="line" name="hr00"/>
      <point x="365" y="1295" type="line"/>
      <point x="1030" y="1295" type="line"/>
      <point x="1030" y="1460" type="line"/>
      <point x="160" y="1460" type="line"/>
      <point x="175" y="1380"/>
      <point x="175" y="1217"/>
      <point x="175" y="1020" type="curve" smooth="yes"/>
      <point x="175" y="435" type="line" smooth="yes"/>
      <point x="175" y="238"/>
      <point x="175" y="80"/>
      <point x="160" y="0" type="curve"/>
      <point x="380" y="0" type="line"/>
      <point x="365" y="78"/>
      <point x="365" y="237"/>
      <point x="365" y="435" type="curve" smooth="yes"/>
      <point x="365" y="675" type="line"/>
      <point x="945" y="675" type="line"/>
      <point x="945" y="835" type="line"/>
    </contour>
    <contour>
      <point x="595" y="-100" type="move" name="L"/>
    </contour>
    <contour>
      <point x="595" y="1530" type="move" name="U"/>
    </contour>
  </outline>
</glyph>
<glyph name="LtnCapI" format="1">
  <advance width="975"/>
  <unicode hex="0049"/>
  <outline>
    <contour>
      <point x="140" y="1460" type="line" name="hr00"/>
      <point x="140" y="1315" type="line"/>
      <point x="380" y="1315" type="line"/>
      <point x="380" y="145" type="line"/>
      <point x="140" y="145" type="line"/>
      <point x="140" y="0" type="line"/>
      <point x="815" y="0" type="line"/>
      <point x="815" y="145" type="line"/>
      <point x="570" y="145" type="line"/>
      <point x="570" y="1315" type="line"/>
      <point x="815" y="1315" type="line"/>
      <point x="815" y="1460" type="line"/>
    </contour>
    <contour>
      <point x="477" y="0" type="move" name="H"/>
    </contour>
    <contour>
      <point x="477" y="-100" type="move" name="L"/>
    </contour>
    <contour>
      <point x="673" y="0" type="move" name="O"/>
    </contour>
    <contour>
      <point x="975" y="1200" type="move" name="R"/>
    </contour>
    <contour>
      <point x="477" y="1530" type="move" name="U"/>
    </contour>
  </outline>
</glyph>
<glyph name="LtnCapJ" format="1">
  <advance width="965"/>
  <unicode hex="004A"/>
  <outline>
    <contour>
      <point x="575" y="1460" type="line" name="hr00"/>
      <point x="588" y="1354"/>
      <point x="590" y="1175"/>
      <point x="590" y="980" type="curve"/>
      <point x="590" y="485" type="line" smooth="yes"/>
      <point x="590" y="256"/>
      <point x="487" y="155"/>
      <point x="340" y="155" type="curve" smooth="yes"/>
      <point x="248" y="155"/>
      <point x="147" y="198"/>
      <point x="80" y="275" type="curve"/>
      <point x="35" y="90" type="line"/>
      <point x="106" y="9"/>
      <point x="250" y="-25"/>
      <point x="345" y="-25" type="curve" smooth="yes"/>
      <point x="602" y="-25"/>
      <point x="780" y="119"/>
      <point x="780" y="535" type="curve" smooth="yes"/>
      <point x="780" y="1460" type="line"/>
    </contour>
    <contour>
      <point x="410" y="-100" type="move" name="L"/>
    </contour>
    <contour>
      <point x="675" y="1530" type="move" name="U"/>
    </contour>
  </outline>
</glyph>
<glyph name="LtnCapO" format="1">
  <advance width="1460"/>
  <unicode hex="004F"/>
  <outline>
    <contour>
      <point x="1145" y="715" type="curve" smooth="yes" name="hr00"/>
      <point x="1145" y="360"/>
      <point x="965" y="150"/>
      <point x="720" y="150" type="curve" smooth="yes"/>
      <point x="460" y="150"/>
      <point x="290" y="380"/>
      <point x="290" y="745" type="curve" smooth="yes"/>
      <point x="290" y="1091"/>
      <point x="467" y="1310"/>
      <point x="720" y="1310" type="curve" smooth="yes"/>
      <point x="974" y="1310"/>
      <point x="1145" y="1084"/>
    </contour>
    <contour>
      <point x="1340" y="740" type="curve" smooth="yes"/>
      <point x="1340" y="1219"/>
      <point x="1048" y="1485"/>
      <point x="730" y="1485" type="curve" smooth="yes"/>
      <point x="407" y="1485"/>
      <point x="95" y="1199"/>
      <point x="95" y="720" type="curve" smooth="yes"/>
      <point x="95" y="241"/>
      <point x="388" y="-25"/>
      <point x="710" y="-25" type="curve" smooth="yes"/>
      <point x="1029" y="-25"/>
      <point x="1340" y="260"/>
    </contour>
    <contour>
      <point x="717" y="0" type="move" name="H"/>
    </contour>
    <contour>
      <point x="717" y="-100" type="move" name="L"/>
    </contour>
    <contour>
      <point x="994" y="0" type="move" name="O"/>
    </contour>
    <contour>
      <point x="1460" y="1200" type="move" name="R"/>
    </contour>
    <contour>
      <point x="717" y="1530" type="move" name="U"/>
    </contour>
  </outline>
</glyph>
<glyph name="LtnCapR" format="2">
  <advance width="1305"/>
  <unicode hex="0052"/>
  <anchor x="285" y="0" name="H"/>
  <anchor x="610" y="-100" name="L"/>
  <anchor x="610" y="1530" name="U"/>
  <outline>
    <contour>
      <point x="365" y="625" type="line"/>
      <point x="620" y="625" type="line"/>
      <point x="805" y="625"/>
      <point x="1090" y="743"/>
      <point x="1090" y="1060" type="curve" smooth="yes"/>
      <point x="1090" y="1349"/>
      <point x="876" y="1470"/>
      <point x="565" y="1470" type="curve" smooth="yes"/>
      <point x="394" y="1470"/>
      <point x="234" y="1464"/>
      <point x="160" y="1460" type="curve"/>
      <point x="175" y="1380"/>
      <point x="175" y="1196"/>
      <point x="175" y="1000" type="curve" smooth="yes"/>
      <point x="175" y="435" type="line"/>
      <point x="175" y="238"/>
      <point x="175" y="80"/>
      <point x="160" y="0" type="curve"/>
      <point x="380" y="0" type="line"/>
      <point x="366" y="78"/>
      <point x="365" y="238"/>
      <point x="365" y="435" type="curve"/>
    </contour>
    <contour>
      <point x="365" y="1305" type="line"/>
      <point x="418" y="1308"/>
      <point x="485" y="1310"/>
      <point x="555" y="1310" type="curve" smooth="yes"/>
      <point x="800" y="1310"/>
      <point x="900" y="1216"/>
      <point x="900" y="1045" type="curve" smooth="yes"/>
      <point x="900" y="879"/>
      <point x="780" y="780"/>
      <point x="555" y="780" type="curve"/>
      <point x="365" y="780" type="line"/>
    </contour>
    <contour>
      <point x="561" y="635" type="line"/>
      <point x="990" y="0" type="line"/>
      <point x="1245" y="0" type="line"/>
      <point x="1196" y="53"/>
      <point x="914" y="436"/>
      <point x="715" y="710" type="curve"/>
    </contour>
  </outline>
</glyph>
<glyph name="LtnCapV" format="1">
  <advance width="1365"/>
  <unicode hex="0056"/>
  <outline>
    <contour>
      <point x="1095" y="1460" type="line" name="hr00"/>
      <point x="672" y="195" type="line"/>
      <point x="250" y="1460" type="line"/>
      <point x="35" y="1460" type="line"/>
      <point x="68" y="1378"/>
      <point x="101" y="1288"/>
      <point x="170" y="1095" type="curve" smooth="yes"/>
      <point x="560" y="0" type="line"/>
      <point x="785" y="0" type="line"/>
      <point x="1170" y="1095" type="line" smooth="yes"/>
      <point x="1238" y="1289"/>
      <point x="1274" y="1378"/>
      <point x="1310" y="1460" type="curve"/>
    </contour>
    <contour>
      <point x="680" y="0" type="move" name="H"/>
    </contour>
    <contour>
      <point x="672" y="-100" type="move" name="L"/>
    </contour>
    <contour>
      <point x="880" y="0" type="move" name="O"/>
    </contour>
    <contour>
      <point x="672" y="1530" type="move" name="U"/>
    </contour>
  </outline>
</glyph>
<glyph name="LtnCapX" format="1">
  <advance width="1325"/>
  <unicode hex="0058"/>
  <outline>
    <contour>
      <point x="537" y="781" type="line" name="hr00"/>
      <point x="265" y="340" type="line" smooth="yes"/>
      <point x="136" y="132"/>
      <point x="103" y="86"/>
      <point x="40" y="0" type="curve"/>
      <point x="270" y="0" type="line"/>
      <point x="642" y="614" type="line"/>
      <point x="1030" y="0" type="line"/>
      <point x="1260" y="0" type="line"/>
      <point x="1199" y="82"/>
      <point x="1165" y="127"/>
      <point x="1033" y="336" type="curve" smooth="yes"/>
      <point x="761" y="767" type="line"/>
      <point x="972" y="1110" type="line" smooth="yes"/>
      <point x="1097" y="1313"/>
      <point x="1148" y="1383"/>
      <point x="1210" y="1460" type="curve"/>
      <point x="975" y="1460" type="line"/>
      <point x="656" y="934" type="line"/>
      <point x="325" y="1460" type="line"/>
      <point x="90" y="1460" type="line"/>
      <point x="154" y="1376"/>
      <point x="201" y="1315"/>
      <point x="330" y="1110" type="curve"/>
    </contour>
    <contour>
      <point x="650" y="-100" type="move" name="L"/>
    </contour>
    <contour>
      <point x="650" y="1530" type="move" name="U"/>
    </contour>
  </outline>
</glyph>
<glyph name="LtnCapY" format="2">
  <advance width="1320"/>
  <unicode hex="0059"/>
  <anchor x="650" y="-100" name="L"/>
  <anchor x="650" y="1530" name="U"/>
  <outline>
    <contour>
      <point x="572" y="582" type="line"/>
      <point x="738" y="667" type="line"/>
      <point x="265" y="1460" type="line"/>
      <point x="35" y="1460" type="line"/>
      <point x="147" y="1311"/>
      <point x="213" y="1197"/>
      <point x="290" y="1065" type="curve" smooth="yes"/>
    </contour>
    <contour>
      <point x="732" y="580" type="line"/>
      <point x="1015" y="1065" type="line" smooth="yes"/>
      <point x="1091" y="1196"/>
      <point x="1147" y="1291"/>
      <point x="1265" y="1460" type="curve"/>
      <point x="1035" y="1460" type="line"/>
      <point x="577" y="652" type="line"/>
    </contour>
    <contour>
      <point x="555" y="641" type="line"/>
      <point x="555" y="435" type="line" smooth="yes"/>
      <point x="555" y="238"/>
      <point x="555" y="80"/>
      <point x="540" y="0" type="curve"/>
      <point x="760" y="0" type="line"/>
      <point x="745" y="80"/>
      <point x="745" y="238"/>
      <point x="745" y="435" type="curve" smooth="yes"/>
      <point x="745" y="641" type="line"/>
    </contour>
  </outline>
</glyph>
<glyph name="LtnCapZ" format="1">
  <advance width="1230"/>
  <unicode hex="005A"/>
  <outline>
    <contour>
      <point x="1105" y="1460" type="line" name="hr00"/>
      <point x="135" y="1460" type="line"/>
      <point x="135" y="1275" type="line"/>
      <point x="215" y="1292"/>
      <point x="333" y="1295"/>
      <point x="530" y="1295" type="curve" smooth="yes"/>
      <point x="870" y="1295" type="line"/>
      <point x="75" y="125" type="line"/>
      <point x="75" y="0" type="line"/>
      <point x="1135" y="0" type="line"/>
      <point x="1135" y="185" type="line"/>
      <point x="1055" y="171"/>
      <point x="896" y="165"/>
      <point x="700" y="165" type="curve" smooth="yes"/>
      <point x="310" y="165" type="line"/>
      <point x="1105" y="1330" type="line"/>
    </contour>
    <contour>
      <point x="605" y="-100" type="move" name="L"/>
    </contour>
    <contour>
      <point x="605" y="1530" type="move" name="U"/>
    </contour>
  </outline>
</glyph>
<glyph name="LftSqrBrac" format="1">
  <advance width="790"/>
  <unicode hex="005B"/>
  <outline>
    <contour>
      <point x="640" y="-410" type="line" name="hr00"/>
      <point x="640" y="-260" type="line"/>
      <point x="385" y="-260" type="line"/>
      <point x="385" y="1450" type="line"/>
      <point x="640" y="1450" type="line"/>
      <point x="640" y="1600" type="line"/>
      <point x="200" y="1600" type="line"/>
      <point x="200" y="-410" type="line"/>
    </contour>
  </outline>
</glyph>
<glyph name="ReverseSolidus" format="1">
  <advance width="1000"/>
  <unicode hex="005C"/>
  <outline>
    <contour>
      <point x="990" y="-245" type="line" name="hr00"/>
      <point x="160" y="1600" type="line"/>
      <point x="10" y="1600" type="line"/>
      <point x="840" y="-245" type="line"/>
    </contour>
  </outline>
</glyph>
<glyph name="RtSqrBrac" format="1">
  <advance width="790"/>
  <unicode hex="005D"/>
  <outline>
    <contour>
      <point x="590" y="-410" type="line" name="hr00"/>
      <point x="590" y="1600" type="line"/>
      <point x="150" y="1600" type="line"/>
      <point x="150" y="1450" type="line"/>
      <point x="405" y="1450" type="line"/>
      <point x="405" y="-260" type="line"/>
      <point x="150" y="-260" type="line"/>
      <point x="150" y="-410" type="line"/>
    </contour>
  </outline>
</glyph>
<glyph name="LowLine" format="1">
  <advance width="1274"/>
  <unicode hex="005F"/>
  <outline>
    <contour>
      <point x="0" y="-320" type="line" name="hr00"/>
      <point x="1274" y="-320" type="line"/>
      <point x="1274" y="-170" type="line"/>
      <point x="0" y="-170" type="line"/>
    </contour>
  </outline>
</glyph>
<glyph name="GraveAccent" format="1">
  <advance width="580"/>
  <unicode hex="0060"/>
  <outline>
    <component base="CombGrave" xOffset="940"/>
    <contour>
      <point x="390" y="1635" type="move" name="U"/>
    </contour>
  </outline>
</glyph>
<glyph name="LtnSmA.SngStory" format="1">
  <advance width="1150"/>
  <unicode hex="0061"/>
  <outline>
    <component base="LtnSmAlpha"/>
    <contour>
      <point x="548" y="0" type="move" name="H"/>
    </contour>
    <contour>
      <point x="595" y="-100" type="move" name="L"/>
    </contour>
    <contour>
      <point x="1160" y="0" type="move" name="O"/>
    </contour>
    <contour>
      <point x="1150" y="1000" type="move" name="R"/>
    </contour>
    <contour>
      <point x="595" y="1100" type="move" name="U"/>
    </contour>
  </outline>
</glyph>
<glyph name="LtnSmF" format="1">
  <advance width="750"/>
  <unicode hex="0066"/>
  <outline>
    <contour>
      <point x="240" y="1170" type="curve" smooth="yes" name="hr00"/>
      <point x="240" y="1087"/>
      <point x="240" y="0"/>
      <point x="240" y="0" type="curve"/>
      <point x="455" y="0" type="line"/>
      <point x="433" y="105"/>
      <point x="425" y="300"/>
      <point x="425" y="494" type="curve" smooth="yes"/>
      <point x="425" y="588"/>
      <point x="425" y="1103"/>
      <point x="425" y="1210" type="curve" smooth="yes"/>
      <point x="425" y="1381"/>
      <point x="481" y="1450"/>
      <point x="585" y="1450" type="curve" smooth="yes"/>
      <point x="643" y="1450"/>
      <point x="710" y="1427"/>
      <point x="760" y="1390" type="curve"/>
      <point x="805" y="1550" type="line"/>
      <point x="743" y="1594"/>
      <point x="663" y="1620"/>
      <point x="585" y="1620" type="curve" smooth="yes"/>
      <point x="369" y="1620"/>
      <point x="240" y="1470"/>
    </contour>
    <contour>
      <point x="40" y="850" type="line"/>
      <point x="695" y="850" type="line"/>
      <point x="695" y="995" type="line"/>
      <point x="40" y="995" type="line"/>
    </contour>
    <contour>
      <point x="370" y="0" type="move" name="H"/>
    </contour>
    <contour>
      <point x="335" y="-100" type="move" name="L"/>
    </contour>
    <contour>
      <point x="415" y="1635" type="move" name="U"/>
    </contour>
  </outline>
</glyph>
<glyph name="LtnSmG.SngBowl" format="1">
  <advance width="1125"/>
  <unicode hex="0067"/>
  <outline>
    <contour>
      <point x="990" y="965" type="line" name="hr00"/>
      <point x="881" y="1001"/>
      <point x="746" y="1040"/>
      <point x="625" y="1040" type="curve" smooth="yes"/>
      <point x="260" y="1040"/>
      <point x="105" y="742"/>
      <point x="105" y="435" type="curve" smooth="yes"/>
      <point x="105" y="117"/>
      <point x="276" y="-5"/>
      <point x="460" y="-5" type="curve" smooth="yes"/>
      <point x="570" y="-5"/>
      <point x="701" y="64"/>
      <point x="805" y="195" type="curve"/>
      <point x="805" y="-10" type="line" smooth="yes"/>
      <point x="805" y="-242"/>
      <point x="639" y="-310"/>
      <point x="535" y="-310" type="curve" smooth="yes"/>
      <point x="436" y="-310"/>
      <point x="339" y="-263"/>
      <point x="245" y="-195" type="curve"/>
      <point x="180" y="-350" type="line"/>
      <point x="286" y="-422"/>
      <point x="418" y="-470"/>
      <point x="545" y="-470" type="curve" smooth="yes"/>
      <point x="767" y="-470"/>
      <point x="990" y="-327"/>
      <point x="990" y="25" type="curve" smooth="yes"/>
    </contour>
    <contour>
      <point x="805" y="395" type="line"/>
      <point x="718" y="248"/>
      <point x="581" y="165"/>
      <point x="480" y="165" type="curve" smooth="yes"/>
      <point x="372" y="165"/>
      <point x="290" y="238"/>
      <point x="290" y="485" type="curve" smooth="yes"/>
      <point x="290" y="674"/>
      <point x="376" y="870"/>
      <point x="595" y="870" type="curve" smooth="yes"/>
      <point x="656" y="870"/>
      <point x="742" y="854"/>
      <point x="805" y="830" type="curve"/>
    </contour>
    <contour>
      <point x="555" y="-432" type="move" name="H"/>
    </contour>
    <contour>
      <point x="555" y="-500" type="move" name="L"/>
    </contour>
    <contour>
      <point x="1125" y="1000" type="move" name="R"/>
    </contour>
    <contour>
      <point x="595" y="1100" type="move" name="U"/>
    </contour>
  </outline>
</glyph>
<glyph name="LtnSmI" format="1">
  <advance width="565"/>
  <unicode hex="0069"/>
  <outline>
    <contour>
      <point x="375" y="1020" type="line" name="hr01"/>
      <point x="175" y="1020" type="line"/>
      <point x="188" y="915"/>
      <point x="190" y="725"/>
      <point x="190" y="530" type="curve" smooth="yes"/>
      <point x="190" y="336"/>
      <point x="190" y="0"/>
      <point x="190" y="0" type="curve"/>
      <point x="395" y="0" type="line"/>
      <point x="382" y="107"/>
      <point x="375" y="346"/>
      <point x="375" y="475" type="curve" smooth="yes"/>
    </contour>
    <contour>
      <point x="155" y="1345" type="curve" smooth="yes" name="hr02"/>
      <point x="155" y="1271"/>
      <point x="206" y="1210"/>
      <point x="280" y="1210" type="curve" smooth="yes"/>
      <point x="355" y="1210"/>
      <point x="410" y="1271"/>
      <point x="410" y="1345" type="curve" smooth="yes"/>
      <point x="410" y="1419"/>
      <point x="355" y="1480"/>
      <point x="280" y="1480" type="curve" smooth="yes"/>
      <point x="206" y="1480"/>
      <point x="155" y="1419"/>
    </contour>
    <contour>
      <point x="292" y="0" type="move" name="H"/>
    </contour>
    <contour>
      <point x="285" y="-100" type="move" name="L"/>
    </contour>
    <contour>
      <point x="500" y="0" type="move" name="O"/>
    </contour>
    <contour>
      <point x="555" y="1000" type="move" name="R"/>
    </contour>
    <contour>
      <point x="282" y="1100" type="move" name="U"/>
    </contour>
  </outline>
</glyph>
<glyph name="LtnSmJ" format="1">
  <advance width="595"/>
  <unicode hex="006A"/>
  <outline>
    <contour>
      <point x="405" y="1020" type="line" name="hr01"/>
      <point x="205" y="1020" type="line"/>
      <point x="218" y="915"/>
      <point x="220" y="725"/>
      <point x="220" y="530" type="curve"/>
      <point x="220" y="-25" type="line"/>
      <point x="220" y="-222"/>
      <point x="147" y="-300"/>
      <point x="40" y="-300" type="curve" smooth="yes"/>
      <point x="-16" y="-300"/>
      <point x="-111" y="-273"/>
      <point x="-155" y="-240" type="curve"/>
      <point x="-190" y="-405" type="line"/>
      <point x="-130" y="-446"/>
      <point x="-26" y="-470"/>
      <point x="30" y="-470" type="curve" smooth="yes"/>
      <point x="258" y="-470"/>
      <point x="405" y="-348"/>
      <point x="405" y="25" type="curve" smooth="yes"/>
    </contour>
    <contour>
      <point x="185" y="1345" type="curve" smooth="yes" name="hr02"/>
      <point x="185" y="1271"/>
      <point x="236" y="1210"/>
      <point x="310" y="1210" type="curve" smooth="yes"/>
      <point x="385" y="1210"/>
      <point x="440" y="1271"/>
      <point x="440" y="1345" type="curve" smooth="yes"/>
      <point x="440" y="1419"/>
      <point x="385" y="1480"/>
      <point x="310" y="1480" type="curve" smooth="yes"/>
      <point x="236" y="1480"/>
      <point x="185" y="1419"/>
    </contour>
    <contour>
      <point x="125" y="-500" type="move" name="L"/>
    </contour>
    <contour>
      <point x="313" y="1100" type="move" name="U"/>
    </contour>
  </outline>
</glyph>
<glyph name="LtnSmK" format="1">
  <advance width="1035"/>
  <unicode hex="006B"/>
  <outline>
    <contour>
      <point x="330" y="0" type="line" name="hr00"/>
      <point x="330" y="1600" type="line"/>
      <point x="130" y="1600" type="line"/>
      <point x="145" y="1514"/>
      <point x="145" y="1345"/>
      <point x="145" y="1130" type="curve" smooth="yes"/>
      <point x="145" y="934"/>
      <point x="145" y="0"/>
      <point x="145" y="0" type="curve"/>
    </contour>
    <contour>
      <point x="735" y="1020" type="line"/>
      <point x="280" y="550" type="line"/>
      <point x="436" y="524" type="line"/>
      <point x="985" y="1020" type="line"/>
    </contour>
    <contour>
      <point x="305" y="550" type="line"/>
      <point x="770" y="0" type="line"/>
      <point x="1015" y="0" type="line"/>
      <point x="410" y="660" type="line"/>
    </contour>
    <contour>
      <point x="243" y="0" type="move" name="H"/>
    </contour>
    <contour>
      <point x="572" y="-100" type="move" name="L"/>
    </contour>
    <contour>
      <point x="1035" y="1000" type="move" name="R"/>
    </contour>
    <contour>
      <point x="572" y="1635" type="move" name="U"/>
    </contour>
  </outline>
</glyph>
<glyph name="LtnSmL" format="1">
  <advance width="565"/>
  <unicode hex="006C"/>
  <outline>
    <contour>
      <point x="375" y="1600" type="line" name="hr00"/>
      <point x="170" y="1600" type="line"/>
      <point x="183" y="1485"/>
      <point x="190" y="1324"/>
      <point x="190" y="1130" type="curve" smooth="yes"/>
      <point x="190" y="0" type="line"/>
      <point x="395" y="0" type="line"/>
      <point x="382" y="109"/>
      <point x="375" y="346"/>
      <point x="375" y="475" type="curve" smooth="yes"/>
    </contour>
    <contour>
      <point x="290" y="0" type="move" name="H"/>
    </contour>
    <contour>
      <point x="290" y="-100" type="move" name="L"/>
    </contour>
    <contour>
      <point x="550" y="1000" type="move" name="R"/>
    </contour>
    <contour>
      <point x="285" y="1635" type="move" name="U"/>
    </contour>
  </outline>
</glyph>
<glyph name="LtnSmO" format="1">
  <advance width="1140"/>
  <unicode hex="006F"/>
  <outline>
    <contour>
      <point x="95" y="505" type="curve" smooth="yes" name="hr00"/>
      <point x="95" y="161"/>
      <point x="286" y="-25"/>
      <point x="560" y="-25" type="curve" smooth="yes"/>
      <point x="823" y="-25"/>
      <point x="1045" y="161"/>
      <point x="1045" y="505" type="curve" smooth="yes"/>
      <point x="1045" y="849"/>
      <point x="855" y="1040"/>
      <point x="580" y="1040" type="curve" smooth="yes"/>
      <point x="317" y="1040"/>
      <point x="95" y="849"/>
    </contour>
    <contour>
      <point x="280" y="505" type="curve" smooth="yes"/>
      <point x="280" y="739"/>
      <point x="408" y="880"/>
      <point x="570" y="880" type="curve" smooth="yes"/>
      <point x="742" y="880"/>
      <point x="860" y="739"/>
      <point x="860" y="505" type="curve" smooth="yes"/>
      <point x="860" y="272"/>
      <point x="731" y="135"/>
      <point x="570" y="135" type="curve" smooth="yes"/>
      <point x="398" y="135"/>
      <point x="280" y="272"/>
    </contour>
    <contour>
      <point x="570" y="0" type="move" name="H"/>
    </contour>
    <contour>
      <point x="570" y="-100" type="move" name="L"/>
    </contour>
    <contour>
      <point x="835" y="0" type="move" name="O"/>
    </contour>
    <contour>
      <point x="1140" y="1000" type="move" name="R"/>
    </contour>
    <contour>
      <point x="570" y="1100" type="move" name="U"/>
    </contour>
  </outline>
</glyph>
<glyph name="LtnSmT" format="1">
  <advance width="835"/>
  <unicode hex="0074"/>
  <outline>
    <contour>
      <point x="760" y="215" type="line" name="hr00"/>
      <point x="672" y="166"/>
      <point x="600" y="140"/>
      <point x="543" y="140" type="curve" smooth="yes"/>
      <point x="453" y="140"/>
      <point x="415" y="184"/>
      <point x="415" y="390" type="curve" smooth="yes"/>
      <point x="415" y="528"/>
      <point x="415" y="1320"/>
      <point x="415" y="1320" type="curve"/>
      <point x="230" y="1320" type="line"/>
      <point x="230" y="1320"/>
      <point x="230" y="435"/>
      <point x="230" y="270" type="curve" smooth="yes"/>
      <point x="230" y="39"/>
      <point x="356" y="-25"/>
      <point x="512" y="-25" type="curve" smooth="yes"/>
      <point x="582" y="-25"/>
      <point x="668" y="-4"/>
      <point x="760" y="55" type="curve"/>
    </contour>
    <contour>
      <point x="30" y="850" type="line"/>
      <point x="740" y="850" type="line"/>
      <point x="740" y="995" type="line"/>
      <point x="30" y="995" type="line"/>
    </contour>
    <contour>
      <point x="475" y="0" type="move" name="H"/>
    </contour>
    <contour>
      <point x="475" y="-100" type="move" name="L"/>
    </contour>
    <contour>
      <point x="835" y="1000" type="move" name="R"/>
    </contour>
    <contour>
      <point x="325" y="1360" type="move" name="U"/>
    </contour>
  </outline>
</glyph>
<glyph name="LtnSmZ" format="2">
  <advance width="1040"/>
  <unicode hex="007A"/>
  <anchor x="525" y="0" name="H"/>
  <anchor x="525" y="-100" name="L"/>
  <anchor x="525" y="1100" name="U"/>
  <outline>
    <contour>
      <point x="135" y="1020" type="line"/>
      <point x="135" y="855" type="line"/>
      <point x="172" y="870"/>
      <point x="231" y="870"/>
      <point x="290" y="870" type="curve" smooth="yes"/>
      <point x="680" y="870" type="line"/>
      <point x="105" y="110" type="line"/>
      <point x="105" y="0" type="line"/>
      <point x="945" y="0" type="line"/>
      <point x="945" y="165" type="line"/>
      <point x="885" y="150"/>
      <point x="823" y="150"/>
      <point x="765" y="150" type="curve" smooth="yes"/>
      <point x="335" y="150" type="line"/>
      <point x="930" y="925" type="line"/>
      <point x="930" y="1020" type="line"/>
    </contour>
  </outline>
</glyph>
<glyph name="VertLine" format="1">
  <advance width="690"/>
  <unicode hex="007C"/>
  <outline>
    <contour>
      <point x="270" y="1600" type="line" name="hr00"/>
      <point x="270" y="-390" type="line"/>
      <point x="420" y="-390" type="line"/>
      <point x="420" y="1600" type="line"/>
    </contour>
  </outline>
</glyph>
<glyph name="CentSgn" format="1">
  <advance width="1200"/>
  <unicode hex="00A2"/>
  <outline>
    <contour>
      <point x="699" y="1062" type="curve" smooth="yes" name="hr00"/>
      <point x="397" y="1062"/>
      <point x="205" y="826"/>
      <point x="205" y="540" type="curve" smooth="yes"/>
      <point x="205" y="236"/>
      <point x="411" y="50"/>
      <point x="666" y="50" type="curve" smooth="yes"/>
      <point x="808" y="50"/>
      <point x="898" y="83"/>
      <point x="994" y="155" type="curve"/>
      <point x="975" y="321" type="line"/>
      <point x="892" y="248"/>
      <point x="799" y="207"/>
      <point x="685" y="207" type="curve" smooth="yes"/>
      <point x="501" y="207"/>
      <point x="386" y="345"/>
      <point x="386" y="549" type="curve" smooth="yes"/>
      <point x="386" y="773"/>
      <point x="516" y="905"/>
      <point x="685" y="905" type="curve" smooth="yes"/>
      <point x="783" y="905"/>
      <point x="865" y="873"/>
      <point x="951" y="810" type="curve"/>
      <point x="984" y="981" type="line"/>
      <point x="915" y="1029"/>
      <point x="826" y="1062"/>
    </contour>
    <contour>
      <point x="605" y="1320" type="line"/>
      <point x="605" y="-210" type="line"/>
      <point x="735" y="-210" type="line"/>
      <point x="735" y="1320" type="line"/>
    </contour>
  </outline>
</glyph>
<glyph name="PoundSgn" format="2">
  <advance width="1200"/>
  <unicode hex="00A3"/>
  <outline>
    <contour>
      <point x="376" y="165" type="line"/>
      <point x="453" y="243"/>
      <point x="479" y="341"/>
      <point x="479" y="465" type="curve" smooth="yes"/>
      <point x="479" y="635"/>
      <point x="445" y="898"/>
      <point x="445" y="1075" type="curve" smooth="yes"/>
      <point x="445" y="1256"/>
      <point x="531" y="1325"/>
      <point x="655" y="1325" type="curve" smooth="yes"/>
      <point x="713" y="1325"/>
      <point x="807" y="1302"/>
      <point x="857" y="1265" type="curve"/>
      <point x="903" y="1415" type="line"/>
      <point x="841" y="1459"/>
      <point x="733" y="1485"/>
      <point x="655" y="1485" type="curve" smooth="yes"/>
      <point x="419" y="1485"/>
      <point x="260" y="1335"/>
      <point x="260" y="1035" type="curve" smooth="yes"/>
      <point x="260" y="849"/>
      <point x="294" y="598"/>
      <point x="294" y="392" type="curve" smooth="yes"/>
      <point x="294" y="280"/>
      <point x="225" y="188"/>
      <point x="145" y="130" type="curve"/>
      <point x="145" y="0" type="line"/>
      <point x="1015" y="0" type="line"/>
      <point x="1015" y="180" type="line"/>
      <point x="935" y="166"/>
      <point x="776" y="165"/>
      <point x="579" y="165" type="curve" smooth="yes"/>
    </contour>
    <contour>
      <point x="155" y="690" type="line"/>
      <point x="765" y="690" type="line"/>
      <point x="765" y="835" type="line"/>
      <point x="155" y="835" type="line"/>
    </contour>
  </outline>
</glyph>
<glyph name="CurrSgn" format="2">
  <advance width="1200"/>
  <unicode hex="00A4"/>
  <outline>
    <contour>
      <point x="1163" y="411" type="line"/>
      <point x="952" y="622" type="line"/>
      <point x="1008" y="696"/>
      <point x="1037" y="780"/>
      <point x="1037" y="877" type="curve" smooth="yes"/>
      <point x="1037" y="973"/>
      <point x="1002" y="1065"/>
      <point x="950" y="1137" type="curve"/>
      <point x="1163" y="1350" type="line"/>
      <point x="1069" y="1444" type="line"/>
      <point x="852" y="1227" type="line"/>
      <point x="782" y="1281"/>
      <point x="698" y="1314"/>
      <point x="604" y="1314" type="curve" smooth="yes"/>
      <point x="508" y="1314"/>
      <point x="419" y="1283"/>
      <point x="346" y="1229" type="curve"/>
      <point x="131" y="1444" type="line"/>
      <point x="37" y="1350" type="line"/>
      <point x="252" y="1135" type="line"/>
      <point x="191" y="1063"/>
      <point x="163" y="969"/>
      <point x="163" y="874" type="curve" smooth="yes"/>
      <point x="163" y="778"/>
      <point x="193" y="696"/>
      <point x="248" y="622" type="curve"/>
      <point x="37" y="411" type="line"/>
      <point x="131" y="318" type="line"/>
      <point x="342" y="529" type="line"/>
      <point x="417" y="468"/>
      <point x="502" y="437"/>
      <point x="604" y="437" type="curve" smooth="yes"/>
      <point x="698" y="437"/>
      <point x="784" y="470"/>
      <point x="858" y="529" type="curve"/>
      <point x="1069" y="318" type="line"/>
    </contour>
    <contour>
      <point x="905" y="877" type="curve" smooth="yes"/>
      <point x="905" y="705"/>
      <point x="778" y="569"/>
      <point x="604" y="569" type="curve" smooth="yes"/>
      <point x="428" y="569"/>
      <point x="294" y="698"/>
      <point x="294" y="874" type="curve" smooth="yes"/>
      <point x="294" y="1053"/>
      <point x="426" y="1182"/>
      <point x="604" y="1182" type="curve" smooth="yes"/>
      <point x="776" y="1182"/>
      <point x="905" y="1047"/>
    </contour>
  </outline>
</glyph>
<glyph name="YenSgn" format="2">
  <advance width="1200"/>
  <unicode hex="00A5"/>
  <outline>
    <contour>
      <point x="550" y="560" type="line"/>
      <point x="700" y="675" type="line"/>
      <point x="230" y="1460" type="line"/>
      <point x="0" y="1460" type="line"/>
      <point x="112" y="1311"/>
      <point x="178" y="1197"/>
      <point x="255" y="1065" type="curve" smooth="yes"/>
    </contour>
    <contour>
      <point x="655" y="560" type="line"/>
      <point x="950" y="1065" type="line" smooth="yes"/>
      <point x="1026" y="1195"/>
      <point x="1082" y="1291"/>
      <point x="1200" y="1460" type="curve"/>
      <point x="970" y="1460" type="line"/>
      <point x="525" y="675" type="line"/>
    </contour>
    <contour>
      <point x="505" y="695" type="line"/>
      <point x="505" y="435" type="line" smooth="yes"/>
      <point x="505" y="238"/>
      <point x="505" y="80"/>
      <point x="490" y="0" type="curve"/>
      <point x="710" y="0" type="line"/>
      <point x="695" y="80"/>
      <point x="695" y="238"/>
      <point x="695" y="435" type="curve" smooth="yes"/>
      <point x="695" y="695" type="line"/>
    </contour>
    <contour>
      <point x="200" y="625" type="line"/>
      <point x="1008" y="625" type="line"/>
      <point x="1008" y="770" type="line"/>
      <point x="200" y="770" type="line"/>
    </contour>
    <contour>
      <point x="200" y="375" type="line"/>
      <point x="1008" y="375" type="line"/>
      <point x="1008" y="520" type="line"/>
      <point x="200" y="520" type="line"/>
    </contour>
  </outline>
</glyph>
<glyph name="BrokenBar" format="1">
  <advance width="1024"/>
  <unicode hex="00A6"/>
  <outline>
    <contour>
      <point x="440" y="445" type="line" name="hr00"/>
      <point x="440" y="-390" type="line"/>
      <point x="590" y="-390" type="line"/>
      <point x="590" y="445" type="line"/>
    </contour>
    <contour>
      <point x="590" y="775" type="line"/>
      <point x="590" y="1600" type="line"/>
      <point x="440" y="1600" type="line"/>
      <point x="440" y="775" type="line"/>
    </contour>
  </outline>
</glyph>
<glyph name="SectionSgn" format="2">
  <advance width="1024"/>
  <unicode hex="00A7"/>
  <outline>
    <contour>
      <point x="495" y="150" type="line"/>
      <point x="720" y="150"/>
      <point x="880" y="302"/>
      <point x="880" y="512" type="curve" smooth="yes"/>
      <point x="880" y="662"/>
      <point x="785" y="755"/>
      <point x="605" y="885" type="curve" smooth="yes"/>
      <point x="428" y="1013"/>
      <point x="310" y="1085"/>
      <point x="310" y="1187" type="curve" smooth="yes"/>
      <point x="310" y="1255"/>
      <point x="368" y="1325"/>
      <point x="505" y="1325" type="curve" smooth="yes"/>
      <point x="629" y="1325"/>
      <point x="733" y="1269"/>
      <point x="800" y="1230" type="curve"/>
      <point x="835" y="1405" type="line"/>
      <point x="766" y="1443"/>
      <point x="660" y="1485"/>
      <point x="515" y="1485" type="curve" smooth="yes"/>
      <point x="231" y="1485"/>
      <point x="130" y="1307"/>
      <point x="130" y="1145" type="curve" smooth="yes"/>
      <point x="130" y="1021"/>
      <point x="226" y="909"/>
      <point x="438" y="776" type="curve" smooth="yes"/>
      <point x="642" y="648"/>
      <point x="700" y="565"/>
      <point x="700" y="480" type="curve" smooth="yes"/>
      <point x="700" y="387"/>
      <point x="617" y="310"/>
      <point x="500" y="310" type="curve"/>
    </contour>
    <contour>
      <point x="515" y="895" type="line"/>
      <point x="300" y="895"/>
      <point x="130" y="775"/>
      <point x="130" y="571" type="curve" smooth="yes"/>
      <point x="130" y="395"/>
      <point x="225" y="295"/>
      <point x="405" y="170" type="curve" smooth="yes"/>
      <point x="582" y="47"/>
      <point x="700" y="-37"/>
      <point x="700" y="-165" type="curve" smooth="yes"/>
      <point x="700" y="-234"/>
      <point x="617" y="-310"/>
      <point x="500" y="-310" type="curve" smooth="yes"/>
      <point x="394" y="-310"/>
      <point x="250" y="-256"/>
      <point x="160" y="-175" type="curve"/>
      <point x="110" y="-355" type="line"/>
      <point x="189" y="-417"/>
      <point x="333" y="-470"/>
      <point x="495" y="-470" type="curve" smooth="yes"/>
      <point x="710" y="-470"/>
      <point x="880" y="-320"/>
      <point x="880" y="-140" type="curve" smooth="yes"/>
      <point x="880" y="11"/>
      <point x="784" y="146"/>
      <point x="572" y="279" type="curve" smooth="yes"/>
      <point x="368" y="407"/>
      <point x="310" y="486"/>
      <point x="310" y="575" type="curve" smooth="yes"/>
      <point x="310" y="673"/>
      <point x="393" y="735"/>
      <point x="510" y="735" type="curve"/>
    </contour>
  </outline>
</glyph>
<glyph name="Diaer" format="1">
  <advance width="680"/>
  <unicode hex="00A8"/>
  <outline>
    <component base="CombDiaer" xOffset="910"/>
    <contour>
      <point x="340" y="1505" type="move" name="U"/>
    </contour>
  </outline>
</glyph>
<glyph name="FemOrdIndicator" format="2">
  <advance width="808"/>
  <unicode hex="00AA"/>
  <outline>
    <contour>
      <point x="78" y="500" type="line"/>
      <point x="770" y="500" type="line"/>
      <point x="770" y="600" type="line"/>
      <point x="78" y="600" type="line"/>
    </contour>
    <contour>
      <point x="606" y="920" type="line"/>
      <point x="606" y="863"/>
      <point x="618" y="721"/>
      <point x="638" y="680" type="curve"/>
      <point x="760" y="680" type="line"/>
      <point x="733" y="753"/>
      <point x="715" y="861"/>
      <point x="715" y="1024" type="curve" smooth="yes"/>
      <point x="715" y="1327" type="line"/>
      <point x="644" y="1344"/>
      <point x="550" y="1356"/>
      <point x="459" y="1356" type="curve" smooth="yes"/>
      <point x="198" y="1356"/>
      <point x="81" y="1153"/>
      <point x="81" y="946" type="curve" smooth="yes"/>
      <point x="81" y="763"/>
      <point x="174" y="664"/>
      <point x="291" y="664" type="curve" smooth="yes"/>
      <point x="438" y="664"/>
      <point x="548" y="838"/>
      <point x="606" y="985" type="curve"/>
    </contour>
    <contour>
      <point x="449" y="1252" type="curve" smooth="yes"/>
      <point x="519" y="1252"/>
      <point x="562" y="1244"/>
      <point x="585" y="1239" type="curve"/>
      <point x="585" y="1197" type="line" smooth="yes"/>
      <point x="585" y="1104"/>
      <point x="436" y="774"/>
      <point x="312" y="774" type="curve" smooth="yes"/>
      <point x="257" y="774"/>
      <point x="211" y="846"/>
      <point x="211" y="946" type="curve" smooth="yes"/>
      <point x="211" y="1103"/>
      <point x="266" y="1252"/>
    </contour>
  </outline>
</glyph>
<glyph name="LftPtngDblAngQuotMrk" format="1">
  <advance width="1300"/>
  <unicode hex="00AB"/>
  <outline>
    <contour>
      <point x="695" y="0" type="line" name="hr01"/>
      <point x="305" y="512" type="line" name="hr02"/>
      <point x="695" y="1020" type="line"/>
      <point x="510" y="1020" type="line"/>
      <point x="75" y="512" type="line"/>
      <point x="513" y="0" type="line"/>
    </contour>
    <contour>
      <point x="1185" y="0" type="line"/>
      <point x="795" y="512" type="line"/>
      <point x="1185" y="1020" type="line"/>
      <point x="1000" y="1020" type="line"/>
      <point x="565" y="512" type="line"/>
      <point x="1003" y="0" type="line"/>
    </contour>
  </outline>
</glyph>
<glyph name="NotSgn" format="1">
  <advance width="1200"/>
  <unicode hex="00AC"/>
  <outline>
    <contour>
      <point x="1065" y="340" type="line" name="hr00"/>
      <point x="1065" y="800" type="line"/>
      <point x="110" y="800" type="line"/>
      <point x="110" y="650" type="line"/>
      <point x="915" y="650" type="line"/>
      <point x="915" y="340" type="line"/>
    </contour>
  </outline>
</glyph>
<glyph name="Hyphen_Soft" format="1">
  <advance width="860"/>
  <unicode hex="00AD"/>
  <outline>
    <component base="HyphenMinus"/>
    <contour>
      <point x="430" y="1100" type="move" name="U"/>
    </contour>
  </outline>
</glyph>
<glyph name="RegisteredSgn" format="2">
  <advance width="1615"/>
  <unicode hex="00AE"/>
  <outline>
    <contour>
      <point x="855" y="1485" type="curve" smooth="yes"/>
      <point x="497" y="1485"/>
      <point x="150" y="1230"/>
      <point x="150" y="730" type="curve" smooth="yes"/>
      <point x="150" y="220"/>
      <point x="497" y="-25"/>
      <point x="855" y="-25" type="curve" smooth="yes"/>
      <point x="1203" y="-25"/>
      <point x="1565" y="220"/>
      <point x="1565" y="730" type="curve" smooth="yes"/>
      <point x="1565" y="1230"/>
      <point x="1203" y="1485"/>
    </contour>
    <contour>
      <point x="855" y="1365" type="curve" smooth="yes"/>
      <point x="1154" y="1365"/>
      <point x="1440" y="1145"/>
      <point x="1440" y="730" type="curve" smooth="yes"/>
      <point x="1440" y="315"/>
      <point x="1154" y="95"/>
      <point x="855" y="95" type="curve" smooth="yes"/>
      <point x="556" y="95"/>
      <point x="275" y="315"/>
      <point x="275" y="730" type="curve" smooth="yes"/>
      <point x="275" y="1145"/>
      <point x="556" y="1365"/>
    </contour>
    <contour>
      <point x="675" y="668" type="line"/>
      <point x="799" y="668" type="line"/>
      <point x="1060" y="290" type="line"/>
      <point x="1215" y="290" type="line"/>
      <point x="1180" y="328"/>
      <point x="988" y="587"/>
      <point x="920" y="680" type="curve"/>
      <point x="1019" y="706"/>
      <point x="1125" y="778"/>
      <point x="1125" y="925" type="curve" smooth="yes"/>
      <point x="1125" y="1100"/>
      <point x="986" y="1180"/>
      <point x="795" y="1180" type="curve" smooth="yes"/>
      <point x="646" y="1180"/>
      <point x="545" y="1170"/>
      <point x="545" y="1170" type="curve"/>
      <point x="553" y="1119"/>
      <point x="553" y="1023"/>
      <point x="553" y="898" type="curve" smooth="yes"/>
      <point x="553" y="548" type="line" smooth="yes"/>
      <point x="553" y="423"/>
      <point x="553" y="341"/>
      <point x="545" y="290" type="curve"/>
      <point x="685" y="290" type="line"/>
      <point x="676" y="340"/>
      <point x="675" y="423"/>
      <point x="675" y="548" type="curve"/>
    </contour>
    <contour>
      <point x="675" y="1072" type="line"/>
      <point x="709" y="1074"/>
      <point x="746" y="1076"/>
      <point x="790" y="1076" type="curve" smooth="yes"/>
      <point x="937" y="1076"/>
      <point x="1000" y="1015"/>
      <point x="1000" y="915" type="curve" smooth="yes"/>
      <point x="1000" y="820"/>
      <point x="925" y="767"/>
      <point x="790" y="767" type="curve"/>
      <point x="675" y="767" type="line"/>
    </contour>
  </outline>
</glyph>
<glyph name="Macron" format="2">
  <advance width="710"/>
  <unicode hex="00AF"/>
  <outline>
    <contour>
      <point x="0" y="1240" type="line"/>
      <point x="710" y="1240" type="line"/>
      <point x="710" y="1390" type="line"/>
      <point x="0" y="1390" type="line"/>
    </contour>
  </outline>
</glyph>
<glyph name="DegreeSgn" format="2">
  <advance width="640"/>
  <unicode hex="00B0"/>
  <outline>
    <contour>
      <point x="455" y="1235" type="curve"/>
      <point x="455" y="1160"/>
      <point x="395" y="1100"/>
      <point x="320" y="1100" type="curve" smooth="yes"/>
      <point x="245" y="1100"/>
      <point x="185" y="1160"/>
      <point x="185" y="1235" type="curve" smooth="yes"/>
      <point x="185" y="1310"/>
      <point x="245" y="1370"/>
      <point x="320" y="1370" type="curve" smooth="yes"/>
      <point x="395" y="1370"/>
      <point x="455" y="1310"/>
    </contour>
    <contour>
      <point x="70" y="1235" type="curve"/>
      <point x="70" y="1095"/>
      <point x="180" y="985"/>
      <point x="320" y="985" type="curve" smooth="yes"/>
      <point x="460" y="985"/>
      <point x="570" y="1095"/>
      <point x="570" y="1235" type="curve" smooth="yes"/>
      <point x="570" y="1375"/>
      <point x="460" y="1485"/>
      <point x="320" y="1485" type="curve" smooth="yes"/>
      <point x="180" y="1485"/>
      <point x="70" y="1375"/>
    </contour>
  </outline>
</glyph>
<glyph name="PlusMinusSgn" format="2">
  <advance width="1200"/>
  <unicode hex="00B1"/>
  <outline>
    <contour>
      <point x="155" y="835" type="line"/>
      <point x="525" y="835" type="line"/>
      <point x="525" y="470" type="line"/>
      <point x="675" y="470" type="line"/>
      <point x="675" y="835" type="line"/>
      <point x="1045" y="835" type="line"/>
      <point x="1045" y="985" type="line"/>
      <point x="675" y="985" type="line"/>
      <point x="675" y="1365" type="line"/>
      <point x="525" y="1365" type="line"/>
      <point x="525" y="985" type="line"/>
      <point x="155" y="985" type="line"/>
    </contour>
    <contour>
      <point x="155" y="200" type="line"/>
      <point x="1045" y="200" type="line"/>
      <point x="1045" y="350" type="line"/>
      <point x="155" y="350" type="line"/>
    </contour>
  </outline>
</glyph>
<glyph name="SupTwo" format="2">
  <advance width="840"/>
  <unicode hex="00B2"/>
  <anchor x="420" y="615" name="L"/>
  <anchor x="420" y="1675" name="U"/>
  <outline>
    <contour>
      <point x="761" y="797" type="line"/>
      <point x="705" y="787.9"/>
      <point x="594.4" y="787.25"/>
      <point x="456.5" y="787.25" type="curve" smooth="yes"/>
      <point x="278" y="787.25" type="line"/>
      <point x="431.3" y="908.8"/>
      <point x="712" y="1153.85"/>
      <point x="712" y="1372.25" type="curve" smooth="yes"/>
      <point x="712" y="1539.95"/>
      <point x="565" y="1645.25"/>
      <point x="397" y="1645.25" type="curve" smooth="yes"/>
      <point x="278.7" y="1645.25"/>
      <point x="149.2" y="1591.3"/>
      <point x="92.5" y="1518.5" type="curve"/>
      <point x="124" y="1408" type="line"/>
      <point x="186.3" y="1478.2"/>
      <point x="286.4" y="1528.25"/>
      <point x="372.5" y="1528.25" type="curve" smooth="yes"/>
      <point x="472.6" y="1528.25"/>
      <point x="572" y="1481.45"/>
      <point x="572" y="1359.25" type="curve" smooth="yes"/>
      <point x="572" y="1179.2"/>
      <point x="278.7" y="917.25"/>
      <point x="89" y="790.5" type="curve"/>
      <point x="89" y="680" type="line"/>
      <point x="761" y="680" type="line"/>
    </contour>
  </outline>
</glyph>
<glyph name="SupThree" format="2">
  <advance width="840"/>
  <unicode hex="00B3"/>
  <anchor x="420" y="615" name="L"/>
  <anchor x="420" y="1675" name="U"/>
  <outline>
    <contour>
      <point x="292" y="1245.5" type="line"/>
      <point x="292" y="1135" type="line"/>
      <point x="341" y="1135" type="line"/>
      <point x="506.2" y="1135"/>
      <point x="631.5" y="1062.2"/>
      <point x="631.5" y="956.25" type="curve" smooth="yes"/>
      <point x="631.5" y="836.65"/>
      <point x="507.6" y="777.5"/>
      <point x="400.5" y="777.5" type="curve" smooth="yes"/>
      <point x="274.5" y="777.5"/>
      <point x="175.8" y="830.8"/>
      <point x="99.5" y="910.75" type="curve"/>
      <point x="82" y="771" type="line"/>
      <point x="155.5" y="707.3"/>
      <point x="262.6" y="663.75"/>
      <point x="386.5" y="663.75" type="curve" smooth="yes"/>
      <point x="588.8" y="663.75"/>
      <point x="768" y="790.5"/>
      <point x="768" y="943.25" type="curve" smooth="yes"/>
      <point x="768" y="1116.8"/>
      <point x="608.4" y="1184.4"/>
      <point x="509" y="1200" type="curve"/>
      <point x="608.4" y="1218.85"/>
      <point x="733" y="1302.05"/>
      <point x="733" y="1421" type="curve" smooth="yes"/>
      <point x="733" y="1560.1"/>
      <point x="584.6" y="1645.25"/>
      <point x="411" y="1645.25" type="curve"/>
      <point x="294.1" y="1645.25"/>
      <point x="187" y="1600.4"/>
      <point x="131" y="1541.25" type="curve"/>
      <point x="155.5" y="1430.75" type="line"/>
      <point x="234.6" y="1506.15"/>
      <point x="310.2" y="1531.5"/>
      <point x="418" y="1531.5" type="curve" smooth="yes"/>
      <point x="502.7" y="1531.5"/>
      <point x="600" y="1492.5"/>
      <point x="600" y="1404.75" type="curve" smooth="yes"/>
      <point x="600" y="1324.15"/>
      <point x="480.3" y="1245.5"/>
      <point x="341" y="1245.5" type="curve"/>
    </contour>
  </outline>
</glyph>
<glyph name="AcuteAccent" format="2">
  <advance width="580"/>
  <unicode hex="00B4"/>
  <anchor x="180" y="1635" name="U"/>
  <anchor x="180" y="1100" name="_U"/>
  <outline>
    <contour>
      <point x="350" y="1600" type="line"/>
      <point x="0" y="1170" type="line"/>
      <point x="160" y="1170" type="line"/>
      <point x="580" y="1600" type="line"/>
    </contour>
  </outline>
</glyph>
<glyph name="MicroSgn" format="2">
  <advance width="1185"/>
  <unicode hex="00B5"/>
  <outline>
    <contour>
      <point x="1090" y="0" type="line"/>
      <point x="1048" y="112"/>
      <point x="1025" y="256"/>
      <point x="1025" y="450" type="curve" smooth="yes"/>
      <point x="1025" y="646"/>
      <point x="1025" y="1020"/>
      <point x="1025" y="1020" type="curve"/>
      <point x="820" y="1020" type="line"/>
      <point x="838" y="898"/>
      <point x="840" y="832"/>
      <point x="840" y="700" type="curve" smooth="yes"/>
      <point x="840" y="420" type="line"/>
      <point x="797" y="295"/>
      <point x="664" y="140"/>
      <point x="564" y="140" type="curve" smooth="yes"/>
      <point x="453" y="140"/>
      <point x="340" y="238"/>
      <point x="340" y="465" type="curve" smooth="yes"/>
      <point x="340" y="603"/>
      <point x="340" y="1020"/>
      <point x="340" y="1020" type="curve"/>
      <point x="135" y="1020" type="line"/>
      <point x="153" y="900"/>
      <point x="155" y="827"/>
      <point x="155" y="700" type="curve" smooth="yes"/>
      <point x="155" y="681"/>
      <point x="155" y="424"/>
      <point x="155" y="405" type="curve" smooth="yes"/>
      <point x="155" y="-490" type="line"/>
      <point x="365" y="-490" type="line"/>
      <point x="348" y="-405"/>
      <point x="340" y="-310"/>
      <point x="340" y="-150" type="curve"/>
      <point x="340" y="80" type="line"/>
      <point x="377" y="27"/>
      <point x="453" y="-25"/>
      <point x="545" y="-25" type="curve" smooth="yes"/>
      <point x="674" y="-25"/>
      <point x="802" y="100"/>
      <point x="865" y="200" type="curve"/>
      <point x="875" y="125"/>
      <point x="901" y="46"/>
      <point x="920" y="0" type="curve"/>
    </contour>
  </outline>
</glyph>
<glyph name="PilcrowSgn" format="1">
  <advance width="1025"/>
  <unicode hex="00B6"/>
  <outline>
    <contour>
      <point x="965" y="1345" type="line" name="hr00"/>
      <point x="965" y="1460" type="line"/>
      <point x="440" y="1460" type="line" smooth="yes"/>
      <point x="282" y="1460"/>
      <point x="50" y="1382"/>
      <point x="50" y="1113" type="curve" smooth="yes"/>
      <point x="50" y="845"/>
      <point x="283" y="765"/>
      <point x="420" y="765" type="curve"/>
      <point x="420" y="0" type="line"/>
      <point x="555" y="0" type="line"/>
      <point x="555" y="1345" type="line"/>
      <point x="715" y="1345" type="line"/>
      <point x="715" y="0" type="line"/>
      <point x="850" y="0" type="line"/>
      <point x="850" y="1345" type="line"/>
    </contour>
  </outline>
</glyph>
<glyph name="MiddleDot" format="1">
  <advance width="679"/>
  <unicode hex="00B7"/>
  <outline>
    <contour>
      <point x="205" y="709" type="curve" smooth="yes" name="hr00"/>
      <point x="205" y="635"/>
      <point x="265" y="575"/>
      <point x="339" y="575" type="curve" smooth="yes"/>
      <point x="413" y="575"/>
      <point x="473" y="635"/>
      <point x="473" y="709" type="curve" smooth="yes"/>
      <point x="473" y="783"/>
      <point x="413" y="843"/>
      <point x="339" y="843" type="curve" smooth="yes"/>
      <point x="265" y="843"/>
      <point x="205" y="783"/>
    </contour>
  </outline>
</glyph>
<glyph name="SupOne" format="2">
  <advance width="840"/>
  <unicode hex="00B9"/>
  <anchor x="419" y="615" name="L"/>
  <anchor x="419" y="1675" name="U"/>
  <outline>
    <contour>
      <point x="710" y="680" type="line"/>
      <point x="710" y="790.5" type="line"/>
      <point x="489.5" y="790.5" type="line"/>
      <point x="489.5" y="1642" type="line"/>
      <point x="370.5" y="1642" type="line"/>
      <point x="129" y="1504.2" type="line"/>
      <point x="146.5" y="1387.2" type="line"/>
      <point x="356.5" y="1499" type="line"/>
      <point x="356.5" y="790.5" type="line"/>
      <point x="136" y="790.5" type="line"/>
      <point x="136" y="680" type="line"/>
    </contour>
  </outline>
</glyph>
<glyph name="MascOrdIndicator" format="2">
  <advance width="798"/>
  <unicode hex="00BA"/>
  <outline>
    <contour>
      <point x="71" y="1008" type="curve" smooth="yes"/>
      <point x="71" y="785"/>
      <point x="205" y="664"/>
      <point x="397" y="664" type="curve" smooth="yes"/>
      <point x="581" y="664"/>
      <point x="736" y="785"/>
      <point x="736" y="1008" type="curve" smooth="yes"/>
      <point x="736" y="1232"/>
      <point x="603" y="1356"/>
      <point x="411" y="1356" type="curve" smooth="yes"/>
      <point x="227" y="1356"/>
      <point x="71" y="1232"/>
    </contour>
    <contour>
      <point x="201" y="1008" type="curve" smooth="yes"/>
      <point x="201" y="1160"/>
      <point x="291" y="1252"/>
      <point x="404" y="1252" type="curve" smooth="yes"/>
      <point x="524" y="1252"/>
      <point x="607" y="1160"/>
      <point x="607" y="1008" type="curve" smooth="yes"/>
      <point x="607" y="857"/>
      <point x="517" y="768"/>
      <point x="404" y="768" type="curve" smooth="yes"/>
      <point x="284" y="768"/>
      <point x="201" y="857"/>
    </contour>
    <contour>
      <point x="71" y="500" type="line"/>
      <point x="736" y="500" type="line"/>
      <point x="736" y="600" type="line"/>
      <point x="71" y="600" type="line"/>
    </contour>
  </outline>
</glyph>
<glyph name="RtPtngDblAngQuotMrk" format="1">
  <advance width="1300"/>
  <unicode hex="00BB"/>
  <outline>
    <contour>
      <point x="787" y="0" type="line" name="hr01"/>
      <point x="1225" y="512" type="line" name="hr02"/>
      <point x="790" y="1020" type="line"/>
      <point x="605" y="1020" type="line"/>
      <point x="995" y="512" type="line"/>
      <point x="605" y="0" type="line"/>
    </contour>
    <contour>
      <point x="297" y="0" type="line"/>
      <point x="735" y="512" type="line"/>
      <point x="300" y="1020" type="line"/>
      <point x="115" y="1020" type="line"/>
      <point x="505" y="512" type="line"/>
      <point x="115" y="0" type="line"/>
    </contour>
  </outline>
</glyph>
<glyph name="InvQstnMrk" format="1">
  <advance width="1050"/>
  <unicode hex="00BF"/>
  <outline>
    <contour>
      <point x="785" y="-121" type="line" name="hr01"/>
      <point x="709" y="-200"/>
      <point x="618" y="-235"/>
      <point x="538" y="-235" type="curve" smooth="yes"/>
      <point x="391" y="-235"/>
      <point x="345" y="-159"/>
      <point x="345" y="-100" type="curve" smooth="yes"/>
      <point x="345" y="-41"/>
      <point x="358" y="15"/>
      <point x="485" y="150" type="curve" smooth="yes"/>
      <point x="593" y="265"/>
      <point x="610" y="361"/>
      <point x="610" y="690" type="curve"/>
      <point x="435" y="690" type="line"/>
      <point x="435" y="381"/>
      <point x="418" y="332"/>
      <point x="296" y="190" type="curve" smooth="yes"/>
      <point x="181" y="56"/>
      <point x="140" y="-7"/>
      <point x="140" y="-110" type="curve" smooth="yes"/>
      <point x="140" y="-312"/>
      <point x="298" y="-410"/>
      <point x="510" y="-410" type="curve" smooth="yes"/>
      <point x="635" y="-410"/>
      <point x="764" y="-363"/>
      <point x="830" y="-300" type="curve"/>
    </contour>
    <contour>
      <point x="662" y="979" type="curve" smooth="yes" name="hr02"/>
      <point x="662" y="1053"/>
      <point x="602" y="1113"/>
      <point x="528" y="1113" type="curve" smooth="yes"/>
      <point x="454" y="1113"/>
      <point x="394" y="1053"/>
      <point x="394" y="979" type="curve" smooth="yes"/>
      <point x="394" y="905"/>
      <point x="454" y="845"/>
      <point x="528" y="845" type="curve" smooth="yes"/>
      <point x="602" y="845"/>
      <point x="662" y="905"/>
    </contour>
  </outline>
</glyph>
<glyph name="LtnCapAAcute" format="1">
  <advance width="1395"/>
  <unicode hex="00C1"/>
  <outline>
    <component base="LtnCapA"/>
    <component base="CombAcute" xOffset="1257" yOffset="430"/>
    <contour>
      <point x="707" y="0" type="move" name="H"/>
    </contour>
    <contour>
      <point x="687" y="-100" type="move" name="L"/>
    </contour>
    <contour>
      <point x="1450" y="0" type="move" name="O"/>
    </contour>
    <contour>
      <point x="687" y="2065" type="move" name="U"/>
    </contour>
  </outline>
</glyph>
<glyph name="LtnCapACircum" format="1">
  <advance width="1395"/>
  <unicode hex="00C2"/>
  <outline>
    <component base="LtnCapA"/>
    <component base="CombCircum" xOffset="1257" yOffset="430"/>
    <contour>
      <point x="707" y="0" type="move" name="H"/>
    </contour>
    <contour>
      <point x="687" y="-100" type="move" name="L"/>
    </contour>
    <contour>
      <point x="1450" y="0" type="move" name="O"/>
    </contour>
    <contour>
      <point x="687" y="2065" type="move" name="U"/>
    </contour>
  </outline>
</glyph>
<glyph name="LtnCapATilde" format="2">
  <advance width="1395"/>
  <unicode hex="00C3"/>
  <anchor x="707" y="0" name="H"/>
  <anchor x="687" y="-100" name="L"/>
  <anchor x="1450" y="0" name="O"/>
  <anchor x="687" y="1905" name="U"/>
  <anchor x="687" y="1530" name="_U"/>
  <outline>
    <contour>
      <point x="442" y="1635" type="line"/>
      <point x="447" y="1684"/>
      <point x="478" y="1720"/>
      <point x="527" y="1720" type="curve" smooth="yes"/>
      <point x="564" y="1720"/>
      <point x="605" y="1704"/>
      <point x="682" y="1668" type="curve" smooth="yes"/>
      <point x="743" y="1640"/>
      <point x="796" y="1620"/>
      <point x="849" y="1620" type="curve" smooth="yes"/>
      <point x="972" y="1620"/>
      <point x="1047" y="1742"/>
      <point x="1047" y="1870" type="curve"/>
      <point x="942" y="1870" type="line"/>
      <point x="935" y="1824"/>
      <point x="904" y="1785"/>
      <point x="857" y="1785" type="curve" smooth="yes"/>
      <point x="815" y="1785"/>
      <point x="774" y="1804"/>
      <point x="702" y="1833" type="curve" smooth="yes"/>
      <point x="632" y="1861"/>
      <point x="585" y="1885"/>
      <point x="529" y="1885" type="curve" smooth="yes"/>
      <point x="410" y="1885"/>
      <point x="337" y="1757"/>
      <point x="337" y="1635" type="curve"/>
    </contour>
    <contour>
      <point x="245" y="0" type="line"/>
      <point x="379" y="385" type="line"/>
      <point x="994" y="385" type="line"/>
      <point x="1130" y="0" type="line"/>
      <point x="1335" y="0" type="line"/>
      <point x="1300" y="80"/>
      <point x="1262" y="169"/>
      <point x="1195" y="355" type="curve" smooth="yes"/>
      <point x="795" y="1460" type="line"/>
      <point x="580" y="1460" type="line"/>
      <point x="180" y="355" type="line" smooth="yes"/>
      <point x="112" y="168"/>
      <point x="76" y="81"/>
      <point x="40" y="0" type="curve"/>
    </contour>
    <contour>
      <point x="940" y="540" type="line"/>
      <point x="433" y="540" type="line"/>
      <point x="685" y="1265" type="line"/>
    </contour>
  </outline>
</glyph>
<glyph name="LtnCapADiaer" format="1">
  <advance width="1395"/>
  <unicode hex="00C4"/>
  <outline>
    <component base="LtnCapA"/>
    <component base="CombDiaer" xOffset="1257" yOffset="430"/>
    <contour>
      <point x="707" y="0" type="move" name="H"/>
    </contour>
    <contour>
      <point x="687" y="-100" type="move" name="L"/>
    </contour>
    <contour>
      <point x="1450" y="0" type="move" name="O"/>
    </contour>
    <contour>
      <point x="687" y="1935" type="move" name="U"/>
    </contour>
  </outline>
</glyph>
<glyph name="LtnCapARingAbv" format="1">
  <advance width="1395"/>
  <unicode hex="00C5"/>
  <outline>
    <component base="LtnCapA"/>
    <component base="CombRingAbv" xOffset="1259" yOffset="430"/>
    <contour>
      <point x="707" y="0" type="move" name="H"/>
    </contour>
    <contour>
      <point x="687" y="-100" type="move" name="L"/>
    </contour>
    <contour>
      <point x="1450" y="0" type="move" name="O"/>
    </contour>
    <contour>
      <point x="689" y="2065" type="move" name="U"/>
    </contour>
  </outline>
</glyph>
<glyph name="LtnCapAe" format="2">
  <advance width="1805"/>
  <unicode hex="00C6"/>
  <anchor x="1015" y="-100" name="L"/>
  <anchor x="1015" y="1530" name="U"/>
  <outline>
    <contour>
      <point x="1057" y="385" type="line"/>
      <point x="997" y="540" type="line"/>
      <point x="459" y="540" type="line"/>
      <point x="399" y="385" type="line"/>
    </contour>
    <contour>
      <point x="1580" y="685" type="line"/>
      <point x="1580" y="845" type="line"/>
      <point x="1110" y="845" type="line"/>
      <point x="1110" y="1295" type="line"/>
      <point x="1655" y="1295" type="line"/>
      <point x="1655" y="1460" type="line"/>
      <point x="810" y="1460" type="line"/>
      <point x="295" y="399" type="line" smooth="yes"/>
      <point x="226" y="257"/>
      <point x="170" y="148"/>
      <point x="80" y="0" type="curve"/>
      <point x="280" y="0" type="line"/>
      <point x="920" y="1295" type="line"/>
      <point x="920" y="243"/>
      <point x="920" y="80"/>
      <point x="905" y="0" type="curve"/>
      <point x="1685" y="0" type="line"/>
      <point x="1685" y="180" type="line"/>
      <point x="1605" y="166"/>
      <point x="1471" y="165"/>
      <point x="1274" y="165" type="curve" smooth="yes"/>
      <point x="1110" y="165" type="line"/>
      <point x="1110" y="685" type="line"/>
    </contour>
  </outline>
</glyph>
<glyph name="LtnCapCCedilla" format="1">
  <advance width="1355"/>
  <unicode hex="00C7"/>
  <outline>
    <component base="LtnCapC"/>
    <component base="CombCedilla" xOffset="1320"/>
    <contour>
      <point x="710" y="-520" type="move" name="L"/>
    </contour>
    <contour>
      <point x="750" y="1530" type="move" name="U"/>
    </contour>
  </outline>
</glyph>
<glyph name="LtnCapECircum" format="1">
  <advance width="1160"/>
  <unicode hex="00CA"/>
  <outline>
    <component base="LtnCapE"/>
    <component base="CombCircum" xOffset="1170" yOffset="430"/>
    <contour>
      <point x="600" y="0" type="move" name="H"/>
    </contour>
    <contour>
      <point x="600" y="-100" type="move" name="L"/>
    </contour>
    <contour>
      <point x="917" y="0" type="move" name="O"/>
    </contour>
    <contour>
      <point x="1160" y="1200" type="move" name="R"/>
    </contour>
    <contour>
      <point x="600" y="2065" type="move" name="U"/>
    </contour>
  </outline>
</glyph>
<glyph name="LtnCapEDiaer" format="1">
  <advance width="1160"/>
  <unicode hex="00CB"/>
  <outline>
    <component base="LtnCapE"/>
    <component base="CombDiaer" xOffset="1170" yOffset="430"/>
    <contour>
      <point x="600" y="0" type="move" name="H"/>
    </contour>
    <contour>
      <point x="600" y="-100" type="move" name="L"/>
    </contour>
    <contour>
      <point x="917" y="0" type="move" name="O"/>
    </contour>
    <contour>
      <point x="1160" y="1200" type="move" name="R"/>
    </contour>
    <contour>
      <point x="600" y="1935" type="move" name="U"/>
    </contour>
  </outline>
</glyph>
<glyph name="LtnCapICircum" format="1">
  <advance width="975"/>
  <unicode hex="00CE"/>
  <outline>
    <component base="LtnCapI"/>
    <component base="CombCircum" xOffset="1047" yOffset="430"/>
    <contour>
      <point x="477" y="0" type="move" name="H"/>
    </contour>
    <contour>
      <point x="477" y="-100" type="move" name="L"/>
    </contour>
    <contour>
      <point x="673" y="0" type="move" name="O"/>
    </contour>
    <contour>
      <point x="975" y="1200" type="move" name="R"/>
    </contour>
    <contour>
      <point x="477" y="2065" type="move" name="U"/>
    </contour>
  </outline>
</glyph>
<glyph name="LtnCapNTilde" format="2">
  <advance width="1500"/>
  <unicode hex="00D1"/>
  <anchor x="1230" y="0" name="H"/>
  <anchor x="737" y="-100" name="L"/>
  <anchor x="737" y="1905" name="U"/>
  <anchor x="737" y="1530" name="_U"/>
  <outline>
    <contour>
      <point x="492" y="1635" type="line"/>
      <point x="497" y="1684"/>
      <point x="528" y="1720"/>
      <point x="577" y="1720" type="curve" smooth="yes"/>
      <point x="614" y="1720"/>
      <point x="655" y="1704"/>
      <point x="732" y="1668" type="curve" smooth="yes"/>
      <point x="793" y="1640"/>
      <point x="846" y="1620"/>
      <point x="899" y="1620" type="curve" smooth="yes"/>
      <point x="1022" y="1620"/>
      <point x="1097" y="1742"/>
      <point x="1097" y="1870" type="curve"/>
      <point x="992" y="1870" type="line"/>
      <point x="985" y="1824"/>
      <point x="954" y="1785"/>
      <point x="907" y="1785" type="curve" smooth="yes"/>
      <point x="865" y="1785"/>
      <point x="824" y="1804"/>
      <point x="752" y="1833" type="curve" smooth="yes"/>
      <point x="682" y="1861"/>
      <point x="635" y="1885"/>
      <point x="579" y="1885" type="curve" smooth="yes"/>
      <point x="460" y="1885"/>
      <point x="387" y="1757"/>
      <point x="387" y="1635" type="curve"/>
    </contour>
    <contour>
      <point x="200" y="1355" type="line"/>
      <point x="1135" y="0" type="line"/>
      <point x="1275" y="100" type="line"/>
      <point x="340" y="1460" type="line"/>
    </contour>
    <contour>
      <point x="1135" y="0" type="line"/>
      <point x="1300" y="0" type="line"/>
      <point x="1300" y="1025" type="line" smooth="yes"/>
      <point x="1300" y="1222"/>
      <point x="1301" y="1380"/>
      <point x="1315" y="1460" type="curve"/>
      <point x="1135" y="1460" type="line"/>
    </contour>
    <contour>
      <point x="340" y="1460" type="line"/>
      <point x="160" y="1460" type="line"/>
      <point x="175" y="1380"/>
      <point x="175" y="1222"/>
      <point x="175" y="1025" type="curve" smooth="yes"/>
      <point x="175" y="435" type="line" smooth="yes"/>
      <point x="175" y="238"/>
      <point x="175" y="80"/>
      <point x="160" y="0" type="curve"/>
      <point x="340" y="0" type="line"/>
    </contour>
  </outline>
</glyph>
<glyph name="LtnCapOAcute" format="1">
  <advance width="1460"/>
  <unicode hex="00D3"/>
  <outline>
    <component base="LtnCapO"/>
    <component base="CombAcute" xOffset="1287" yOffset="430"/>
    <contour>
      <point x="717" y="0" type="move" name="H"/>
    </contour>
    <contour>
      <point x="717" y="-100" type="move" name="L"/>
    </contour>
    <contour>
      <point x="994" y="0" type="move" name="O"/>
    </contour>
    <contour>
      <point x="1460" y="1200" type="move" name="R"/>
    </contour>
    <contour>
      <point x="717" y="2065" type="move" name="U"/>
    </contour>
  </outline>
</glyph>
<glyph name="LtnCapOTilde" format="2">
  <advance width="1460"/>
  <unicode hex="00D5"/>
  <anchor x="717" y="0" name="H"/>
  <anchor x="717" y="-100" name="L"/>
  <anchor x="994" y="0" name="O"/>
  <anchor x="1460" y="1200" name="R"/>
  <anchor x="717" y="1905" name="U"/>
  <anchor x="717" y="1530" name="_U"/>
  <outline>
    <contour>
      <point x="472" y="1635" type="line"/>
      <point x="477" y="1684"/>
      <point x="508" y="1720"/>
      <point x="557" y="1720" type="curve" smooth="yes"/>
      <point x="594" y="1720"/>
      <point x="635" y="1704"/>
      <point x="712" y="1668" type="curve" smooth="yes"/>
      <point x="773" y="1640"/>
      <point x="826" y="1620"/>
      <point x="879" y="1620" type="curve" smooth="yes"/>
      <point x="1002" y="1620"/>
      <point x="1077" y="1742"/>
      <point x="1077" y="1870" type="curve"/>
      <point x="972" y="1870" type="line"/>
      <point x="965" y="1824"/>
      <point x="934" y="1785"/>
      <point x="887" y="1785" type="curve" smooth="yes"/>
      <point x="845" y="1785"/>
      <point x="804" y="1804"/>
      <point x="732" y="1833" type="curve" smooth="yes"/>
      <point x="662" y="1861"/>
      <point x="615" y="1885"/>
      <point x="559" y="1885" type="curve" smooth="yes"/>
      <point x="440" y="1885"/>
      <point x="367" y="1757"/>
      <point x="367" y="1635" type="curve"/>
    </contour>
    <contour>
      <point x="1145" y="715" type="curve" smooth="yes"/>
      <point x="1145" y="360"/>
      <point x="965" y="150"/>
      <point x="720" y="150" type="curve" smooth="yes"/>
      <point x="460" y="150"/>
      <point x="290" y="380"/>
      <point x="290" y="745" type="curve" smooth="yes"/>
      <point x="290" y="1091"/>
      <point x="467" y="1310"/>
      <point x="720" y="1310" type="curve" smooth="yes"/>
      <point x="974" y="1310"/>
      <point x="1145" y="1084"/>
    </contour>
    <contour>
      <point x="1340" y="740" type="curve" smooth="yes"/>
      <point x="1340" y="1219"/>
      <point x="1048" y="1485"/>
      <point x="730" y="1485" type="curve" smooth="yes"/>
      <point x="407" y="1485"/>
      <point x="95" y="1199"/>
      <point x="95" y="720" type="curve" smooth="yes"/>
      <point x="95" y="241"/>
      <point x="388" y="-25"/>
      <point x="710" y="-25" type="curve" smooth="yes"/>
      <point x="1029" y="-25"/>
      <point x="1340" y="260"/>
    </contour>
  </outline>
</glyph>
<glyph name="LtnCapODiaer" format="1">
  <advance width="1460"/>
  <unicode hex="00D6"/>
  <outline>
    <component base="LtnCapO"/>
    <component base="CombDiaer" xOffset="1287" yOffset="430"/>
    <contour>
      <point x="717" y="0" type="move" name="H"/>
    </contour>
    <contour>
      <point x="717" y="-100" type="move" name="L"/>
    </contour>
    <contour>
      <point x="994" y="0" type="move" name="O"/>
    </contour>
    <contour>
      <point x="1460" y="1200" type="move" name="R"/>
    </contour>
    <contour>
      <point x="717" y="1935" type="move" name="U"/>
    </contour>
  </outline>
</glyph>
<glyph name="MultSgn" format="2">
  <advance width="1200"/>
  <unicode hex="00D7"/>
  <outline>
    <contour>
      <point x="198" y="1021" type="line"/>
      <point x="496" y="722" type="line"/>
      <point x="203" y="429" type="line"/>
      <point x="309" y="323" type="line"/>
      <point x="602" y="616" type="line"/>
      <point x="891" y="328" type="line"/>
      <point x="997" y="434" type="line"/>
      <point x="708" y="722" type="line"/>
      <point x="1002" y="1016" type="line"/>
      <point x="896" y="1122" type="line"/>
      <point x="602" y="828" type="line"/>
      <point x="304" y="1127" type="line"/>
    </contour>
  </outline>
</glyph>
<glyph name="LtnCapUAcute" format="1">
  <advance width="1440"/>
  <unicode hex="00DA"/>
  <outline>
    <component base="LtnCapU"/>
    <component base="CombAcute" xOffset="1277" yOffset="430"/>
    <contour>
      <point x="707" y="0" type="move" name="H"/>
    </contour>
    <contour>
      <point x="707" y="-100" type="move" name="L"/>
    </contour>
    <contour>
      <point x="1026" y="0" type="move" name="O"/>
    </contour>
    <contour>
      <point x="1400" y="1200" type="move" name="R"/>
    </contour>
    <contour>
      <point x="707" y="2065" type="move" name="U"/>
    </contour>
  </outline>
</glyph>
<glyph name="LtnCapUDiaer" format="1">
  <advance width="1440"/>
  <unicode hex="00DC"/>
  <outline>
    <component base="LtnCapU"/>
    <component base="CombDiaer" xOffset="1277" yOffset="430"/>
    <contour>
      <point x="707" y="0" type="move" name="H"/>
    </contour>
    <contour>
      <point x="707" y="-100" type="move" name="L"/>
    </contour>
    <contour>
      <point x="1026" y="0" type="move" name="O"/>
    </contour>
    <contour>
      <point x="1400" y="1200" type="move" name="R"/>
    </contour>
    <contour>
      <point x="707" y="1935" type="move" name="U"/>
    </contour>
  </outline>
</glyph>
<glyph name="LtnCapYAcute" format="1">
  <advance width="1320"/>
  <unicode hex="00DD"/>
  <outline>
    <component base="LtnCapY"/>
    <component base="CombAcute" xOffset="1220" yOffset="430"/>
    <contour>
      <point x="650" y="-100" type="move" name="L"/>
    </contour>
    <contour>
      <point x="650" y="2065" type="move" name="U"/>
    </contour>
  </outline>
</glyph>
<glyph name="LtnCapThorn" format="2">
  <advance width="1196"/>
  <unicode hex="00DE"/>
  <anchor x="638" y="-100" name="L"/>
  <anchor x="638" y="1530" name="U"/>
  <outline>
    <contour>
      <point x="365" y="295" type="curve"/>
      <point x="430" y="288"/>
      <point x="513" y="285"/>
      <point x="586" y="285" type="curve" smooth="yes"/>
      <point x="915" y="285"/>
      <point x="1116" y="466"/>
      <point x="1116" y="760" type="curve" smooth="yes"/>
      <point x="1116" y="1052"/>
      <point x="909" y="1200"/>
      <point x="586" y="1200" type="curve" smooth="yes"/>
      <point x="507" y="1200"/>
      <point x="433" y="1198"/>
      <point x="365" y="1197" type="curve"/>
      <point x="365" y="1460" type="line"/>
      <point x="160" y="1460" type="line"/>
      <point x="175" y="1380"/>
      <point x="175" y="1196"/>
      <point x="175" y="1000" type="curve" smooth="yes"/>
      <point x="175" y="435" type="line" smooth="yes"/>
      <point x="175" y="238"/>
      <point x="175" y="80"/>
      <point x="160" y="0" type="curve"/>
      <point x="380" y="0" type="line"/>
      <point x="366" y="78"/>
      <point x="365" y="295"/>
    </contour>
    <contour>
      <point x="365" y="1035" type="line"/>
      <point x="433" y="1038"/>
      <point x="481" y="1040"/>
      <point x="575" y="1040" type="curve" smooth="yes"/>
      <point x="841" y="1040"/>
      <point x="925" y="900"/>
      <point x="925" y="740" type="curve" smooth="yes"/>
      <point x="925" y="579"/>
      <point x="850" y="440"/>
      <point x="570" y="440" type="curve" smooth="yes"/>
      <point x="495" y="440"/>
      <point x="428" y="442"/>
      <point x="365" y="450" type="curve"/>
    </contour>
  </outline>
</glyph>
<glyph name="LtnSmSharpS" format="1">
  <advance width="1238"/>
  <unicode hex="00DF"/>
  <outline>
    <contour>
      <point x="531" y="48" type="line" name="hr00"/>
      <point x="582" y="12"/>
      <point x="697" y="-25"/>
      <point x="793" y="-25" type="curve" smooth="yes"/>
      <point x="1020" y="-25"/>
      <point x="1183" y="106"/>
      <point x="1183" y="328" type="curve" smooth="yes"/>
      <point x="1183" y="503"/>
      <point x="1054" y="596"/>
      <point x="952" y="656" type="curve" smooth="yes"/>
      <point x="864" y="708"/>
      <point x="762" y="742"/>
      <point x="762" y="845" type="curve" smooth="yes"/>
      <point x="762" y="1021"/>
      <point x="1083" y="964"/>
      <point x="1083" y="1284" type="curve" smooth="yes"/>
      <point x="1083" y="1455"/>
      <point x="928" y="1620"/>
      <point x="620" y="1620" type="curve" smooth="yes"/>
      <point x="387" y="1620"/>
      <point x="160" y="1480"/>
      <point x="160" y="1120" type="curve" smooth="yes"/>
      <point x="160" y="494" type="line" smooth="yes"/>
      <point x="160" y="300"/>
      <point x="152" y="105"/>
      <point x="130" y="0" type="curve"/>
      <point x="345" y="0" type="line"/>
      <point x="345" y="1140" type="line" smooth="yes"/>
      <point x="345" y="1346"/>
      <point x="487" y="1460"/>
      <point x="655" y="1460" type="curve" smooth="yes"/>
      <point x="766" y="1460"/>
      <point x="900" y="1379"/>
      <point x="900" y="1264" type="curve" smooth="yes"/>
      <point x="900" y="1067"/>
      <point x="582" y="1095"/>
      <point x="582" y="845" type="curve" smooth="yes"/>
      <point x="582" y="673"/>
      <point x="716" y="583"/>
      <point x="832" y="525" type="curve" smooth="yes"/>
      <point x="926" y="478"/>
      <point x="1007" y="409"/>
      <point x="1007" y="319" type="curve" smooth="yes"/>
      <point x="1007" y="202"/>
      <point x="916" y="135"/>
      <point x="793" y="135" type="curve" smooth="yes"/>
      <point x="716" y="135"/>
      <point x="628" y="180"/>
      <point x="581" y="228" type="curve"/>
    </contour>
    <contour>
      <point x="590" y="-100" type="move" name="L"/>
    </contour>
    <contour>
      <point x="620" y="1635" type="move" name="U"/>
    </contour>
  </outline>
</glyph>
<glyph name="LtnSmACircum.SngStory" format="1">
  <advance width="1150"/>
  <unicode hex="00E2"/>
  <outline>
    <component base="LtnSmAlpha"/>
    <component base="CombCircum" xOffset="1165"/>
    <contour>
      <point x="548" y="0" type="move" name="H"/>
    </contour>
    <contour>
      <point x="595" y="-100" type="move" name="L"/>
    </contour>
    <contour>
      <point x="1160" y="0" type="move" name="O"/>
    </contour>
    <contour>
      <point x="1150" y="1000" type="move" name="R"/>
    </contour>
    <contour>
      <point x="595" y="1635" type="move" name="U"/>
    </contour>
  </outline>
</glyph>
<glyph name="LtnSmAe" format="2">
  <advance width="1745"/>
  <unicode hex="00E6"/>
  <anchor x="888" y="0" name="H"/>
  <anchor x="865" y="-100" name="L"/>
  <anchor x="1582" y="0" name="O"/>
  <anchor x="1745" y="1000" name="R"/>
  <anchor x="865" y="1100" name="U"/>
  <outline>
    <contour>
      <point x="1245" y="1040" type="curve" smooth="yes"/>
      <point x="1100" y="1040"/>
      <point x="970" y="975"/>
      <point x="880" y="865" type="curve"/>
      <point x="810" y="983"/>
      <point x="676" y="1040"/>
      <point x="540" y="1040" type="curve" smooth="yes"/>
      <point x="388" y="1040"/>
      <point x="313" y="994"/>
      <point x="210" y="950" type="curve"/>
      <point x="204" y="907"/>
      <point x="201" y="799"/>
      <point x="200" y="755" type="curve"/>
      <point x="317" y="837"/>
      <point x="389" y="880"/>
      <point x="495" y="880" type="curve" smooth="yes"/>
      <point x="645" y="880"/>
      <point x="755" y="831"/>
      <point x="755" y="710" type="curve" smooth="yes"/>
      <point x="755" y="625" type="line"/>
      <point x="714" y="622"/>
      <point x="554" y="619"/>
      <point x="485" y="610" type="curve" smooth="yes"/>
      <point x="187" y="569"/>
      <point x="95" y="407"/>
      <point x="95" y="255" type="curve" smooth="yes"/>
      <point x="95" y="107"/>
      <point x="232" y="-25"/>
      <point x="420" y="-25" type="curve" smooth="yes"/>
      <point x="544" y="-25"/>
      <point x="667" y="19"/>
      <point x="785" y="145" type="curve" smooth="yes"/>
      <point x="800" y="162"/>
      <point x="816" y="179"/>
      <point x="830" y="196" type="curve"/>
      <point x="917" y="50"/>
      <point x="1070" y="-25"/>
      <point x="1235" y="-25" type="curve" smooth="yes"/>
      <point x="1389" y="-25"/>
      <point x="1503" y="2"/>
      <point x="1645" y="75" type="curve"/>
      <point x="1625" y="240" type="line"/>
      <point x="1503" y="166"/>
      <point x="1389" y="140"/>
      <point x="1260" y="140" type="curve" smooth="yes"/>
      <point x="1079" y="140"/>
      <point x="938" y="251"/>
      <point x="930" y="485" type="curve"/>
      <point x="1640" y="485" type="line"/>
      <point x="1640" y="565" type="line"/>
      <point x="1640" y="790"/>
      <point x="1555" y="1040"/>
    </contour>
    <contour>
      <point x="755" y="485" type="curve"/>
      <point x="755" y="437"/>
      <point x="761" y="391"/>
      <point x="770" y="350" type="curve"/>
      <point x="767" y="340"/>
      <point x="761" y="333"/>
      <point x="755" y="325" type="curve" smooth="yes"/>
      <point x="644" y="164"/>
      <point x="552" y="140"/>
      <point x="450" y="140" type="curve" smooth="yes"/>
      <point x="350" y="140"/>
      <point x="280" y="201"/>
      <point x="280" y="280" type="curve" smooth="yes"/>
      <point x="280" y="372"/>
      <point x="328" y="440"/>
      <point x="495" y="470" type="curve" smooth="yes"/>
      <point x="558" y="481"/>
      <point x="705" y="483"/>
    </contour>
    <contour>
      <point x="1230" y="890" type="curve" smooth="yes"/>
      <point x="1355" y="890"/>
      <point x="1460" y="797"/>
      <point x="1460" y="625" type="curve"/>
      <point x="940" y="625" type="line"/>
      <point x="973" y="806"/>
      <point x="1084" y="890"/>
    </contour>
  </outline>
</glyph>
<glyph name="LtnSmCCedilla" format="1">
  <advance width="1020"/>
  <unicode hex="00E7"/>
  <outline>
    <component base="LtnSmC"/>
    <component base="CombCedilla" xOffset="1150"/>
    <contour>
      <point x="540" y="-520" type="move" name="L"/>
    </contour>
    <contour>
      <point x="1020" y="1000" type="move" name="R"/>
    </contour>
    <contour>
      <point x="570" y="1100" type="move" name="U"/>
    </contour>
  </outline>
</glyph>
<glyph name="LtnSmEGrave" format="1">
  <advance width="1095"/>
  <unicode hex="00E8"/>
  <outline>
    <component base="LtnSmE"/>
    <component base="CombGrave" xOffset="1120"/>
    <contour>
      <point x="545" y="0" type="move" name="H"/>
    </contour>
    <contour>
      <point x="570" y="-100" type="move" name="L"/>
    </contour>
    <contour>
      <point x="925" y="0" type="move" name="O"/>
    </contour>
    <contour>
      <point x="1095" y="1000" type="move" name="R"/>
    </contour>
    <contour>
      <point x="570" y="1635" type="move" name="U"/>
    </contour>
  </outline>
</glyph>
<glyph name="LtnSmECircum" format="1">
  <advance width="1095"/>
  <unicode hex="00EA"/>
  <outline>
    <component base="LtnSmE"/>
    <component base="CombCircum" xOffset="1140"/>
    <contour>
      <point x="545" y="0" type="move" name="H"/>
    </contour>
    <contour>
      <point x="570" y="-100" type="move" name="L"/>
    </contour>
    <contour>
      <point x="925" y="0" type="move" name="O"/>
    </contour>
    <contour>
      <point x="1095" y="1000" type="move" name="R"/>
    </contour>
    <contour>
      <point x="570" y="1635" type="move" name="U"/>
    </contour>
  </outline>
</glyph>
<glyph name="LtnSmEDiaer" format="1">
  <advance width="1095"/>
  <unicode hex="00EB"/>
  <outline>
    <component base="LtnSmE"/>
    <component base="CombDiaer" xOffset="1140"/>
    <contour>
      <point x="545" y="0" type="move" name="H"/>
    </contour>
    <contour>
      <point x="570" y="-100" type="move" name="L"/>
    </contour>
    <contour>
      <point x="925" y="0" type="move" name="O"/>
    </contour>
    <contour>
      <point x="1095" y="1000" type="move" name="R"/>
    </contour>
    <contour>
      <point x="570" y="1505" type="move" name="U"/>
    </contour>
  </outline>
</glyph>
<glyph name="LtnSmICircum" format="1">
  <advance width="565"/>
  <unicode hex="00EE"/>
  <outline>
    <component base="LtnSmDotlessI"/>
    <component base="CombCircum" xOffset="855"/>
    <contour>
      <point x="285" y="0" type="move" name="H"/>
    </contour>
    <contour>
      <point x="285" y="-100" type="move" name="L"/>
    </contour>
    <contour>
      <point x="520" y="0" type="move" name="O"/>
    </contour>
    <contour>
      <point x="550" y="1000" type="move" name="R"/>
    </contour>
    <contour>
      <point x="285" y="1635" type="move" name="U"/>
    </contour>
  </outline>
</glyph>
<glyph name="LtnSmEth" format="2">
  <advance width="1160"/>
  <unicode hex="00F0"/>
  <anchor x="572" y="-100" name="L"/>
  <anchor x="572" y="1635" name="U"/>
  <outline>
    <contour>
      <point x="526" y="1000" type="curve" smooth="yes"/>
      <point x="330" y="1000"/>
      <point x="95" y="811"/>
      <point x="95" y="487" type="curve" smooth="yes"/>
      <point x="95" y="153"/>
      <point x="286" y="-25"/>
      <point x="560" y="-25" type="curve" smooth="yes"/>
      <point x="867" y="-25"/>
      <point x="1050" y="185"/>
      <point x="1050" y="606" type="curve" smooth="yes"/>
      <point x="1050" y="1030"/>
      <point x="769" y="1452"/>
      <point x="493" y="1620" type="curve"/>
      <point x="319" y="1532" type="line"/>
      <point x="541" y="1427"/>
      <point x="771" y="1138"/>
      <point x="852" y="868" type="curve"/>
      <point x="760" y="954"/>
      <point x="687" y="1000"/>
    </contour>
    <contour>
      <point x="280" y="487" type="curve" smooth="yes"/>
      <point x="280" y="701"/>
      <point x="388" y="840"/>
      <point x="570" y="840" type="curve" smooth="yes"/>
      <point x="742" y="840"/>
      <point x="860" y="711"/>
      <point x="860" y="487" type="curve" smooth="yes"/>
      <point x="860" y="274"/>
      <point x="751" y="135"/>
      <point x="570" y="135" type="curve" smooth="yes"/>
      <point x="398" y="135"/>
      <point x="280" y="264"/>
    </contour>
    <contour>
      <point x="996" y="1486" type="line"/>
      <point x="911" y="1591" type="line"/>
      <point x="321" y="1226" type="line"/>
      <point x="404" y="1118" type="line"/>
    </contour>
  </outline>
</glyph>
<glyph name="LtnSmNTilde" format="2">
  <advance width="1185"/>
  <unicode hex="00F1"/>
  <anchor x="970" y="0" name="H"/>
  <anchor x="600" y="-100" name="L"/>
  <anchor x="600" y="1475" name="U"/>
  <anchor x="600" y="1100" name="_U"/>
  <outline>
    <contour>
      <point x="1050" y="0" type="line"/>
      <point x="1050" y="197"/>
      <point x="1050" y="504"/>
      <point x="1050" y="625" type="curve" smooth="yes"/>
      <point x="1050" y="900"/>
      <point x="933" y="1040"/>
      <point x="720" y="1040" type="curve" smooth="yes"/>
      <point x="579" y="1040"/>
      <point x="452" y="977"/>
      <point x="325" y="825" type="curve"/>
      <point x="318" y="873"/>
      <point x="300" y="978"/>
      <point x="285" y="1020" type="curve"/>
      <point x="105" y="1020" type="line"/>
      <point x="127" y="951"/>
      <point x="155" y="811"/>
      <point x="155" y="615" type="curve" smooth="yes"/>
      <point x="155" y="473"/>
      <point x="155" y="181"/>
      <point x="155" y="0" type="curve"/>
      <point x="340" y="0" type="line"/>
      <point x="340" y="580" type="line"/>
      <point x="384" y="716"/>
      <point x="521" y="865"/>
      <point x="665" y="865" type="curve" smooth="yes"/>
      <point x="800" y="865"/>
      <point x="865" y="800"/>
      <point x="865" y="550" type="curve" smooth="yes"/>
      <point x="865" y="450"/>
      <point x="865" y="178"/>
      <point x="865" y="0" type="curve"/>
    </contour>
    <contour>
      <point x="355" y="1205" type="line"/>
      <point x="360" y="1254"/>
      <point x="391" y="1290"/>
      <point x="440" y="1290" type="curve" smooth="yes"/>
      <point x="477" y="1290"/>
      <point x="518" y="1274"/>
      <point x="595" y="1238" type="curve" smooth="yes"/>
      <point x="656" y="1210"/>
      <point x="709" y="1190"/>
      <point x="762" y="1190" type="curve" smooth="yes"/>
      <point x="885" y="1190"/>
      <point x="960" y="1312"/>
      <point x="960" y="1440" type="curve"/>
      <point x="855" y="1440" type="line"/>
      <point x="848" y="1394"/>
      <point x="817" y="1355"/>
      <point x="770" y="1355" type="curve" smooth="yes"/>
      <point x="728" y="1355"/>
      <point x="687" y="1374"/>
      <point x="615" y="1403" type="curve" smooth="yes"/>
      <point x="545" y="1431"/>
      <point x="498" y="1455"/>
      <point x="442" y="1455" type="curve" smooth="yes"/>
      <point x="323" y="1455"/>
      <point x="250" y="1327"/>
      <point x="250" y="1205" type="curve"/>
    </contour>
  </outline>
</glyph>
<glyph name="LtnSmOGrave" format="1">
  <advance width="1140"/>
  <unicode hex="00F2"/>
  <outline>
    <component base="LtnSmO"/>
    <component base="CombGrave" xOffset="1120"/>
    <contour>
      <point x="570" y="0" type="move" name="H"/>
    </contour>
    <contour>
      <point x="570" y="-100" type="move" name="L"/>
    </contour>
    <contour>
      <point x="835" y="0" type="move" name="O"/>
    </contour>
    <contour>
      <point x="1140" y="1000" type="move" name="R"/>
    </contour>
    <contour>
      <point x="570" y="1635" type="move" name="U"/>
    </contour>
  </outline>
</glyph>
<glyph name="LtnSmOCircum" format="1">
  <advance width="1140"/>
  <unicode hex="00F4"/>
  <outline>
    <component base="LtnSmO"/>
    <component base="CombCircum" xOffset="1140"/>
    <contour>
      <point x="570" y="0" type="move" name="H"/>
    </contour>
    <contour>
      <point x="570" y="-100" type="move" name="L"/>
    </contour>
    <contour>
      <point x="835" y="0" type="move" name="O"/>
    </contour>
    <contour>
      <point x="1140" y="1000" type="move" name="R"/>
    </contour>
    <contour>
      <point x="570" y="1635" type="move" name="U"/>
    </contour>
  </outline>
</glyph>
<glyph name="LtnSmOTilde" format="2">
  <advance width="1140"/>
  <unicode hex="00F5"/>
  <anchor x="570" y="0" name="H"/>
  <anchor x="570" y="-100" name="L"/>
  <anchor x="835" y="0" name="O"/>
  <anchor x="1140" y="1000" name="R"/>
  <anchor x="570" y="1475" name="U"/>
  <anchor x="570" y="1100" name="_U"/>
  <outline>
    <contour>
      <point x="325" y="1205" type="line"/>
      <point x="330" y="1254"/>
      <point x="361" y="1290"/>
      <point x="410" y="1290" type="curve" smooth="yes"/>
      <point x="447" y="1290"/>
      <point x="488" y="1274"/>
      <point x="565" y="1238" type="curve" smooth="yes"/>
      <point x="626" y="1210"/>
      <point x="679" y="1190"/>
      <point x="732" y="1190" type="curve" smooth="yes"/>
      <point x="855" y="1190"/>
      <point x="930" y="1312"/>
      <point x="930" y="1440" type="curve"/>
      <point x="825" y="1440" type="line"/>
      <point x="818" y="1394"/>
      <point x="787" y="1355"/>
      <point x="740" y="1355" type="curve" smooth="yes"/>
      <point x="698" y="1355"/>
      <point x="657" y="1374"/>
      <point x="585" y="1403" type="curve" smooth="yes"/>
      <point x="515" y="1431"/>
      <point x="468" y="1455"/>
      <point x="412" y="1455" type="curve" smooth="yes"/>
      <point x="293" y="1455"/>
      <point x="220" y="1327"/>
      <point x="220" y="1205" type="curve"/>
    </contour>
    <contour>
      <point x="95" y="505" type="curve" smooth="yes"/>
      <point x="95" y="161"/>
      <point x="286" y="-25"/>
      <point x="560" y="-25" type="curve" smooth="yes"/>
      <point x="823" y="-25"/>
      <point x="1045" y="161"/>
      <point x="1045" y="505" type="curve" smooth="yes"/>
      <point x="1045" y="849"/>
      <point x="855" y="1040"/>
      <point x="580" y="1040" type="curve" smooth="yes"/>
      <point x="317" y="1040"/>
      <point x="95" y="849"/>
    </contour>
    <contour>
      <point x="280" y="505" type="curve" smooth="yes"/>
      <point x="280" y="739"/>
      <point x="408" y="880"/>
      <point x="570" y="880" type="curve" smooth="yes"/>
      <point x="742" y="880"/>
      <point x="860" y="739"/>
      <point x="860" y="505" type="curve" smooth="yes"/>
      <point x="860" y="272"/>
      <point x="731" y="135"/>
      <point x="570" y="135" type="curve" smooth="yes"/>
      <point x="398" y="135"/>
      <point x="280" y="272"/>
    </contour>
  </outline>
</glyph>
<glyph name="LtnSmODiaer" format="1">
  <advance width="1140"/>
  <unicode hex="00F6"/>
  <outline>
    <component base="LtnSmO"/>
    <component base="CombDiaer" xOffset="1140"/>
    <contour>
      <point x="570" y="0" type="move" name="H"/>
    </contour>
    <contour>
      <point x="570" y="-100" type="move" name="L"/>
    </contour>
    <contour>
      <point x="835" y="0" type="move" name="O"/>
    </contour>
    <contour>
      <point x="1140" y="1000" type="move" name="R"/>
    </contour>
    <contour>
      <point x="570" y="1505" type="move" name="U"/>
    </contour>
  </outline>
</glyph>
<glyph name="DivSgn" format="1">
  <advance width="1200"/>
  <unicode hex="00F7"/>
  <outline>
    <contour>
      <point x="458" y="407" type="curve" smooth="yes" name="hr00"/>
      <point x="458" y="331"/>
      <point x="524" y="267"/>
      <point x="600" y="267" type="curve" smooth="yes"/>
      <point x="676" y="267"/>
      <point x="737" y="331"/>
      <point x="737" y="407" type="curve" smooth="yes"/>
      <point x="737" y="483"/>
      <point x="676" y="545"/>
      <point x="600" y="545" type="curve" smooth="yes"/>
      <point x="524" y="545"/>
      <point x="458" y="483"/>
    </contour>
    <contour>
      <point x="458" y="1045" type="curve" smooth="yes"/>
      <point x="458" y="969"/>
      <point x="524" y="906"/>
      <point x="600" y="906" type="curve" smooth="yes"/>
      <point x="676" y="906"/>
      <point x="737" y="969"/>
      <point x="737" y="1045" type="curve" smooth="yes"/>
      <point x="737" y="1121"/>
      <point x="676" y="1184"/>
      <point x="600" y="1184" type="curve" smooth="yes"/>
      <point x="524" y="1184"/>
      <point x="458" y="1121"/>
    </contour>
    <contour>
      <point x="155" y="650" type="line"/>
      <point x="1045" y="650" type="line"/>
      <point x="1045" y="800" type="line"/>
      <point x="155" y="800" type="line"/>
    </contour>
  </outline>
</glyph>
<glyph name="LtnSmOStrk" format="1">
  <advance width="1140"/>
  <unicode hex="00F8"/>
  <outline>
    <contour>
      <point x="95" y="507" type="curve" smooth="yes" name="hr00"/>
      <point x="95" y="163"/>
      <point x="286" y="-25"/>
      <point x="560" y="-25" type="curve" smooth="yes"/>
      <point x="823" y="-25"/>
      <point x="1045" y="163"/>
      <point x="1045" y="507" type="curve" smooth="yes"/>
      <point x="1045" y="851"/>
      <point x="855" y="1040"/>
      <point x="580" y="1040" type="curve" smooth="yes"/>
      <point x="317" y="1040"/>
      <point x="95" y="851"/>
    </contour>
    <contour>
      <point x="280" y="507" type="curve" smooth="yes"/>
      <point x="280" y="741"/>
      <point x="408" y="880"/>
      <point x="570" y="880" type="curve" smooth="yes"/>
      <point x="742" y="880"/>
      <point x="860" y="741"/>
      <point x="860" y="507" type="curve" smooth="yes"/>
      <point x="860" y="274"/>
      <point x="731" y="135"/>
      <point x="570" y="135" type="curve" smooth="yes"/>
      <point x="398" y="135"/>
      <point x="280" y="274"/>
    </contour>
    <contour>
      <point x="802" y="1105" type="line"/>
      <point x="165" y="-75" type="line"/>
      <point x="313" y="-75" type="line"/>
      <point x="948" y="1105" type="line"/>
    </contour>
    <contour>
      <point x="570" y="0" type="move" name="H"/>
    </contour>
    <contour>
      <point x="570" y="-100" type="move" name="L"/>
    </contour>
    <contour>
      <point x="839" y="0" type="move" name="O"/>
    </contour>
    <contour>
      <point x="1140" y="1000" type="move" name="R"/>
    </contour>
    <contour>
      <point x="570" y="1100" type="move" name="U"/>
    </contour>
  </outline>
</glyph>
<glyph name="LtnSmUGrave" format="1">
  <advance width="1185"/>
  <unicode hex="00F9"/>
  <outline>
    <component base="LtnSmU"/>
    <component base="CombGrave" xOffset="1139"/>
    <contour>
      <point x="589" y="0" type="move" name="H"/>
    </contour>
    <contour>
      <point x="589" y="-100" type="move" name="L"/>
    </contour>
    <contour>
      <point x="1192" y="0" type="move" name="O"/>
    </contour>
    <contour>
      <point x="1185" y="1000" type="move" name="R"/>
    </contour>
    <contour>
      <point x="589" y="1635" type="move" name="U"/>
    </contour>
  </outline>
</glyph>
<glyph name="LtnSmUDiaer" format="1">
  <advance width="1185"/>
  <unicode hex="00FC"/>
  <outline>
    <component base="LtnSmU"/>
    <component base="CombDiaer" xOffset="1159"/>
    <contour>
      <point x="589" y="0" type="move" name="H"/>
    </contour>
    <contour>
      <point x="589" y="-100" type="move" name="L"/>
    </contour>
    <contour>
      <point x="1192" y="0" type="move" name="O"/>
    </contour>
    <contour>
      <point x="1185" y="1000" type="move" name="R"/>
    </contour>
    <contour>
      <point x="589" y="1505" type="move" name="U"/>
    </contour>
  </outline>
</glyph>
<glyph name="LtnSmYAcute" format="1">
  <advance width="1060"/>
  <unicode hex="00FD"/>
  <outline>
    <component base="LtnSmY"/>
    <component base="CombAcute" xOffset="1105"/>
    <contour>
      <point x="795" y="-100" type="move" name="L"/>
    </contour>
    <contour>
      <point x="1120" y="1000" type="move" name="R"/>
    </contour>
    <contour>
      <point x="535" y="1635" type="move" name="U"/>
    </contour>
  </outline>
</glyph>
<glyph name="LtnSmThorn" format="2">
  <advance width="1170"/>
  <unicode hex="00FE"/>
  <anchor x="590" y="-500" name="L"/>
  <anchor x="620" y="1635" name="U"/>
  <outline>
    <contour>
      <point x="135" y="1600" type="line"/>
      <point x="148" y="1485"/>
      <point x="155" y="1324"/>
      <point x="155" y="1130" type="curve" smooth="yes"/>
      <point x="155" y="-490" type="line"/>
      <point x="365" y="-490" type="line"/>
      <point x="348" y="-405"/>
      <point x="340" y="-310"/>
      <point x="340" y="-150" type="curve" smooth="yes"/>
      <point x="340" y="-64"/>
      <point x="340" y="-31"/>
      <point x="340" y="85" type="curve"/>
      <point x="435" y="18"/>
      <point x="513" y="-25"/>
      <point x="620" y="-25" type="curve" smooth="yes"/>
      <point x="871" y="-25"/>
      <point x="1075" y="193"/>
      <point x="1075" y="535" type="curve" smooth="yes"/>
      <point x="1075" y="828"/>
      <point x="923" y="1040"/>
      <point x="695" y="1040" type="curve" smooth="yes"/>
      <point x="547" y="1040"/>
      <point x="417" y="948"/>
      <point x="340" y="849" type="curve"/>
      <point x="340" y="1600" type="line"/>
    </contour>
    <contour>
      <point x="340" y="575" type="line"/>
      <point x="414" y="768"/>
      <point x="545" y="870"/>
      <point x="660" y="870" type="curve" smooth="yes"/>
      <point x="804" y="870"/>
      <point x="890" y="727"/>
      <point x="890" y="505" type="curve" smooth="yes"/>
      <point x="890" y="279"/>
      <point x="761" y="140"/>
      <point x="620" y="140" type="curve" smooth="yes"/>
      <point x="528" y="140"/>
      <point x="477" y="164"/>
      <point x="340" y="260" type="curve"/>
    </contour>
  </outline>
</glyph>
<glyph name="LtnSmYDiaer" format="1">
  <advance width="1060"/>
  <unicode hex="00FF"/>
  <outline>
    <component base="LtnSmY"/>
    <component base="CombDiaer" xOffset="1105"/>
    <contour>
      <point x="795" y="-100" type="move" name="L"/>
    </contour>
    <contour>
      <point x="1120" y="1000" type="move" name="R"/>
    </contour>
    <contour>
      <point x="535" y="1505" type="move" name="U"/>
    </contour>
  </outline>
</glyph>
<glyph name="LtnSmAMacron.SngStory" format="1">
  <advance width="1150"/>
  <unicode hex="0101"/>
  <outline>
    <component base="LtnSmAlpha"/>
    <component base="CombMacron" xOffset="1165"/>
    <contour>
      <point x="548" y="0" type="move" name="H"/>
    </contour>
    <contour>
      <point x="595" y="-100" type="move" name="L"/>
    </contour>
    <contour>
      <point x="1160" y="0" type="move" name="O"/>
    </contour>
    <contour>
      <point x="1150" y="1000" type="move" name="R"/>
    </contour>
    <contour>
      <point x="595" y="1450" type="move" name="U"/>
    </contour>
  </outline>
</glyph>
<glyph name="LtnSmABreve.SngStory" format="1">
  <advance width="1150"/>
  <unicode hex="0103"/>
  <outline>
    <component base="LtnSmAlpha"/>
    <component base="CombBreve" xOffset="1165"/>
    <contour>
      <point x="548" y="0" type="move" name="H"/>
    </contour>
    <contour>
      <point x="595" y="-100" type="move" name="L"/>
    </contour>
    <contour>
      <point x="1160" y="0" type="move" name="O"/>
    </contour>
    <contour>
      <point x="1150" y="1000" type="move" name="R"/>
    </contour>
    <contour>
      <point x="595" y="1635" type="move" name="U"/>
    </contour>
  </outline>
</glyph>
<glyph name="LtnCapAOgonek" format="1">
  <advance width="1395"/>
  <unicode hex="0104"/>
  <outline>
    <component base="LtnCapA"/>
    <component base="CombOgonek" xOffset="1755"/>
    <contour>
      <point x="707" y="0" type="move" name="H"/>
    </contour>
    <contour>
      <point x="1340" y="-430" type="move" name="L"/>
    </contour>
    <contour>
      <point x="687" y="1530" type="move" name="U"/>
    </contour>
  </outline>
</glyph>
<glyph name="LtnSmAOgonek.SngStory" format="1">
  <advance width="1150"/>
  <unicode hex="0105"/>
  <outline>
    <component base="LtnSmAlpha"/>
    <component base="CombOgonek" xOffset="1465"/>
    <contour>
      <point x="548" y="0" type="move" name="H"/>
    </contour>
    <contour>
      <point x="1050" y="-430" type="move" name="L"/>
    </contour>
    <contour>
      <point x="1150" y="1000" type="move" name="R"/>
    </contour>
    <contour>
      <point x="595" y="1100" type="move" name="U"/>
    </contour>
  </outline>
</glyph>
<glyph name="LtnCapCAcute" format="1">
  <advance width="1355"/>
  <unicode hex="0106"/>
  <outline>
    <component base="LtnCapC"/>
    <component base="CombAcute" xOffset="1320" yOffset="430"/>
    <contour>
      <point x="750" y="0" type="move" name="H"/>
    </contour>
    <contour>
      <point x="750" y="-100" type="move" name="L"/>
    </contour>
    <contour>
      <point x="750" y="2065" type="move" name="U"/>
    </contour>
  </outline>
</glyph>
<glyph name="LtnSmCAcute" format="1">
  <advance width="1020"/>
  <unicode hex="0107"/>
  <outline>
    <component base="LtnSmC"/>
    <component base="CombAcute" xOffset="1140"/>
    <contour>
      <point x="580" y="0" type="move" name="H"/>
    </contour>
    <contour>
      <point x="580" y="-100" type="move" name="L"/>
    </contour>
    <contour>
      <point x="1020" y="1000" type="move" name="R"/>
    </contour>
    <contour>
      <point x="570" y="1635" type="move" name="U"/>
    </contour>
  </outline>
</glyph>
<glyph name="LtnSmCCircum" format="1">
  <advance width="1020"/>
  <unicode hex="0109"/>
  <outline>
    <component base="LtnSmC"/>
    <component base="CombCircum" xOffset="1140"/>
    <contour>
      <point x="580" y="0" type="move" name="H"/>
    </contour>
    <contour>
      <point x="580" y="-100" type="move" name="L"/>
    </contour>
    <contour>
      <point x="1020" y="1000" type="move" name="R"/>
    </contour>
    <contour>
      <point x="570" y="1635" type="move" name="U"/>
    </contour>
  </outline>
</glyph>
<glyph name="LtnCapCDotAbv" format="1">
  <advance width="1355"/>
  <unicode hex="010A"/>
  <outline>
    <component base="LtnCapC"/>
    <component base="DotAbv" xOffset="615" yOffset="430"/>
    <contour>
      <point x="750" y="0" type="move" name="H"/>
    </contour>
    <contour>
      <point x="750" y="-100" type="move" name="L"/>
    </contour>
    <contour>
      <point x="750" y="1935" type="move" name="U"/>
    </contour>
  </outline>
</glyph>
<glyph name="LtnSmDCaron" format="2">
  <advance width="1390"/>
  <unicode hex="010F"/>
  <anchor x="605" y="0" name="H"/>
  <anchor x="605" y="-100" name="L"/>
  <anchor x="605" y="1635" name="U"/>
  <outline>
    <contour>
      <point x="1035" y="1600" type="line"/>
      <point x="825" y="1600" type="line"/>
      <point x="844" y="1516"/>
      <point x="850" y="1395"/>
      <point x="850" y="1235" type="curve" smooth="yes"/>
      <point x="850" y="955" type="line"/>
      <point x="772" y="999"/>
      <point x="670" y="1040"/>
      <point x="585" y="1040" type="curve" smooth="yes"/>
      <point x="317" y="1040"/>
      <point x="110" y="814"/>
      <point x="110" y="460" type="curve" smooth="yes"/>
      <point x="110" y="167"/>
      <point x="266" y="-25"/>
      <point x="510" y="-25" type="curve" smooth="yes"/>
      <point x="657" y="-25"/>
      <point x="780" y="50"/>
      <point x="875" y="185" type="curve"/>
      <point x="892" y="111"/>
      <point x="915" y="34"/>
      <point x="930" y="0" type="curve"/>
      <point x="1110" y="0" type="line"/>
      <point x="1067" y="112"/>
      <point x="1035" y="278"/>
      <point x="1035" y="530" type="curve" smooth="yes"/>
    </contour>
    <contour>
      <point x="585" y="870" type="curve" smooth="yes"/>
      <point x="686" y="870"/>
      <point x="751" y="848"/>
      <point x="850" y="795" type="curve"/>
      <point x="850" y="400" type="line"/>
      <point x="795" y="268"/>
      <point x="667" y="135"/>
      <point x="545" y="135" type="curve" smooth="yes"/>
      <point x="371" y="135"/>
      <point x="295" y="258"/>
      <point x="295" y="490" type="curve" smooth="yes"/>
      <point x="295" y="727"/>
      <point x="434" y="870"/>
    </contour>
    <contour>
      <point x="1205" y="1600" type="line"/>
      <point x="1140" y="1170" type="line"/>
      <point x="1260" y="1170" type="line"/>
      <point x="1390" y="1600" type="line"/>
    </contour>
  </outline>
</glyph>
<glyph name="LtnSmEDotAbv" format="1">
  <advance width="1095"/>
  <unicode hex="0117"/>
  <outline>
    <component base="LtnSmE"/>
    <component base="DotAbv" xOffset="435"/>
    <contour>
      <point x="545" y="0" type="move" name="H"/>
    </contour>
    <contour>
      <point x="570" y="-100" type="move" name="L"/>
    </contour>
    <contour>
      <point x="925" y="0" type="move" name="O"/>
    </contour>
    <contour>
      <point x="1095" y="1000" type="move" name="R"/>
    </contour>
    <contour>
      <point x="570" y="1505" type="move" name="U"/>
    </contour>
  </outline>
</glyph>
<glyph name="LtnCapEOgonek" format="1">
  <advance width="1160"/>
  <unicode hex="0118"/>
  <outline>
    <component base="LtnCapE"/>
    <component base="CombOgonek" xOffset="1222"/>
    <contour>
      <point x="600" y="0" type="move" name="H"/>
    </contour>
    <contour>
      <point x="807" y="-430" type="move" name="L"/>
    </contour>
    <contour>
      <point x="1160" y="1200" type="move" name="R"/>
    </contour>
    <contour>
      <point x="600" y="1530" type="move" name="U"/>
    </contour>
  </outline>
</glyph>
<glyph name="LtnSmEOgonek" format="2">
  <advance width="1095"/>
  <unicode hex="0119"/>
  <anchor x="571" y="-500" name="L"/>
  <anchor x="565" y="1100" name="U"/>
  <outline>
    <contour>
      <point x="989" y="485" type="line"/>
      <point x="990" y="503"/>
      <point x="990" y="545"/>
      <point x="990" y="563" type="curve" smooth="yes"/>
      <point x="990" y="788"/>
      <point x="905" y="1040"/>
      <point x="575" y="1040" type="curve" smooth="yes"/>
      <point x="279" y="1040"/>
      <point x="95" y="826"/>
      <point x="95" y="495" type="curve" smooth="yes"/>
      <point x="95" y="155"/>
      <point x="320" y="-25"/>
      <point x="575" y="-25" type="curve" smooth="yes"/>
      <point x="729" y="-25"/>
      <point x="839" y="2"/>
      <point x="995" y="75" type="curve"/>
      <point x="975" y="240" type="line"/>
      <point x="853" y="166"/>
      <point x="729" y="140"/>
      <point x="600" y="140" type="curve" smooth="yes"/>
      <point x="414" y="140"/>
      <point x="280" y="258"/>
      <point x="280" y="505" type="curve" smooth="yes"/>
      <point x="280" y="770"/>
      <point x="385" y="890"/>
      <point x="560" y="890" type="curve" smooth="yes"/>
      <point x="705" y="890"/>
      <point x="810" y="797"/>
      <point x="810" y="625" type="curve"/>
      <point x="245" y="625" type="line"/>
      <point x="245" y="485" type="line"/>
    </contour>
    <contour>
      <point x="720" y="2" type="line"/>
      <point x="616" y="-48"/>
      <point x="560" y="-121"/>
      <point x="560" y="-225" type="curve" smooth="yes"/>
      <point x="560" y="-345"/>
      <point x="673" y="-430"/>
      <point x="790" y="-430" type="curve" smooth="yes"/>
      <point x="864" y="-430"/>
      <point x="937" y="-398"/>
      <point x="995" y="-340" type="curve"/>
      <point x="965" y="-240" type="line"/>
      <point x="928" y="-284"/>
      <point x="853" y="-315"/>
      <point x="810" y="-315" type="curve" smooth="yes"/>
      <point x="741" y="-315"/>
      <point x="700" y="-270"/>
      <point x="700" y="-195" type="curve" smooth="yes"/>
      <point x="700" y="-105"/>
      <point x="825" y="2"/>
      <point x="995" y="75" type="curve"/>
    </contour>
  </outline>
</glyph>
<glyph name="LtnCapGCircum" format="1">
  <advance width="1420"/>
  <unicode hex="011C"/>
  <outline>
    <component base="LtnCapG"/>
    <component base="CombCircum" xOffset="1315" yOffset="430"/>
    <contour>
      <point x="745" y="0" type="move" name="H"/>
    </contour>
    <contour>
      <point x="745" y="-100" type="move" name="L"/>
    </contour>
    <contour>
      <point x="745" y="2065" type="move" name="U"/>
    </contour>
  </outline>
</glyph>
<glyph name="LtnSmGBreve.SngBowl" format="1">
  <advance width="1125"/>
  <unicode hex="011F"/>
  <outline>
    <component base="LtnSmG.SngBowl"/>
    <component base="CombBreve" xOffset="1165"/>
    <contour>
      <point x="555" y="-432" type="move" name="H"/>
    </contour>
    <contour>
      <point x="555" y="-500" type="move" name="L"/>
    </contour>
    <contour>
      <point x="1125" y="1000" type="move" name="R"/>
    </contour>
    <contour>
      <point x="595" y="1635" type="move" name="U"/>
    </contour>
  </outline>
</glyph>
<glyph name="LtnCapGCedilla" format="1">
  <advance width="1420"/>
  <unicode hex="0122"/>
  <outline>
    <component base="LtnCapG"/>
    <component base="CombCommaBlw" xOffset="1312"/>
    <contour>
      <point x="745" y="0" type="move" name="H"/>
    </contour>
    <contour>
      <point x="745" y="-500" type="move" name="L"/>
    </contour>
    <contour>
      <point x="745" y="1530" type="move" name="U"/>
    </contour>
  </outline>
</glyph>
<glyph name="LtnCapHCircum" format="1">
  <advance width="1475"/>
  <unicode hex="0124"/>
  <outline>
    <component base="LtnCapH"/>
    <component base="CombCircum" xOffset="1295" yOffset="430"/>
    <contour>
      <point x="285" y="0" type="move" name="H"/>
    </contour>
    <contour>
      <point x="725" y="-100" type="move" name="L"/>
    </contour>
    <contour>
      <point x="725" y="2065" type="move" name="U"/>
    </contour>
  </outline>
</glyph>
<glyph name="LtnSmHCircum" format="1">
  <advance width="1175"/>
  <unicode hex="0125"/>
  <outline>
    <contour>
      <point x="1040" y="0" type="line"/>
      <point x="1040" y="0"/>
      <point x="1040" y="459"/>
      <point x="1040" y="625" type="curve" smooth="yes"/>
      <point x="1040" y="900"/>
      <point x="923" y="1040"/>
      <point x="710" y="1040" type="curve" smooth="yes"/>
      <point x="570" y="1040"/>
      <point x="428" y="969"/>
      <point x="330" y="830" type="curve"/>
      <point x="330" y="877"/>
      <point x="330" y="1600"/>
      <point x="330" y="1600" type="curve"/>
      <point x="130" y="1600" type="line"/>
      <point x="145" y="1514"/>
      <point x="145" y="1345"/>
      <point x="145" y="1130" type="curve" smooth="yes"/>
      <point x="145" y="935"/>
      <point x="145" y="0"/>
      <point x="145" y="0" type="curve"/>
      <point x="330" y="0" type="line"/>
      <point x="330" y="580" type="line"/>
      <point x="374" y="716"/>
      <point x="511" y="865"/>
      <point x="655" y="865" type="curve" smooth="yes"/>
      <point x="789" y="865"/>
      <point x="855" y="800"/>
      <point x="855" y="550" type="curve" smooth="yes"/>
      <point x="855" y="413"/>
      <point x="855" y="0"/>
      <point x="855" y="0" type="curve"/>
    </contour>
    <contour>
      <point x="-35" y="1705" type="line" name="hr01"/>
      <point x="240" y="1985" type="line" name="hr03"/>
      <point x="515" y="1705" type="line"/>
      <point x="665" y="1705" type="line"/>
      <point x="325" y="2135" type="line"/>
      <point x="155" y="2135" type="line"/>
      <point x="-185" y="1705" type="line"/>
    </contour>
    <contour>
      <point x="250" y="0" type="move" name="H"/>
    </contour>
    <contour>
      <point x="585" y="-100" type="move" name="L"/>
    </contour>
    <contour>
      <point x="239" y="2170" type="move" name="U"/>
    </contour>
  </outline>
</glyph>
<glyph name="LtnCapHStrk" format="1">
  <advance width="1550"/>
  <unicode hex="0126"/>
  <outline>
    <contour>
      <point x="1135" y="1460" type="line" name="hr01"/>
      <point x="1135" y="835" type="line"/>
      <point x="415" y="835" type="line"/>
      <point x="415" y="1460" type="line"/>
      <point x="210" y="1460" type="line"/>
      <point x="225" y="1380"/>
      <point x="225" y="1222"/>
      <point x="225" y="1025" type="curve" smooth="yes"/>
      <point x="225" y="435" type="line" smooth="yes"/>
      <point x="225" y="238"/>
      <point x="225" y="80"/>
      <point x="210" y="0" type="curve"/>
      <point x="210" y="0"/>
      <point x="415" y="0"/>
      <point x="415" y="0" type="curve"/>
      <point x="415" y="675" type="line"/>
      <point x="1135" y="675" type="line"/>
      <point x="1135" y="0" type="line"/>
      <point x="1135" y="0"/>
      <point x="1340" y="0"/>
      <point x="1340" y="0" type="curve"/>
      <point x="1325" y="80"/>
      <point x="1325" y="238"/>
      <point x="1325" y="435" type="curve" smooth="yes"/>
      <point x="1325" y="1025" type="line" smooth="yes"/>
      <point x="1325" y="1222"/>
      <point x="1325" y="1380"/>
      <point x="1340" y="1460" type="curve"/>
    </contour>
    <contour>
      <point x="55" y="1080" type="line" name="hr02"/>
      <point x="1495" y="1080" type="line"/>
      <point x="1495" y="1225" type="line"/>
      <point x="55" y="1225" type="line"/>
    </contour>
    <contour>
      <point x="775" y="-100" type="move" name="L"/>
    </contour>
    <contour>
      <point x="775" y="1530" type="move" name="U"/>
    </contour>
  </outline>
</glyph>
<glyph name="LtnSmHStrk" format="1">
  <advance width="1190"/>
  <unicode hex="0127"/>
  <outline>
    <contour>
      <point x="-20" y="1175" type="line" name="hr01"/>
      <point x="690" y="1175" type="line"/>
      <point x="690" y="1310" type="line"/>
      <point x="-20" y="1310" type="line"/>
    </contour>
    <contour>
      <point x="1055" y="0" type="line"/>
      <point x="1055" y="0"/>
      <point x="1055" y="459"/>
      <point x="1055" y="625" type="curve" smooth="yes"/>
      <point x="1055" y="900"/>
      <point x="938" y="1040"/>
      <point x="725" y="1040" type="curve" smooth="yes"/>
      <point x="585" y="1040"/>
      <point x="443" y="969"/>
      <point x="345" y="830" type="curve"/>
      <point x="345" y="877"/>
      <point x="345" y="1600"/>
      <point x="345" y="1600" type="curve" name="hr02"/>
      <point x="145" y="1600" type="line"/>
      <point x="160" y="1514"/>
      <point x="160" y="1345"/>
      <point x="160" y="1130" type="curve" smooth="yes"/>
      <point x="160" y="935"/>
      <point x="160" y="0"/>
      <point x="160" y="0" type="curve"/>
      <point x="345" y="0" type="line"/>
      <point x="345" y="580" type="line"/>
      <point x="389" y="716"/>
      <point x="526" y="865"/>
      <point x="670" y="865" type="curve" smooth="yes"/>
      <point x="804" y="865"/>
      <point x="870" y="800"/>
      <point x="870" y="550" type="curve" smooth="yes"/>
      <point x="870" y="413"/>
      <point x="870" y="0"/>
      <point x="870" y="0" type="curve"/>
    </contour>
    <contour>
      <point x="600" y="-100" type="move" name="L"/>
    </contour>
    <contour>
      <point x="600" y="1635" type="move" name="U"/>
    </contour>
  </outline>
</glyph>
<glyph name="LtnCapIMacron" format="1">
  <advance width="975"/>
  <unicode hex="012A"/>
  <outline>
    <component base="LtnCapI"/>
    <component base="CombMacron.Short" xOffset="937" yOffset="430"/>
    <contour>
      <point x="477" y="0" type="move" name="H"/>
    </contour>
    <contour>
      <point x="477" y="-100" type="move" name="L"/>
    </contour>
    <contour>
      <point x="673" y="0" type="move" name="O"/>
    </contour>
    <contour>
      <point x="975" y="1200" type="move" name="R"/>
    </contour>
    <contour>
      <point x="477" y="1880" type="move" name="U"/>
    </contour>
  </outline>
</glyph>
<glyph name="LtnCapIOgonek" format="1">
  <advance width="975"/>
  <unicode hex="012E"/>
  <outline>
    <component base="LtnCapI"/>
    <component base="CombOgonek" xOffset="978"/>
    <contour>
      <point x="477" y="0" type="move" name="H"/>
    </contour>
    <contour>
      <point x="563" y="-430" type="move" name="L"/>
    </contour>
    <contour>
      <point x="975" y="1200" type="move" name="R"/>
    </contour>
    <contour>
      <point x="477" y="1530" type="move" name="U"/>
    </contour>
  </outline>
</glyph>
<glyph name="LtnSmDotlessI" format="1">
  <advance width="565"/>
  <unicode hex="0131"/>
  <outline>
    <contour>
      <point x="375" y="1020" type="line" name="hr00"/>
      <point x="175" y="1020" type="line"/>
      <point x="188" y="915"/>
      <point x="190" y="725"/>
      <point x="190" y="530" type="curve" smooth="yes"/>
      <point x="190" y="336"/>
      <point x="190" y="0"/>
      <point x="190" y="0" type="curve"/>
      <point x="395" y="0" type="line"/>
      <point x="382" y="107"/>
      <point x="375" y="346"/>
      <point x="375" y="475" type="curve" smooth="yes"/>
    </contour>
    <contour>
      <point x="285" y="0" type="move" name="H"/>
    </contour>
    <contour>
      <point x="285" y="-100" type="move" name="L"/>
    </contour>
    <contour>
      <point x="520" y="0" type="move" name="O"/>
    </contour>
    <contour>
      <point x="550" y="1000" type="move" name="R"/>
    </contour>
    <contour>
      <point x="285" y="1100" type="move" name="U"/>
    </contour>
  </outline>
</glyph>
<glyph name="LtnSmLigIj" format="1">
  <advance width="1160"/>
  <unicode hex="0133"/>
  <outline>
    <component base="LtnSmI"/>
    <component base="LtnSmJ" xOffset="565"/>
    <contour>
      <point x="282" y="0" type="move" name="H"/>
    </contour>
    <contour>
      <point x="690" y="-500" type="move" name="L"/>
    </contour>
    <contour>
      <point x="500" y="0" type="move" name="O"/>
    </contour>
    <contour>
      <point x="580" y="1505" type="move" name="U"/>
    </contour>
  </outline>
</glyph>
<glyph name="LtnCapJCircum" format="1">
  <advance width="965"/>
  <unicode hex="0134"/>
  <outline>
    <component base="LtnCapJ"/>
    <component base="CombCircum" xOffset="1245" yOffset="430"/>
    <contour>
      <point x="410" y="-100" type="move" name="L"/>
    </contour>
    <contour>
      <point x="675" y="2065" type="move" name="U"/>
    </contour>
  </outline>
</glyph>
<glyph name="LtnCapKCedilla" format="1">
  <advance width="1310"/>
  <unicode hex="0136"/>
  <outline>
    <component base="LtnCapK"/>
    <component base="CombCommaBlw" xOffset="1262"/>
    <contour>
      <point x="270" y="0" type="move" name="H"/>
    </contour>
    <contour>
      <point x="695" y="-500" type="move" name="L"/>
    </contour>
    <contour>
      <point x="650" y="1530" type="move" name="U"/>
    </contour>
  </outline>
</glyph>
<glyph name="LtnSmKCedilla" format="1">
  <advance width="1035"/>
  <unicode hex="0137"/>
  <outline>
    <component base="LtnSmK"/>
    <component base="CombCommaBlw" xOffset="1139"/>
    <contour>
      <point x="243" y="0" type="move" name="H"/>
    </contour>
    <contour>
      <point x="572" y="-500" type="move" name="L"/>
    </contour>
    <contour>
      <point x="1035" y="1000" type="move" name="R"/>
    </contour>
    <contour>
      <point x="572" y="1635" type="move" name="U"/>
    </contour>
  </outline>
</glyph>
<glyph name="LtnSmLAcute" format="1">
  <advance width="565"/>
  <unicode hex="013A"/>
  <outline>
    <component base="LtnSmL"/>
    <component base="CombAcute" xOffset="855" yOffset="535"/>
    <contour>
      <point x="290" y="0" type="move" name="H"/>
    </contour>
    <contour>
      <point x="290" y="-100" type="move" name="L"/>
    </contour>
    <contour>
      <point x="550" y="1000" type="move" name="R"/>
    </contour>
    <contour>
      <point x="285" y="2170" type="move" name="U"/>
    </contour>
  </outline>
</glyph>
<glyph name="LtnCapLCedilla" format="1">
  <advance width="1080"/>
  <unicode hex="013B"/>
  <outline>
    <component base="LtnCapL"/>
    <component base="CombCommaBlw" xOffset="1159"/>
    <contour>
      <point x="592" y="0" type="move" name="H"/>
    </contour>
    <contour>
      <point x="592" y="-500" type="move" name="L"/>
    </contour>
    <contour>
      <point x="540" y="1200" type="move" name="R"/>
    </contour>
    <contour>
      <point x="592" y="1530" type="move" name="U"/>
    </contour>
  </outline>
</glyph>
<glyph name="LtnSmLCedilla" format="1">
  <advance width="565"/>
  <unicode hex="013C"/>
  <outline>
    <component base="LtnSmL"/>
    <component base="CombCommaBlw" xOffset="857"/>
    <contour>
      <point x="290" y="0" type="move" name="H"/>
    </contour>
    <contour>
      <point x="290" y="-500" type="move" name="L"/>
    </contour>
    <contour>
      <point x="550" y="1000" type="move" name="R"/>
    </contour>
    <contour>
      <point x="285" y="1635" type="move" name="U"/>
    </contour>
  </outline>
</glyph>
<glyph name="LtnCapLMiddleDot" format="1">
  <advance width="1353"/>
  <unicode hex="013F"/>
  <outline>
    <contour>
      <point x="1025" y="710" type="curve" smooth="yes" name="hr00"/>
      <point x="1025" y="636"/>
      <point x="1086" y="575"/>
      <point x="1160" y="575" type="curve" smooth="yes"/>
      <point x="1234" y="575"/>
      <point x="1293" y="636"/>
      <point x="1293" y="710" type="curve" smooth="yes"/>
      <point x="1293" y="784"/>
      <point x="1234" y="845"/>
      <point x="1160" y="845" type="curve" smooth="yes"/>
      <point x="1086" y="845"/>
      <point x="1025" y="784"/>
    </contour>
    <contour>
      <point x="365" y="165" type="line"/>
      <point x="365" y="1460" type="line"/>
      <point x="160" y="1460" type="line"/>
      <point x="175" y="1380"/>
      <point x="175" y="1222"/>
      <point x="175" y="1025" type="curve" smooth="yes"/>
      <point x="175" y="435" type="line" smooth="yes"/>
      <point x="175" y="238"/>
      <point x="175" y="80"/>
      <point x="160" y="0" type="curve"/>
      <point x="1025" y="0" type="line"/>
      <point x="1025" y="180" type="line"/>
      <point x="945" y="166"/>
      <point x="786" y="165"/>
      <point x="589" y="165" type="curve" smooth="yes"/>
    </contour>
    <contour>
      <point x="592" y="0" type="move" name="H"/>
    </contour>
    <contour>
      <point x="598" y="-100" type="move" name="L"/>
    </contour>
    <contour>
      <point x="592" y="1530" type="move" name="U"/>
    </contour>
  </outline>
</glyph>
<glyph name="LtnSmLMiddleDot" format="1">
  <advance width="934"/>
  <unicode hex="0140"/>
  <outline>
    <contour>
      <point x="375" y="1600" type="line" name="hr00"/>
      <point x="170" y="1600" type="line"/>
      <point x="183" y="1485"/>
      <point x="190" y="1324"/>
      <point x="190" y="1130" type="curve" smooth="yes"/>
      <point x="190" y="0" type="line"/>
      <point x="395" y="0" type="line"/>
      <point x="382" y="109"/>
      <point x="375" y="346"/>
      <point x="375" y="475" type="curve" smooth="yes"/>
    </contour>
    <contour>
      <point x="605" y="710" type="curve" smooth="yes"/>
      <point x="605" y="636"/>
      <point x="666" y="575"/>
      <point x="740" y="575" type="curve" smooth="yes"/>
      <point x="814" y="575"/>
      <point x="873" y="636"/>
      <point x="873" y="710" type="curve" smooth="yes"/>
      <point x="873" y="784"/>
      <point x="814" y="845"/>
      <point x="740" y="845" type="curve" smooth="yes"/>
      <point x="666" y="845"/>
      <point x="605" y="784"/>
    </contour>
    <contour>
      <point x="290" y="0" type="move" name="H"/>
    </contour>
    <contour>
      <point x="290" y="-100" type="move" name="L"/>
    </contour>
    <contour>
      <point x="290" y="1635" type="move" name="U"/>
    </contour>
  </outline>
</glyph>
<glyph name="LtnCapLStrk" format="1">
  <advance width="1130"/>
  <unicode hex="0141"/>
  <outline>
    <contour>
      <point x="415" y="165" type="line" name="hr00"/>
      <point x="415" y="1460" type="line"/>
      <point x="210" y="1460" type="line"/>
      <point x="225" y="1380"/>
      <point x="225" y="1222"/>
      <point x="225" y="1025" type="curve" smooth="yes"/>
      <point x="225" y="435" type="line" smooth="yes"/>
      <point x="225" y="238"/>
      <point x="225" y="80"/>
      <point x="210" y="0" type="curve"/>
      <point x="1075" y="0" type="line"/>
      <point x="1075" y="180" type="line"/>
      <point x="995" y="166"/>
      <point x="836" y="165"/>
      <point x="639" y="165" type="curve" smooth="yes"/>
    </contour>
    <contour>
      <point x="790" y="915" type="line"/>
      <point x="730" y="1060" type="line"/>
      <point x="50" y="635" type="line"/>
      <point x="110" y="490" type="line"/>
    </contour>
    <contour>
      <point x="642" y="-100" type="move" name="L"/>
    </contour>
    <contour>
      <point x="642" y="1530" type="move" name="U"/>
    </contour>
  </outline>
</glyph>
<glyph name="LtnSmLStrk" format="1">
  <advance width="860"/>
  <unicode hex="0142"/>
  <outline>
    <contour>
      <point x="525" y="1600" type="line" name="hr00"/>
      <point x="320" y="1600" type="line"/>
      <point x="333" y="1485"/>
      <point x="340" y="1324"/>
      <point x="340" y="1130" type="curve" smooth="yes"/>
      <point x="340" y="0" type="line"/>
      <point x="545" y="0" type="line"/>
      <point x="532" y="109"/>
      <point x="525" y="346"/>
      <point x="525" y="475" type="curve" smooth="yes"/>
    </contour>
    <contour>
      <point x="765" y="930" type="line"/>
      <point x="700" y="1070" type="line"/>
      <point x="100" y="655" type="line"/>
      <point x="165" y="515" type="line"/>
    </contour>
    <contour>
      <point x="432" y="-100" type="move" name="L"/>
    </contour>
    <contour>
      <point x="432" y="1635" type="move" name="U"/>
    </contour>
  </outline>
</glyph>
<glyph name="LtnSmNAcute" format="1">
  <advance width="1185"/>
  <unicode hex="0144"/>
  <outline>
    <component base="LtnSmN"/>
    <component base="CombAcute" xOffset="1170"/>
    <contour>
      <point x="970" y="0" type="move" name="H"/>
    </contour>
    <contour>
      <point x="600" y="-100" type="move" name="L"/>
    </contour>
    <contour>
      <point x="600" y="1635" type="move" name="U"/>
    </contour>
  </outline>
</glyph>
<glyph name="LtnCapNCedilla" format="1">
  <advance width="1500"/>
  <unicode hex="0145"/>
  <outline>
    <component base="LtnCapN"/>
    <component base="CombCommaBlw" xOffset="1304"/>
    <contour>
      <point x="1230" y="0" type="move" name="H"/>
    </contour>
    <contour>
      <point x="737" y="-500" type="move" name="L"/>
    </contour>
    <contour>
      <point x="737" y="1530" type="move" name="U"/>
    </contour>
  </outline>
</glyph>
<glyph name="LtnCapNCaron" format="1">
  <advance width="1500"/>
  <unicode hex="0147"/>
  <outline>
    <component base="LtnCapN"/>
    <component base="CombCaron" xOffset="1307" yOffset="430"/>
    <contour>
      <point x="1230" y="0" type="move" name="H"/>
    </contour>
    <contour>
      <point x="737" y="-100" type="move" name="L"/>
    </contour>
    <contour>
      <point x="737" y="2065" type="move" name="U"/>
    </contour>
  </outline>
</glyph>
<glyph name="LtnCapEng" format="2">
  <advance width="1460"/>
  <unicode hex="014A"/>
  <anchor x="740" y="-500" name="L"/>
  <anchor x="740" y="1530" name="U"/>
  <outline>
    <contour>
      <point x="135" y="1455" type="line"/>
      <point x="163" y="1356"/>
      <point x="200" y="1159"/>
      <point x="200" y="880" type="curve" smooth="yes"/>
      <point x="200" y="430" type="line" smooth="yes"/>
      <point x="200" y="233"/>
      <point x="200" y="80"/>
      <point x="185" y="0" type="curve"/>
      <point x="390" y="0" type="line"/>
      <point x="390" y="840" type="line"/>
      <point x="445" y="1034"/>
      <point x="624" y="1285"/>
      <point x="815" y="1285" type="curve" smooth="yes"/>
      <point x="1031" y="1285"/>
      <point x="1085" y="1142"/>
      <point x="1085" y="785" type="curve" smooth="yes"/>
      <point x="1085" y="80" type="line" smooth="yes"/>
      <point x="1085" y="-191"/>
      <point x="977" y="-300"/>
      <point x="870" y="-300" type="curve" smooth="yes"/>
      <point x="808" y="-300"/>
      <point x="748" y="-290"/>
      <point x="715" y="-265" type="curve"/>
      <point x="650" y="-420" type="line"/>
      <point x="682" y="-441"/>
      <point x="763" y="-470"/>
      <point x="845" y="-470" type="curve" smooth="yes"/>
      <point x="1110" y="-470"/>
      <point x="1275" y="-280"/>
      <point x="1275" y="145" type="curve" smooth="yes"/>
      <point x="1275" y="892" type="line" smooth="yes"/>
      <point x="1275" y="1284"/>
      <point x="1128" y="1485"/>
      <point x="880" y="1485" type="curve" smooth="yes"/>
      <point x="703" y="1485"/>
      <point x="530" y="1397"/>
      <point x="370" y="1180" type="curve"/>
      <point x="361" y="1249"/>
      <point x="339" y="1395"/>
      <point x="320" y="1455" type="curve"/>
    </contour>
  </outline>
</glyph>
<glyph name="LtnSmEng" format="1">
  <advance width="1185"/>
  <unicode hex="014B"/>
  <outline>
    <contour>
      <point x="105" y="1020" type="line" name="hr01"/>
      <point x="126" y="951"/>
      <point x="155" y="811"/>
      <point x="155" y="615" type="curve" smooth="yes"/>
      <point x="155" y="0" type="line"/>
      <point x="340" y="0" type="line"/>
      <point x="340" y="580" type="line"/>
      <point x="384" y="716"/>
      <point x="521" y="865"/>
      <point x="665" y="865" type="curve" smooth="yes" name="hr02"/>
      <point x="799" y="865"/>
      <point x="865" y="806"/>
      <point x="865" y="485" type="curve" smooth="yes"/>
      <point x="865" y="45" type="line" smooth="yes"/>
      <point x="865" y="-235"/>
      <point x="787" y="-305"/>
      <point x="660" y="-305" type="curve" smooth="yes"/>
      <point x="607" y="-305"/>
      <point x="550" y="-288"/>
      <point x="520" y="-265" type="curve"/>
      <point x="455" y="-415" type="line"/>
      <point x="510" y="-449"/>
      <point x="585" y="-470"/>
      <point x="645" y="-470" type="curve" smooth="yes"/>
      <point x="887" y="-470"/>
      <point x="1049" y="-340"/>
      <point x="1050" y="110" type="curve" smooth="yes"/>
      <point x="1050" y="560" type="line" smooth="yes"/>
      <point x="1050" y="905"/>
      <point x="933" y="1040"/>
      <point x="720" y="1040" type="curve" smooth="yes"/>
      <point x="580" y="1040"/>
      <point x="453" y="977"/>
      <point x="325" y="825" type="curve"/>
      <point x="318" y="873"/>
      <point x="300" y="978"/>
      <point x="285" y="1020" type="curve" name="hr03"/>
    </contour>
    <contour>
      <point x="605" y="-500" type="move" name="L"/>
    </contour>
    <contour>
      <point x="605" y="1100" type="move" name="U"/>
    </contour>
  </outline>
</glyph>
<glyph name="LtnCapOBreve" format="1">
  <advance width="1460"/>
  <unicode hex="014E"/>
  <outline>
    <component base="LtnCapO"/>
    <component base="CombBreve" xOffset="1287" yOffset="430"/>
    <contour>
      <point x="717" y="0" type="move" name="H"/>
    </contour>
    <contour>
      <point x="717" y="-100" type="move" name="L"/>
    </contour>
    <contour>
      <point x="994" y="0" type="move" name="O"/>
    </contour>
    <contour>
      <point x="1460" y="1200" type="move" name="R"/>
    </contour>
    <contour>
      <point x="717" y="2065" type="move" name="U"/>
    </contour>
  </outline>
</glyph>
<glyph name="LtnSmODblAcute" format="1">
  <advance width="1140"/>
  <unicode hex="0151"/>
  <outline>
    <component base="LtnSmO"/>
    <component base="DblAcuteAccent" xOffset="240"/>
    <contour>
      <point x="570" y="0" type="move" name="H"/>
    </contour>
    <contour>
      <point x="570" y="-100" type="move" name="L"/>
    </contour>
    <contour>
      <point x="835" y="0" type="move" name="O"/>
    </contour>
    <contour>
      <point x="1140" y="1000" type="move" name="R"/>
    </contour>
    <contour>
      <point x="570" y="1635" type="move" name="U"/>
    </contour>
  </outline>
</glyph>
<glyph name="LtnCapLigOe" format="1">
  <advance width="1950"/>
  <unicode hex="0152"/>
  <outline>
    <contour>
      <point x="1830" y="0" type="line" name="hr01"/>
      <point x="1830" y="180" type="line"/>
      <point x="1750" y="166"/>
      <point x="1616" y="165"/>
      <point x="1419" y="165" type="curve" smooth="yes"/>
      <point x="1255" y="165" type="line"/>
      <point x="1255" y="685" type="line"/>
      <point x="1725" y="685" type="line"/>
      <point x="1725" y="845" type="line"/>
      <point x="1255" y="845" type="line"/>
      <point x="1255" y="1295" type="line"/>
      <point x="1800" y="1295" type="line"/>
      <point x="1800" y="1460" type="line"/>
      <point x="1065" y="1460" type="line"/>
      <point x="1065" y="1296" type="line"/>
      <point x="976" y="1407"/>
      <point x="853" y="1485"/>
      <point x="690" y="1485" type="curve" smooth="yes" name="hr02"/>
      <point x="377" y="1485"/>
      <point x="95" y="1199"/>
      <point x="95" y="720" type="curve" smooth="yes"/>
      <point x="95" y="241"/>
      <point x="358" y="-25"/>
      <point x="670" y="-25" type="curve" smooth="yes"/>
      <point x="819" y="-25"/>
      <point x="960" y="50"/>
      <point x="1065" y="165" type="curve"/>
      <point x="1065" y="0" type="line" name="hr03"/>
    </contour>
    <contour>
      <point x="1075" y="715" type="curve" smooth="yes"/>
      <point x="1075" y="360"/>
      <point x="925" y="150"/>
      <point x="680" y="150" type="curve" smooth="yes" name="hr04"/>
      <point x="440" y="150"/>
      <point x="290" y="380"/>
      <point x="290" y="745" type="curve" smooth="yes"/>
      <point x="290" y="1091"/>
      <point x="447" y="1310"/>
      <point x="680" y="1310" type="curve" smooth="yes"/>
      <point x="934" y="1310"/>
      <point x="1075" y="1084"/>
    </contour>
    <contour>
      <point x="962" y="-100" type="move" name="L"/>
    </contour>
    <contour>
      <point x="962" y="1530" type="move" name="U"/>
    </contour>
  </outline>
</glyph>
<glyph name="LtnSmLigOe" format="1">
  <advance width="1860"/>
  <unicode hex="0153"/>
  <outline>
    <contour>
      <point x="95" y="507" type="curve" smooth="yes" name="hr01"/>
      <point x="95" y="163"/>
      <point x="286" y="-25"/>
      <point x="560" y="-25" type="curve" smooth="yes"/>
      <point x="718" y="-25"/>
      <point x="861" y="43"/>
      <point x="950" y="172" type="curve"/>
      <point x="1039" y="42"/>
      <point x="1184" y="-25"/>
      <point x="1340" y="-25" type="curve" smooth="yes"/>
      <point x="1494" y="-25"/>
      <point x="1618" y="2"/>
      <point x="1760" y="75" type="curve"/>
      <point x="1740" y="240" type="line" name="hr02"/>
      <point x="1618" y="166"/>
      <point x="1494" y="140"/>
      <point x="1365" y="140" type="curve" smooth="yes"/>
      <point x="1184" y="140"/>
      <point x="1052" y="251"/>
      <point x="1045" y="485" type="curve"/>
      <point x="1754" y="485" type="line"/>
      <point x="1755" y="503"/>
      <point x="1755" y="545"/>
      <point x="1755" y="563" type="curve" smooth="yes"/>
      <point x="1755" y="788"/>
      <point x="1670" y="1040"/>
      <point x="1340" y="1040" type="curve" smooth="yes"/>
      <point x="1171" y="1040"/>
      <point x="1039" y="970"/>
      <point x="956" y="849" type="curve"/>
      <point x="875" y="974"/>
      <point x="742" y="1040"/>
      <point x="580" y="1040" type="curve" smooth="yes"/>
      <point x="317" y="1040"/>
      <point x="95" y="851"/>
    </contour>
    <contour>
      <point x="280" y="507" type="curve" smooth="yes"/>
      <point x="280" y="741"/>
      <point x="408" y="880"/>
      <point x="570" y="880" type="curve" smooth="yes" name="hr04"/>
      <point x="742" y="880"/>
      <point x="860" y="741"/>
      <point x="860" y="507" type="curve" smooth="yes"/>
      <point x="860" y="274"/>
      <point x="731" y="135"/>
      <point x="570" y="135" type="curve" smooth="yes"/>
      <point x="398" y="135"/>
      <point x="280" y="274"/>
    </contour>
    <contour>
      <point x="1325" y="890" type="curve" smooth="yes"/>
      <point x="1470" y="890"/>
      <point x="1575" y="797"/>
      <point x="1575" y="625" type="curve"/>
      <point x="1053" y="625" type="line"/>
      <point x="1082" y="806"/>
      <point x="1179" y="890"/>
    </contour>
    <contour>
      <point x="989" y="0" type="move" name="H"/>
    </contour>
    <contour>
      <point x="955" y="-100" type="move" name="L"/>
    </contour>
    <contour>
      <point x="1683" y="0" type="move" name="O"/>
    </contour>
    <contour>
      <point x="1860" y="1000" type="move" name="R"/>
    </contour>
    <contour>
      <point x="955" y="1100" type="move" name="U"/>
    </contour>
  </outline>
</glyph>
<glyph name="LtnCapRAcute" format="1">
  <advance width="1305"/>
  <unicode hex="0154"/>
  <outline>
    <component base="LtnCapR"/>
    <component base="CombAcute" xOffset="1180" yOffset="430"/>
    <contour>
      <point x="285" y="0" type="move" name="H"/>
    </contour>
    <contour>
      <point x="610" y="-100" type="move" name="L"/>
    </contour>
    <contour>
      <point x="610" y="2065" type="move" name="U"/>
    </contour>
  </outline>
</glyph>
<glyph name="LtnSmRCedilla" format="1">
  <advance width="890"/>
  <unicode hex="0157"/>
  <outline>
    <component base="LtnSmR"/>
    <component base="CombCommaBlw" xOffset="822"/>
    <contour>
      <point x="270" y="0" type="move" name="H"/>
    </contour>
    <contour>
      <point x="255" y="-500" type="move" name="L"/>
    </contour>
    <contour>
      <point x="455" y="1100" type="move" name="U"/>
    </contour>
  </outline>
</glyph>
<glyph name="LtnSmRCaron" format="1">
  <advance width="890"/>
  <unicode hex="0159"/>
  <outline>
    <component base="LtnSmR"/>
    <component base="CombCaron" xOffset="1025"/>
    <contour>
      <point x="270" y="0" type="move" name="H"/>
    </contour>
    <contour>
      <point x="255" y="-100" type="move" name="L"/>
    </contour>
    <contour>
      <point x="455" y="1635" type="move" name="U"/>
    </contour>
  </outline>
</glyph>
<glyph name="LtnCapSAcute" format="1">
  <advance width="1175"/>
  <unicode hex="015A"/>
  <outline>
    <component base="LtnCapS"/>
    <component base="CombAcute" xOffset="1150" yOffset="430"/>
    <contour>
      <point x="580" y="0" type="move" name="H"/>
    </contour>
    <contour>
      <point x="580" y="-100" type="move" name="L"/>
    </contour>
    <contour>
      <point x="580" y="2065" type="move" name="U"/>
    </contour>
  </outline>
</glyph>
<glyph name="LtnCapSCircum" format="1">
  <advance width="1175"/>
  <unicode hex="015C"/>
  <outline>
    <component base="LtnCapS"/>
    <component base="CombCircum" xOffset="1150" yOffset="430"/>
    <contour>
      <point x="580" y="0" type="move" name="H"/>
    </contour>
    <contour>
      <point x="580" y="-100" type="move" name="L"/>
    </contour>
    <contour>
      <point x="580" y="2065" type="move" name="U"/>
    </contour>
  </outline>
</glyph>
<glyph name="LtnSmSCircum" format="1">
  <advance width="965"/>
  <unicode hex="015D"/>
  <outline>
    <component base="LtnSmS"/>
    <component base="CombCircum" xOffset="1065"/>
    <contour>
      <point x="495" y="0" type="move" name="H"/>
    </contour>
    <contour>
      <point x="495" y="-100" type="move" name="L"/>
    </contour>
    <contour>
      <point x="495" y="1635" type="move" name="U"/>
    </contour>
  </outline>
</glyph>
<glyph name="LtnCapSCedilla" format="1">
  <advance width="1175"/>
  <unicode hex="015E"/>
  <outline>
    <component base="LtnCapS"/>
    <component base="CombCedilla" xOffset="1150"/>
    <contour>
      <point x="540" y="-520" type="move" name="L"/>
    </contour>
    <contour>
      <point x="580" y="1530" type="move" name="U"/>
    </contour>
  </outline>
</glyph>
<glyph name="LtnSmSCedilla" format="1">
  <advance width="965"/>
  <unicode hex="015F"/>
  <outline>
    <component base="LtnSmS"/>
    <component base="CombCedilla" xOffset="1065"/>
    <contour>
      <point x="455" y="-520" type="move" name="L"/>
    </contour>
    <contour>
      <point x="495" y="1100" type="move" name="U"/>
    </contour>
  </outline>
</glyph>
<glyph name="LtnSmSCaron" format="1">
  <advance width="965"/>
  <unicode hex="0161"/>
  <outline>
    <component base="LtnSmS"/>
    <component base="CombCaron" xOffset="1065"/>
    <contour>
      <point x="495" y="0" type="move" name="H"/>
    </contour>
    <contour>
      <point x="495" y="-100" type="move" name="L"/>
    </contour>
    <contour>
      <point x="495" y="1635" type="move" name="U"/>
    </contour>
  </outline>
</glyph>
<glyph name="LtnSmTCedilla" format="1">
  <advance width="835"/>
  <unicode hex="0163"/>
  <outline>
    <component base="LtnSmT"/>
    <component base="CombCedilla" xOffset="1045"/>
    <contour>
      <point x="435" y="-520" type="move" name="L"/>
    </contour>
    <contour>
      <point x="835" y="1000" type="move" name="R"/>
    </contour>
    <contour>
      <point x="325" y="1360" type="move" name="U"/>
    </contour>
  </outline>
</glyph>
<glyph name="LtnCapTCaron" format="1">
  <advance width="1265"/>
  <unicode hex="0164"/>
  <outline>
    <component base="LtnCapT"/>
    <component base="CombCaron" xOffset="1192" yOffset="430"/>
    <contour>
      <point x="622" y="0" type="move" name="H"/>
    </contour>
    <contour>
      <point x="622" y="-100" type="move" name="L"/>
    </contour>
    <contour>
      <point x="622" y="2065" type="move" name="U"/>
    </contour>
  </outline>
</glyph>
<glyph name="LtnSmTCaron" format="1">
  <advance width="835"/>
  <unicode hex="0165"/>
  <outline>
    <contour>
      <point x="415" y="1320" type="line" name="hr00"/>
      <point x="230" y="1320" type="line"/>
      <point x="230" y="1320"/>
      <point x="230" y="435"/>
      <point x="230" y="270" type="curve" smooth="yes"/>
      <point x="230" y="39"/>
      <point x="356" y="-25"/>
      <point x="512" y="-25" type="curve" smooth="yes"/>
      <point x="582" y="-25"/>
      <point x="668" y="-4"/>
      <point x="760" y="55" type="curve"/>
      <point x="760" y="215" type="line"/>
      <point x="672" y="166"/>
      <point x="600" y="140"/>
      <point x="543" y="140" type="curve" smooth="yes"/>
      <point x="453" y="140"/>
      <point x="415" y="184"/>
      <point x="415" y="390" type="curve" smooth="yes"/>
    </contour>
    <contour>
      <point x="30" y="850" type="line"/>
      <point x="740" y="850" type="line"/>
      <point x="740" y="995" type="line"/>
      <point x="30" y="995" type="line"/>
    </contour>
    <contour>
      <point x="650" y="1600" type="line"/>
      <point x="585" y="1170" type="line"/>
      <point x="705" y="1170" type="line"/>
      <point x="835" y="1600" type="line"/>
    </contour>
    <contour>
      <point x="475" y="0" type="move" name="H"/>
    </contour>
    <contour>
      <point x="475" y="-100" type="move" name="L"/>
    </contour>
    <contour>
      <point x="325" y="1360" type="move" name="U"/>
    </contour>
  </outline>
</glyph>
<glyph name="LtnCapUTilde" format="1">
  <advance width="1440"/>
  <unicode hex="0168"/>
  <outline>
    <component base="LtnCapU"/>
    <component base="SmTilde" xOffset="357" yOffset="430"/>
    <contour>
      <point x="707" y="0" type="move" name="H"/>
    </contour>
    <contour>
      <point x="707" y="-100" type="move" name="L"/>
    </contour>
    <contour>
      <point x="1026" y="0" type="move" name="O"/>
    </contour>
    <contour>
      <point x="1400" y="1200" type="move" name="R"/>
    </contour>
    <contour>
      <point x="707" y="1905" type="move" name="U"/>
    </contour>
  </outline>
</glyph>
<glyph name="LtnSmUOgonek" format="1">
  <advance width="1185"/>
  <unicode hex="0173"/>
  <outline>
    <component base="LtnSmU"/>
    <component base="CombOgonek" xOffset="1489"/>
    <contour>
      <point x="1000" y="-500" type="move" name="L"/>
    </contour>
    <contour>
      <point x="589" y="1100" type="move" name="U"/>
    </contour>
  </outline>
</glyph>
<glyph name="LtnCapWCircum" format="1">
  <advance width="2080"/>
  <unicode hex="0174"/>
  <outline>
    <component base="LtnCapW"/>
    <component base="CombCircum" xOffset="1597" yOffset="430"/>
    <contour>
      <point x="1027" y="-100" type="move" name="L"/>
    </contour>
    <contour>
      <point x="1027" y="2065" type="move" name="U"/>
    </contour>
  </outline>
</glyph>
<glyph name="LtnCapYCircum" format="1">
  <advance width="1320"/>
  <unicode hex="0176"/>
  <outline>
    <component base="LtnCapY"/>
    <component base="CombCircum" xOffset="1220" yOffset="430"/>
    <contour>
      <point x="650" y="-100" type="move" name="L"/>
    </contour>
    <contour>
      <point x="650" y="2065" type="move" name="U"/>
    </contour>
  </outline>
</glyph>
<glyph name="LtnCapZAcute" format="1">
  <advance width="1230"/>
  <unicode hex="0179"/>
  <outline>
    <component base="LtnCapZ"/>
    <component base="CombAcute" xOffset="1175" yOffset="430"/>
    <contour>
      <point x="605" y="-100" type="move" name="L"/>
    </contour>
    <contour>
      <point x="605" y="2065" type="move" name="U"/>
    </contour>
  </outline>
</glyph>
<glyph name="LtnCapZCaron" format="1">
  <advance width="1230"/>
  <unicode hex="017D"/>
  <outline>
    <component base="LtnCapZ"/>
    <component base="CombCaron" xOffset="1175" yOffset="430"/>
    <contour>
      <point x="605" y="-100" type="move" name="L"/>
    </contour>
    <contour>
      <point x="605" y="2065" type="move" name="U"/>
    </contour>
  </outline>
</glyph>
<glyph name="LtnSmLngS" format="2">
  <advance width="610"/>
  <unicode hex="017F"/>
  <anchor x="275" y="-100" name="L"/>
  <anchor x="435" y="1635" name="U"/>
  <outline>
    <contour>
      <point x="735" y="1550" type="line"/>
      <point x="673" y="1594"/>
      <point x="593" y="1620"/>
      <point x="515" y="1620" type="curve" smooth="yes"/>
      <point x="299" y="1620"/>
      <point x="170" y="1480"/>
      <point x="170" y="1180" type="curve" smooth="yes"/>
      <point x="170" y="0" type="line"/>
      <point x="385" y="0" type="line"/>
      <point x="363" y="105"/>
      <point x="355" y="301"/>
      <point x="355" y="495" type="curve" smooth="yes"/>
      <point x="355" y="1210" type="line" smooth="yes"/>
      <point x="355" y="1381"/>
      <point x="411" y="1450"/>
      <point x="515" y="1450" type="curve" smooth="yes"/>
      <point x="573" y="1450"/>
      <point x="640" y="1427"/>
      <point x="690" y="1390" type="curve"/>
    </contour>
  </outline>
</glyph>
<glyph name="LtnSmBBarredStem" format="2">
  <advance width="1170"/>
  <unicode hex="0180"/>
  <anchor x="589" y="-100" name="L"/>
  <anchor x="589" y="1635" name="U"/>
  <outline>
    <contour>
      <point x="-20" y="1175" type="line"/>
      <point x="690" y="1175" type="line"/>
      <point x="690" y="1310" type="line"/>
      <point x="-20" y="1310" type="line"/>
    </contour>
    <contour>
      <point x="145" y="1600" type="line"/>
      <point x="160" y="1488"/>
      <point x="160" y="1273"/>
      <point x="160" y="1130" type="curve" smooth="yes"/>
      <point x="160" y="936"/>
      <point x="160" y="228"/>
      <point x="160" y="65" type="curve"/>
      <point x="287" y="26"/>
      <point x="428" y="-25"/>
      <point x="590" y="-25" type="curve" smooth="yes"/>
      <point x="885" y="-25"/>
      <point x="1075" y="197"/>
      <point x="1075" y="540" type="curve" smooth="yes"/>
      <point x="1075" y="832"/>
      <point x="932" y="1040"/>
      <point x="730" y="1040" type="curve" smooth="yes"/>
      <point x="562" y="1040"/>
      <point x="438" y="947"/>
      <point x="345" y="825" type="curve"/>
      <point x="345" y="916"/>
      <point x="345" y="1600"/>
      <point x="345" y="1600" type="curve"/>
    </contour>
    <contour>
      <point x="345" y="585" type="line"/>
      <point x="413" y="751"/>
      <point x="546" y="865"/>
      <point x="670" y="865" type="curve" smooth="yes"/>
      <point x="814" y="865"/>
      <point x="895" y="727"/>
      <point x="895" y="505" type="curve" smooth="yes"/>
      <point x="895" y="280"/>
      <point x="767" y="130"/>
      <point x="590" y="130" type="curve" smooth="yes"/>
      <point x="504" y="130"/>
      <point x="443" y="144"/>
      <point x="345" y="185" type="curve"/>
    </contour>
  </outline>
</glyph>
<glyph name="LtnCapBHook" format="1">
  <advance width="1617"/>
  <unicode hex="0181"/>
  <outline>
    <contour>
      <point x="695" y="700" type="line" name="hr01"/>
      <point x="910" y="700" type="line" smooth="yes"/>
      <point x="1143" y="700"/>
      <point x="1275" y="604"/>
      <point x="1275" y="420" type="curve" smooth="yes"/>
      <point x="1275" y="212"/>
      <point x="1091" y="150"/>
      <point x="920" y="150" type="curve" smooth="yes"/>
      <point x="808" y="150"/>
      <point x="732" y="153"/>
      <point x="695" y="155" type="curve"/>
    </contour>
    <contour>
      <point x="505" y="1365" type="line" name="hr02"/>
      <point x="505" y="455" type="line" smooth="yes"/>
      <point x="505" y="257"/>
      <point x="505" y="80"/>
      <point x="490" y="0" type="curve"/>
      <point x="490" y="0"/>
      <point x="712" y="-10"/>
      <point x="915" y="-10" type="curve" smooth="yes" name="hr03"/>
      <point x="1298" y="-10"/>
      <point x="1470" y="177"/>
      <point x="1470" y="420" type="curve" smooth="yes"/>
      <point x="1470" y="669"/>
      <point x="1304" y="760"/>
      <point x="1150" y="801" type="curve"/>
      <point x="1286" y="853"/>
      <point x="1395" y="952"/>
      <point x="1395" y="1120" type="curve" smooth="yes" name="hr04"/>
      <point x="1395" y="1360"/>
      <point x="1222" y="1470"/>
      <point x="855" y="1470" type="curve" smooth="yes"/>
      <point x="580" y="1470" type="line" smooth="yes"/>
      <point x="230" y="1470"/>
      <point x="0" y="1341"/>
      <point x="0" y="1065" type="curve" smooth="yes"/>
      <point x="0" y="1002"/>
      <point x="28" y="910"/>
      <point x="55" y="860" type="curve"/>
      <point x="220" y="900" type="line"/>
      <point x="191" y="952"/>
      <point x="170" y="1001"/>
      <point x="170" y="1085" type="curve" smooth="yes"/>
      <point x="170" y="1235"/>
      <point x="309" y="1315"/>
      <point x="510" y="1315" type="curve"/>
      <point x="825" y="1315" type="line"/>
      <point x="1111" y="1315"/>
      <point x="1200" y="1244"/>
      <point x="1200" y="1090" type="curve" smooth="yes"/>
      <point x="1200" y="951"/>
      <point x="1084" y="856"/>
      <point x="870" y="856" type="curve" smooth="yes"/>
      <point x="695" y="856" type="line"/>
      <point x="695" y="1365" type="line" name="hr05"/>
    </contour>
    <contour>
      <point x="947" y="-100" type="move" name="L"/>
    </contour>
    <contour>
      <point x="947" y="1530" type="move" name="U"/>
    </contour>
  </outline>
</glyph>
<glyph name="LtnCapBTopbar" format="1">
  <advance width="1265"/>
  <unicode hex="0182"/>
  <outline>
    <contour>
      <point x="365" y="700" type="line" name="hr01"/>
      <point x="560" y="700" type="line" smooth="yes"/>
      <point x="793" y="700"/>
      <point x="925" y="624"/>
      <point x="925" y="440" type="curve" smooth="yes"/>
      <point x="925" y="232"/>
      <point x="761" y="150"/>
      <point x="570" y="150" type="curve" smooth="yes"/>
      <point x="458" y="150"/>
      <point x="402" y="153"/>
      <point x="365" y="155" type="curve"/>
    </contour>
    <contour>
      <point x="995" y="1460" type="line"/>
      <point x="160" y="1460" type="line"/>
      <point x="175" y="1380"/>
      <point x="175" y="1222"/>
      <point x="175" y="1025" type="curve" smooth="yes"/>
      <point x="175" y="455" type="line" smooth="yes"/>
      <point x="175" y="257"/>
      <point x="175" y="80"/>
      <point x="160" y="0" type="curve"/>
      <point x="160" y="0"/>
      <point x="362" y="-10"/>
      <point x="565" y="-10" type="curve" smooth="yes"/>
      <point x="948" y="-10"/>
      <point x="1120" y="197"/>
      <point x="1120" y="440" type="curve" smooth="yes"/>
      <point x="1120" y="689"/>
      <point x="955" y="855"/>
      <point x="560" y="855" type="curve" smooth="yes"/>
      <point x="365" y="855" type="line"/>
      <point x="365" y="1295" type="line"/>
      <point x="559" y="1295" type="line" smooth="yes"/>
      <point x="756" y="1295"/>
      <point x="915" y="1294"/>
      <point x="995" y="1280" type="curve" name="hr02"/>
    </contour>
    <contour>
      <point x="640" y="-100" type="move" name="L"/>
    </contour>
    <contour>
      <point x="640" y="1530" type="move" name="U"/>
    </contour>
  </outline>
</glyph>
<glyph name="LtnSmBTopbar" format="1">
  <advance width="1155"/>
  <unicode hex="0183"/>
  <outline>
    <contour>
      <point x="1060" y="540" type="curve" smooth="yes" name="hr00"/>
      <point x="1060" y="832"/>
      <point x="917" y="1040"/>
      <point x="715" y="1040" type="curve" smooth="yes"/>
      <point x="547" y="1040"/>
      <point x="423" y="947"/>
      <point x="330" y="825" type="curve"/>
      <point x="330" y="1600" type="line"/>
      <point x="130" y="1600" type="line"/>
      <point x="145" y="1488"/>
      <point x="145" y="1273"/>
      <point x="145" y="1130" type="curve" smooth="yes"/>
      <point x="145" y="65" type="line"/>
      <point x="272" y="26"/>
      <point x="413" y="-25"/>
      <point x="575" y="-25" type="curve" smooth="yes"/>
      <point x="870" y="-25"/>
      <point x="1060" y="197"/>
    </contour>
    <contour>
      <point x="330" y="585" type="line"/>
      <point x="398" y="751"/>
      <point x="531" y="865"/>
      <point x="655" y="865" type="curve" smooth="yes"/>
      <point x="799" y="865"/>
      <point x="880" y="727"/>
      <point x="880" y="505" type="curve" smooth="yes"/>
      <point x="880" y="280"/>
      <point x="752" y="130"/>
      <point x="575" y="130" type="curve" smooth="yes"/>
      <point x="489" y="130"/>
      <point x="428" y="144"/>
      <point x="330" y="185" type="curve"/>
    </contour>
    <contour>
      <point x="280" y="1600" type="line"/>
      <point x="280" y="1455" type="line"/>
      <point x="505" y="1455" type="line" smooth="yes"/>
      <point x="702" y="1455"/>
      <point x="860" y="1454"/>
      <point x="940" y="1440" type="curve"/>
      <point x="940" y="1600" type="line"/>
    </contour>
    <contour>
      <point x="595" y="-100" type="move" name="L"/>
    </contour>
    <contour>
      <point x="575" y="1635" type="move" name="U"/>
    </contour>
  </outline>
</glyph>
<glyph name="LtnCapTnSix" format="1">
  <advance width="1245"/>
  <unicode hex="0184"/>
  <outline>
    <contour>
      <point x="410" y="700" type="line" name="hr01"/>
      <point x="605" y="700" type="line" smooth="yes"/>
      <point x="838" y="700"/>
      <point x="970" y="624"/>
      <point x="970" y="440" type="curve" smooth="yes"/>
      <point x="970" y="232"/>
      <point x="806" y="150"/>
      <point x="615" y="150" type="curve" smooth="yes"/>
      <point x="503" y="150"/>
      <point x="447" y="153"/>
      <point x="410" y="155" type="curve"/>
    </contour>
    <contour>
      <point x="235" y="1460" type="line"/>
      <point x="207" y="1301"/>
      <point x="136" y="1170"/>
      <point x="30" y="1040" type="curve"/>
      <point x="220" y="930" type="line"/>
      <point x="220" y="455" type="line" smooth="yes"/>
      <point x="220" y="257"/>
      <point x="220" y="80"/>
      <point x="205" y="0" type="curve"/>
      <point x="205" y="0"/>
      <point x="407" y="-10"/>
      <point x="610" y="-10" type="curve" smooth="yes"/>
      <point x="993" y="-10"/>
      <point x="1165" y="197"/>
      <point x="1165" y="440" type="curve" smooth="yes"/>
      <point x="1165" y="689"/>
      <point x="1000" y="855"/>
      <point x="605" y="855" type="curve" smooth="yes"/>
      <point x="410" y="855" type="line"/>
      <point x="410" y="1460" type="line" name="hr02"/>
    </contour>
    <contour>
      <point x="610" y="-100" type="move" name="L"/>
    </contour>
    <contour>
      <point x="610" y="1530" type="move" name="U"/>
    </contour>
  </outline>
</glyph>
<glyph name="LtnSmTnSix" format="2">
  <advance width="1230"/>
  <unicode hex="0185"/>
  <anchor x="665" y="-100" name="L"/>
  <anchor x="665" y="1635" name="U"/>
  <outline>
    <contour>
      <point x="405" y="185" type="curve"/>
      <point x="405" y="585" type="line"/>
      <point x="473" y="751"/>
      <point x="606" y="865"/>
      <point x="730" y="865" type="curve" smooth="yes"/>
      <point x="874" y="865"/>
      <point x="955" y="727"/>
      <point x="955" y="505" type="curve" smooth="yes"/>
      <point x="955" y="280"/>
      <point x="827" y="130"/>
      <point x="650" y="130" type="curve" smooth="yes"/>
      <point x="564" y="130"/>
      <point x="503" y="144"/>
    </contour>
    <contour>
      <point x="405" y="1600" type="line"/>
      <point x="245" y="1600" type="line"/>
      <point x="203" y="1502"/>
      <point x="65" y="1240"/>
      <point x="-50" y="1045" type="curve"/>
      <point x="95" y="1045" type="line"/>
      <point x="251" y="1270" type="line"/>
      <point x="220" y="1279" type="line"/>
      <point x="220" y="65" type="line"/>
      <point x="373" y="15"/>
      <point x="508" y="-25"/>
      <point x="650" y="-25" type="curve" smooth="yes"/>
      <point x="945" y="-25"/>
      <point x="1135" y="197"/>
      <point x="1135" y="540" type="curve" smooth="yes"/>
      <point x="1135" y="832"/>
      <point x="992" y="1040"/>
      <point x="790" y="1040" type="curve" smooth="yes"/>
      <point x="622" y="1040"/>
      <point x="498" y="947"/>
      <point x="405" y="825" type="curve"/>
    </contour>
  </outline>
</glyph>
<glyph name="LtnCapOpnO" format="2">
  <advance width="1320"/>
  <unicode hex="0186"/>
  <anchor x="600" y="-100" name="L"/>
  <anchor x="600" y="1530" name="U"/>
  <outline>
    <contour>
      <point x="590" y="1485" type="curve" smooth="yes"/>
      <point x="437" y="1485"/>
      <point x="235" y="1421"/>
      <point x="140" y="1315" type="curve"/>
      <point x="180" y="1100" type="line"/>
      <point x="281" y="1231"/>
      <point x="411" y="1310"/>
      <point x="560" y="1310" type="curve" smooth="yes"/>
      <point x="816" y="1310"/>
      <point x="1005" y="1082"/>
      <point x="1005" y="715" type="curve" smooth="yes"/>
      <point x="1005" y="361"/>
      <point x="798" y="150"/>
      <point x="580" y="150" type="curve" smooth="yes"/>
      <point x="429" y="150"/>
      <point x="283" y="228"/>
      <point x="198" y="351" type="curve"/>
      <point x="95" y="188" type="line"/>
      <point x="194" y="44"/>
      <point x="389" y="-25"/>
      <point x="560" y="-25" type="curve" smooth="yes"/>
      <point x="904" y="-25"/>
      <point x="1200" y="261"/>
      <point x="1200" y="745" type="curve" smooth="yes"/>
      <point x="1200" y="1220"/>
      <point x="888" y="1485"/>
    </contour>
  </outline>
</glyph>
<glyph name="LtnCapCHook" format="2">
  <advance width="1355"/>
  <unicode hex="0187"/>
  <anchor x="722" y="-100" name="L"/>
  <anchor x="722" y="1530" name="U"/>
  <outline>
    <contour>
      <point x="1190" y="335" type="line"/>
      <point x="1078" y="223"/>
      <point x="912" y="150"/>
      <point x="760" y="150" type="curve" smooth="yes"/>
      <point x="459" y="150"/>
      <point x="290" y="426"/>
      <point x="290" y="735" type="curve" smooth="yes"/>
      <point x="290" y="1119"/>
      <point x="491" y="1315"/>
      <point x="770" y="1315" type="curve" smooth="yes"/>
      <point x="891" y="1315"/>
      <point x="1026" y="1297"/>
      <point x="1175" y="1192" type="curve"/>
      <point x="1175" y="1470" type="line" smooth="yes"/>
      <point x="1175" y="1601"/>
      <point x="1221" y="1680"/>
      <point x="1315" y="1680" type="curve" smooth="yes"/>
      <point x="1353" y="1680"/>
      <point x="1410" y="1657"/>
      <point x="1440" y="1620" type="curve"/>
      <point x="1485" y="1785" type="line"/>
      <point x="1447" y="1823"/>
      <point x="1373" y="1850"/>
      <point x="1295" y="1850" type="curve" smooth="yes"/>
      <point x="1104" y="1850"/>
      <point x="1005" y="1699"/>
      <point x="1000" y="1452" type="curve"/>
      <point x="922" y="1474"/>
      <point x="842" y="1485"/>
      <point x="770" y="1485" type="curve" smooth="yes"/>
      <point x="418" y="1485"/>
      <point x="95" y="1225"/>
      <point x="95" y="710" type="curve" smooth="yes"/>
      <point x="95" y="260"/>
      <point x="346" y="-25"/>
      <point x="750" y="-25" type="curve" smooth="yes"/>
      <point x="902" y="-25"/>
      <point x="1114" y="32"/>
      <point x="1230" y="140" type="curve"/>
    </contour>
  </outline>
</glyph>
<glyph name="LtnSmCHook" format="1">
  <advance width="1105"/>
  <unicode hex="0188"/>
  <outline>
    <contour>
      <point x="615" y="1040" type="curve" smooth="yes" name="hr00"/>
      <point x="297" y="1040"/>
      <point x="95" y="792"/>
      <point x="95" y="490" type="curve" smooth="yes"/>
      <point x="95" y="171"/>
      <point x="312" y="-25"/>
      <point x="580" y="-25" type="curve" smooth="yes"/>
      <point x="730" y="-25"/>
      <point x="834" y="19"/>
      <point x="925" y="85" type="curve"/>
      <point x="905" y="260" type="line"/>
      <point x="818" y="183"/>
      <point x="720" y="140"/>
      <point x="600" y="140" type="curve" smooth="yes"/>
      <point x="406" y="140"/>
      <point x="285" y="285"/>
      <point x="285" y="500" type="curve" smooth="yes"/>
      <point x="285" y="736"/>
      <point x="422" y="875"/>
      <point x="600" y="875" type="curve" smooth="yes"/>
      <point x="703" y="875"/>
      <point x="841" y="826"/>
      <point x="915" y="775" type="curve"/>
      <point x="915" y="955" type="line"/>
      <point x="842" y="1005"/>
      <point x="748" y="1040"/>
    </contour>
    <contour>
      <point x="1175" y="1315" type="line"/>
      <point x="1122" y="1348"/>
      <point x="1064" y="1360"/>
      <point x="995" y="1360" type="curve" smooth="yes"/>
      <point x="875" y="1360"/>
      <point x="760" y="1263"/>
      <point x="760" y="1100" type="curve" smooth="yes"/>
      <point x="760" y="895" type="line"/>
      <point x="915" y="895" type="line"/>
      <point x="915" y="1100" type="line" smooth="yes"/>
      <point x="915" y="1175"/>
      <point x="963" y="1225"/>
      <point x="1020" y="1225" type="curve" smooth="yes"/>
      <point x="1076" y="1225"/>
      <point x="1117" y="1208"/>
      <point x="1160" y="1180" type="curve"/>
    </contour>
    <contour>
      <point x="562" y="-100" type="move" name="L"/>
    </contour>
    <contour>
      <point x="577" y="1100" type="move" name="U"/>
    </contour>
  </outline>
</glyph>
<glyph name="LtnCapDHook" format="2">
  <advance width="1765"/>
  <unicode hex="018A"/>
  <anchor x="1025" y="-100" name="L"/>
  <anchor x="1025" y="1530" name="U"/>
  <outline>
    <contour>
      <point x="695" y="1419" type="line"/>
      <point x="505" y="1384" type="line"/>
      <point x="505" y="455" type="line" smooth="yes"/>
      <point x="505" y="257"/>
      <point x="505" y="80"/>
      <point x="490" y="0" type="curve"/>
      <point x="542" y="-4"/>
      <point x="797" y="-10"/>
      <point x="925" y="-10" type="curve" smooth="yes"/>
      <point x="1218" y="-10"/>
      <point x="1645" y="145"/>
      <point x="1645" y="740" type="curve" smooth="yes"/>
      <point x="1645" y="1394"/>
      <point x="1159" y="1470"/>
      <point x="885" y="1470" type="curve" smooth="yes"/>
      <point x="579" y="1470" type="line" smooth="yes"/>
      <point x="229" y="1470"/>
      <point x="0" y="1341"/>
      <point x="0" y="1065" type="curve" smooth="yes"/>
      <point x="0" y="1002"/>
      <point x="28" y="910"/>
      <point x="55" y="860" type="curve"/>
      <point x="210" y="900" type="line"/>
      <point x="181" y="952"/>
      <point x="160" y="1001"/>
      <point x="160" y="1080" type="curve" smooth="yes"/>
      <point x="160" y="1240"/>
      <point x="339" y="1310"/>
      <point x="510" y="1310" type="curve"/>
      <point x="860" y="1310" type="line" smooth="yes"/>
      <point x="1198" y="1310"/>
      <point x="1450" y="1167"/>
      <point x="1450" y="720" type="curve" smooth="yes"/>
      <point x="1450" y="308"/>
      <point x="1183" y="155"/>
      <point x="915" y="155" type="curve" smooth="yes"/>
      <point x="820" y="155"/>
      <point x="742" y="161"/>
      <point x="695" y="165" type="curve"/>
    </contour>
  </outline>
</glyph>
<glyph name="LtnCapDTopbar" format="2">
  <advance width="1265"/>
  <unicode hex="018B"/>
  <anchor x="625" y="-100" name="L"/>
  <anchor x="625" y="1530" name="U"/>
  <outline>
    <contour>
      <point x="900" y="700" type="line"/>
      <point x="900" y="155" type="line"/>
      <point x="863" y="153"/>
      <point x="807" y="150"/>
      <point x="695" y="150" type="curve" smooth="yes"/>
      <point x="504" y="150"/>
      <point x="340" y="222"/>
      <point x="340" y="420" type="curve" smooth="yes"/>
      <point x="340" y="614"/>
      <point x="450" y="700"/>
      <point x="725" y="700" type="curve" smooth="yes"/>
    </contour>
    <contour>
      <point x="260" y="1460" type="line"/>
      <point x="260" y="1280" type="line"/>
      <point x="340" y="1294"/>
      <point x="498" y="1295"/>
      <point x="695" y="1295" type="curve" smooth="yes"/>
      <point x="900" y="1295" type="line"/>
      <point x="900" y="855" type="line"/>
      <point x="725" y="855" type="line" smooth="yes"/>
      <point x="295" y="855"/>
      <point x="145" y="669"/>
      <point x="145" y="420" type="curve" smooth="yes"/>
      <point x="145" y="177"/>
      <point x="307" y="-10"/>
      <point x="700" y="-10" type="curve" smooth="yes"/>
      <point x="903" y="-10"/>
      <point x="1105" y="0"/>
      <point x="1105" y="0" type="curve"/>
      <point x="1090" y="80"/>
      <point x="1090" y="257"/>
      <point x="1090" y="455" type="curve" smooth="yes"/>
      <point x="1090" y="1025" type="line" smooth="yes"/>
      <point x="1090" y="1222"/>
      <point x="1090" y="1380"/>
      <point x="1105" y="1460" type="curve"/>
    </contour>
  </outline>
</glyph>
<glyph name="LtnSmDTopbar" format="2">
  <advance width="1190"/>
  <unicode hex="018C"/>
  <anchor x="605" y="-100" name="L"/>
  <anchor x="605" y="1635" name="U"/>
  <outline>
    <contour>
      <point x="1030" y="1600" type="line"/>
      <point x="845" y="1600" type="line"/>
      <point x="845" y="955" type="line"/>
      <point x="767" y="999"/>
      <point x="665" y="1040"/>
      <point x="580" y="1040" type="curve" smooth="yes"/>
      <point x="312" y="1040"/>
      <point x="105" y="814"/>
      <point x="105" y="460" type="curve" smooth="yes"/>
      <point x="105" y="167"/>
      <point x="261" y="-25"/>
      <point x="505" y="-25" type="curve" smooth="yes"/>
      <point x="652" y="-25"/>
      <point x="775" y="50"/>
      <point x="870" y="185" type="curve"/>
      <point x="887" y="111"/>
      <point x="910" y="34"/>
      <point x="925" y="0" type="curve"/>
      <point x="1105" y="0" type="line"/>
      <point x="1062" y="112"/>
      <point x="1030" y="278"/>
      <point x="1030" y="530" type="curve" smooth="yes"/>
    </contour>
    <contour>
      <point x="845" y="400" type="line"/>
      <point x="790" y="268"/>
      <point x="662" y="135"/>
      <point x="540" y="135" type="curve" smooth="yes"/>
      <point x="366" y="135"/>
      <point x="290" y="258"/>
      <point x="290" y="490" type="curve" smooth="yes"/>
      <point x="290" y="727"/>
      <point x="429" y="870"/>
      <point x="580" y="870" type="curve" smooth="yes"/>
      <point x="681" y="870"/>
      <point x="746" y="848"/>
      <point x="845" y="795" type="curve"/>
    </contour>
    <contour>
      <point x="225" y="1600" type="line"/>
      <point x="225" y="1440" type="line"/>
      <point x="305" y="1454"/>
      <point x="463" y="1455"/>
      <point x="660" y="1455" type="curve" smooth="yes"/>
      <point x="885" y="1455" type="line"/>
      <point x="885" y="1600" type="line"/>
    </contour>
  </outline>
</glyph>
<glyph name="LtnSmTrndDelta" format="2">
  <advance width="1130"/>
  <unicode hex="018D"/>
  <anchor x="570" y="-500" name="L"/>
  <anchor x="570" y="1100" name="U"/>
  <outline>
    <contour>
      <point x="162" y="-430" type="line"/>
      <point x="259" y="-463"/>
      <point x="389" y="-490"/>
      <point x="520" y="-490" type="curve" smooth="yes"/>
      <point x="776" y="-490"/>
      <point x="978" y="-364"/>
      <point x="978" y="-191" type="curve" smooth="yes"/>
      <point x="978" y="-77"/>
      <point x="896" y="-22"/>
      <point x="635" y="118" type="curve" smooth="yes"/>
      <point x="407" y="240"/>
      <point x="280" y="340"/>
      <point x="280" y="520" type="curve" smooth="yes"/>
      <point x="280" y="753"/>
      <point x="409" y="880"/>
      <point x="570" y="880" type="curve" smooth="yes"/>
      <point x="742" y="880"/>
      <point x="850" y="740"/>
      <point x="850" y="550" type="curve" smooth="yes"/>
      <point x="850" y="359"/>
      <point x="741" y="225"/>
      <point x="513" y="138" type="curve"/>
      <point x="594" y="25" type="line"/>
      <point x="878" y="133"/>
      <point x="1035" y="325"/>
      <point x="1035" y="570" type="curve" smooth="yes"/>
      <point x="1035" y="866"/>
      <point x="854" y="1040"/>
      <point x="580" y="1040" type="curve" smooth="yes"/>
      <point x="317" y="1040"/>
      <point x="95" y="864"/>
      <point x="95" y="520" type="curve" smooth="yes"/>
      <point x="95" y="242"/>
      <point x="291" y="94"/>
      <point x="495" y="-9" type="curve" smooth="yes"/>
      <point x="679" y="-102"/>
      <point x="796" y="-177"/>
      <point x="796" y="-217" type="curve" smooth="yes"/>
      <point x="796" y="-284"/>
      <point x="686" y="-336"/>
      <point x="552" y="-336" type="curve" smooth="yes"/>
      <point x="419" y="-336"/>
      <point x="313" y="-301"/>
      <point x="210" y="-260" type="curve"/>
    </contour>
  </outline>
</glyph>
<glyph name="LtnCapRevE" format="1">
  <advance width="1160"/>
  <unicode hex="018E"/>
  <outline>
    <contour>
      <point x="225" y="845" type="line" name="hr00"/>
      <point x="225" y="685" type="line"/>
      <point x="795" y="685" type="line"/>
      <point x="795" y="165" type="line"/>
      <point x="531" y="165" type="line" smooth="yes"/>
      <point x="334" y="165"/>
      <point x="200" y="166"/>
      <point x="120" y="180" type="curve"/>
      <point x="120" y="0" type="line"/>
      <point x="1000" y="0" type="line"/>
      <point x="985" y="80"/>
      <point x="985" y="238"/>
      <point x="985" y="435" type="curve" smooth="yes"/>
      <point x="985" y="1025" type="line" smooth="yes"/>
      <point x="985" y="1222"/>
      <point x="985" y="1380"/>
      <point x="1000" y="1460" type="curve"/>
      <point x="150" y="1460" type="line"/>
      <point x="150" y="1295" type="line"/>
      <point x="795" y="1295" type="line"/>
      <point x="795" y="845" type="line"/>
    </contour>
    <contour>
      <point x="560" y="-100" type="move" name="L"/>
    </contour>
    <contour>
      <point x="560" y="1530" type="move" name="U"/>
    </contour>
  </outline>
</glyph>
<glyph name="LtnCapSchwa" format="2">
  <advance width="1440"/>
  <unicode hex="018F"/>
  <anchor x="720" y="-100" name="L"/>
  <anchor x="720" y="1530" name="U"/>
  <outline>
    <contour>
      <point x="240" y="1125" type="line"/>
      <point x="376" y="1239"/>
      <point x="499" y="1310"/>
      <point x="670" y="1310" type="curve" smooth="yes"/>
      <point x="937" y="1310"/>
      <point x="1100" y="1112"/>
      <point x="1120" y="800" type="curve"/>
      <point x="125" y="800" type="line"/>
      <point x="124" y="773"/>
      <point x="120" y="726"/>
      <point x="120" y="699" type="curve" smooth="yes"/>
      <point x="120" y="310"/>
      <point x="278" y="-25"/>
      <point x="695" y="-25" type="curve" smooth="yes"/>
      <point x="1085" y="-25"/>
      <point x="1320" y="291"/>
      <point x="1320" y="760" type="curve" smooth="yes"/>
      <point x="1320" y="1217"/>
      <point x="1043" y="1485"/>
      <point x="705" y="1485" type="curve" smooth="yes"/>
      <point x="503" y="1485"/>
      <point x="370" y="1436"/>
      <point x="200" y="1320" type="curve"/>
    </contour>
    <contour>
      <point x="1120" y="640" type="line"/>
      <point x="1097" y="346"/>
      <point x="959" y="150"/>
      <point x="710" y="150" type="curve" smooth="yes"/>
      <point x="460" y="150"/>
      <point x="315" y="335"/>
      <point x="315" y="640" type="curve"/>
    </contour>
  </outline>
</glyph>
<glyph name="LtnCapOpnE" format="2">
  <advance width="1185"/>
  <unicode hex="0190"/>
  <anchor x="600" y="-100" name="L"/>
  <anchor x="600" y="1530" name="U"/>
  <outline>
    <contour>
      <point x="1020" y="1395" type="line"/>
      <point x="911" y="1456"/>
      <point x="818" y="1485"/>
      <point x="655" y="1485" type="curve" smooth="yes"/>
      <point x="332" y="1485"/>
      <point x="185" y="1266"/>
      <point x="185" y="1100" type="curve" smooth="yes"/>
      <point x="185" y="950"/>
      <point x="283" y="810"/>
      <point x="415" y="760" type="curve"/>
      <point x="257" y="721"/>
      <point x="125" y="580"/>
      <point x="125" y="385" type="curve" smooth="yes"/>
      <point x="125" y="186"/>
      <point x="262" y="-25"/>
      <point x="595" y="-25" type="curve" smooth="yes"/>
      <point x="745" y="-25"/>
      <point x="959" y="32"/>
      <point x="1075" y="140" type="curve"/>
      <point x="1035" y="335" type="line"/>
      <point x="923" y="223"/>
      <point x="751" y="150"/>
      <point x="605" y="150" type="curve" smooth="yes"/>
      <point x="450" y="150"/>
      <point x="310" y="238"/>
      <point x="310" y="405" type="curve" smooth="yes"/>
      <point x="310" y="629"/>
      <point x="591" y="680"/>
      <point x="775" y="680" type="curve"/>
      <point x="775" y="840" type="line"/>
      <point x="571" y="840"/>
      <point x="370" y="923"/>
      <point x="370" y="1115" type="curve" smooth="yes"/>
      <point x="370" y="1224"/>
      <point x="484" y="1315"/>
      <point x="645" y="1315" type="curve" smooth="yes"/>
      <point x="755" y="1315"/>
      <point x="856" y="1291"/>
      <point x="980" y="1205" type="curve"/>
    </contour>
  </outline>
</glyph>
<glyph name="LtnCapFHook" format="1">
  <advance width="1150"/>
  <unicode hex="0191"/>
  <outline>
    <contour>
      <point x="425" y="675" type="line" name="hr00"/>
      <point x="1005" y="675" type="line"/>
      <point x="1005" y="835" type="line"/>
      <point x="425" y="835" type="line"/>
      <point x="425" y="1295" type="line"/>
      <point x="1090" y="1295" type="line"/>
      <point x="1090" y="1460" type="line"/>
      <point x="220" y="1460" type="line"/>
      <point x="235" y="1380"/>
      <point x="235" y="1217"/>
      <point x="235" y="1020" type="curve" smooth="yes"/>
      <point x="235" y="80" type="line"/>
      <point x="235" y="-191"/>
      <point x="127" y="-300"/>
      <point x="20" y="-300" type="curve" smooth="yes"/>
      <point x="-42" y="-300"/>
      <point x="-102" y="-290"/>
      <point x="-135" y="-265" type="curve"/>
      <point x="-200" y="-420" type="line"/>
      <point x="-168" y="-441"/>
      <point x="-87" y="-470"/>
      <point x="-5" y="-470" type="curve" smooth="yes"/>
      <point x="260" y="-470"/>
      <point x="425" y="-285"/>
      <point x="425" y="140" type="curve"/>
    </contour>
    <contour>
      <point x="525" y="-500" type="move" name="L"/>
    </contour>
    <contour>
      <point x="591" y="1530" type="move" name="U"/>
    </contour>
  </outline>
</glyph>
<glyph name="LtnSmFHook" format="2">
  <advance width="730"/>
  <unicode hex="0192"/>
  <anchor x="297" y="-500" name="L"/>
  <anchor x="540" y="1635" name="U"/>
  <outline>
    <contour>
      <point x="20" y="850" type="line"/>
      <point x="675" y="850" type="line"/>
      <point x="675" y="995" type="line"/>
      <point x="20" y="995" type="line"/>
    </contour>
    <contour>
      <point x="785" y="1550" type="line"/>
      <point x="723" y="1594"/>
      <point x="643" y="1620"/>
      <point x="565" y="1620" type="curve" smooth="yes"/>
      <point x="349" y="1620"/>
      <point x="220" y="1470"/>
      <point x="220" y="1170" type="curve" smooth="yes"/>
      <point x="220" y="1087"/>
      <point x="220" y="78"/>
      <point x="220" y="-25" type="curve" smooth="yes"/>
      <point x="220" y="-222"/>
      <point x="145" y="-300"/>
      <point x="38" y="-300" type="curve" smooth="yes"/>
      <point x="-18" y="-300"/>
      <point x="-111" y="-273"/>
      <point x="-155" y="-240" type="curve"/>
      <point x="-190" y="-405" type="line"/>
      <point x="-130" y="-446"/>
      <point x="-27" y="-470"/>
      <point x="29" y="-470" type="curve" smooth="yes"/>
      <point x="257" y="-470"/>
      <point x="405" y="-348"/>
      <point x="405" y="25" type="curve" smooth="yes"/>
      <point x="405" y="733"/>
      <point x="405" y="971"/>
      <point x="405" y="1210" type="curve" smooth="yes"/>
      <point x="405" y="1391"/>
      <point x="461" y="1460"/>
      <point x="565" y="1460" type="curve" smooth="yes"/>
      <point x="623" y="1460"/>
      <point x="689" y="1437"/>
      <point x="739" y="1400" type="curve"/>
    </contour>
  </outline>
</glyph>
